<svg xmlns="http://www.w3.org/2000/svg" xmlns:xlink="http://www.w3.org/1999/xlink" width="718" zoomAndPan="magnify" viewBox="0 0 538.5 70.499998" height="94" preserveAspectRatio="xMidYMid meet" version="1.0"><defs><g/><clipPath id="id1"><path d="M 1.648438 0 L 536.355469 0 L 536.355469 70.003906 L 1.648438 70.003906 Z M 1.648438 0 " clip-rule="nonzero"/></clipPath><clipPath id="id2"><path d="M 83.628906 11.082031 L 115.679688 11.082031 L 115.679688 56.550781 L 83.628906 56.550781 Z M 83.628906 11.082031 " clip-rule="nonzero"/></clipPath></defs><g clip-path="url(#id1)"><path fill="#ff1616" d="M 17.308594 0 L 521.191406 0 C 525.339844 0 529.324219 1.640625 532.257812 4.5625 C 535.191406 7.480469 536.839844 11.441406 536.839844 15.574219 L 536.839844 54.496094 C 536.839844 58.625 535.191406 62.585938 532.257812 65.507812 C 529.324219 68.429688 525.339844 70.070312 521.191406 70.070312 L 17.308594 70.070312 C 13.15625 70.070312 9.175781 68.429688 6.242188 65.507812 C 3.308594 62.585938 1.660156 58.625 1.660156 54.496094 L 1.660156 15.574219 C 1.660156 11.441406 3.308594 7.480469 6.242188 4.5625 C 9.175781 1.640625 13.15625 0 17.308594 0 " fill-opacity="1" fill-rule="nonzero"/></g><g clip-path="url(#id2)"><path fill="#ffffff" d="M 111.664062 16.269531 L 105.691406 16.269531 C 105.25 13.335938 102.710938 11.082031 99.652344 11.082031 C 96.597656 11.082031 94.058594 13.335938 93.617188 16.269531 L 87.644531 16.269531 C 85.4375 16.269531 83.640625 18.0625 83.640625 20.265625 L 83.640625 25.078125 C 83.640625 25.578125 84.050781 25.984375 84.550781 25.984375 L 85.582031 25.984375 L 85.582031 50.433594 C 85.582031 53.804688 88.332031 56.550781 91.710938 56.550781 L 107.597656 56.550781 C 110.976562 56.550781 113.726562 53.804688 113.726562 50.433594 L 113.726562 25.984375 L 114.757812 25.984375 C 115.257812 25.984375 115.667969 25.578125 115.667969 25.078125 L 115.667969 20.265625 C 115.667969 18.0625 113.871094 16.269531 111.664062 16.269531 Z M 99.652344 12.898438 C 101.703125 12.898438 103.421875 14.34375 103.839844 16.269531 L 95.46875 16.269531 C 95.886719 14.34375 97.605469 12.898438 99.652344 12.898438 Z M 111.902344 50.433594 C 111.902344 52.804688 109.972656 54.730469 107.597656 54.730469 L 91.710938 54.730469 C 89.335938 54.730469 87.40625 52.804688 87.40625 50.433594 L 87.40625 25.984375 L 111.902344 25.984375 Z M 113.847656 24.167969 L 85.460938 24.167969 L 85.460938 20.265625 C 85.460938 19.066406 86.441406 18.085938 87.644531 18.085938 L 111.664062 18.085938 C 112.867188 18.085938 113.847656 19.066406 113.847656 20.265625 Z M 91.6875 48.644531 L 91.6875 29.53125 C 91.6875 29.027344 92.09375 28.621094 92.597656 28.621094 C 93.097656 28.621094 93.507812 29.027344 93.507812 29.53125 L 93.507812 48.644531 C 93.507812 49.148438 93.097656 49.554688 92.597656 49.554688 C 92.09375 49.554688 91.6875 49.148438 91.6875 48.644531 Z M 98.976562 48.644531 L 98.976562 29.53125 C 98.976562 29.027344 99.382812 28.621094 99.886719 28.621094 C 100.386719 28.621094 100.796875 29.027344 100.796875 29.53125 L 100.796875 48.644531 C 100.796875 49.148438 100.386719 49.554688 99.886719 49.554688 C 99.382812 49.554688 98.976562 49.148438 98.976562 48.644531 Z M 106.265625 48.644531 L 106.265625 29.53125 C 106.265625 29.027344 106.671875 28.621094 107.175781 28.621094 C 107.679688 28.621094 108.085938 29.027344 108.085938 29.53125 L 108.085938 48.644531 C 108.085938 49.148438 107.679688 49.554688 107.175781 49.554688 C 106.671875 49.554688 106.265625 49.148438 106.265625 48.644531 Z M 106.265625 48.644531 " fill-opacity="1" fill-rule="nonzero"/></g><g fill="#ffffff" fill-opacity="1"><g transform="translate(173.47544, 49.110461)"><g><path d="M 26.59375 -10.1875 C 26.988281 -10.1875 27.300781 -10.003906 27.53125 -9.640625 C 27.757812 -9.273438 27.875 -8.773438 27.875 -8.140625 C 27.875 -6.921875 27.585938 -5.972656 27.015625 -5.296875 C 25.703125 -3.679688 24.289062 -2.351562 22.78125 -1.3125 C 21.269531 -0.28125 19.554688 0.234375 17.640625 0.234375 C 16.023438 0.234375 14.71875 -0.347656 13.71875 -1.515625 C 11.976562 -0.378906 10.160156 0.203125 8.265625 0.234375 C 7.867188 6.109375 6.96875 11.019531 5.5625 14.96875 C 4.164062 18.914062 2.113281 20.890625 -0.59375 20.890625 C -2.238281 20.890625 -3.457031 20.296875 -4.25 19.109375 C -5.039062 17.921875 -5.4375 16.273438 -5.4375 14.171875 C -5.4375 11.179688 -4.75 7.695312 -3.375 3.71875 C -2.007812 -0.25 0.101562 -4.628906 2.96875 -9.421875 C 2.96875 -13.867188 2.9375 -16.957031 2.875 -18.6875 C 2.84375 -19.570312 3.191406 -20.273438 3.921875 -20.796875 C 4.660156 -21.316406 5.578125 -21.578125 6.671875 -21.578125 C 7.304688 -21.578125 7.769531 -21.445312 8.0625 -21.1875 C 8.351562 -20.925781 8.515625 -20.414062 8.546875 -19.65625 C 8.546875 -18.894531 8.5625 -18.332031 8.59375 -17.96875 C 9.570312 -19.1875 10.53125 -20.0625 11.46875 -20.59375 C 12.414062 -21.125 13.421875 -21.390625 14.484375 -21.390625 C 16.191406 -21.390625 17.585938 -20.703125 18.671875 -19.328125 C 19.753906 -17.960938 20.296875 -16.164062 20.296875 -13.9375 C 20.296875 -12.320312 20.035156 -10.753906 19.515625 -9.234375 C 18.992188 -7.710938 18.28125 -6.328125 17.375 -5.078125 C 18.007812 -4.890625 18.539062 -4.796875 18.96875 -4.796875 C 19.96875 -4.796875 20.925781 -5.160156 21.84375 -5.890625 C 22.757812 -6.628906 23.929688 -7.847656 25.359375 -9.546875 C 25.722656 -9.972656 26.132812 -10.1875 26.59375 -10.1875 Z M 8.5 -4.15625 C 9.59375 -4.40625 10.601562 -5.007812 11.53125 -5.96875 C 12.46875 -6.925781 13.207031 -8.113281 13.75 -9.53125 C 14.300781 -10.945312 14.578125 -12.429688 14.578125 -13.984375 C 14.578125 -14.898438 14.394531 -15.59375 14.03125 -16.0625 C 13.664062 -16.53125 13.175781 -16.765625 12.5625 -16.765625 C 11.46875 -16.765625 10.144531 -15.609375 8.59375 -13.296875 C 8.5625 -11.953125 8.546875 -9.988281 8.546875 -7.40625 C 8.546875 -6 8.53125 -4.914062 8.5 -4.15625 Z M -0.234375 16.40625 C 0.585938 16.40625 1.273438 14.613281 1.828125 11.03125 C 2.378906 7.457031 2.726562 3.003906 2.875 -2.328125 C 1.570312 0.710938 0.539062 3.617188 -0.21875 6.390625 C -0.988281 9.171875 -1.375 11.503906 -1.375 13.390625 C -1.375 14.367188 -1.257812 15.113281 -1.03125 15.625 C -0.800781 16.144531 -0.535156 16.40625 -0.234375 16.40625 Z M -0.234375 16.40625 "/></g></g></g><g fill="#ffffff" fill-opacity="1"><g transform="translate(195.45413, 49.110461)"><g><path d="M 7.8125 0.234375 C 5.925781 0.234375 4.414062 -0.453125 3.28125 -1.828125 C 2.15625 -3.203125 1.59375 -5 1.59375 -7.21875 C 1.59375 -9.65625 2.15625 -11.960938 3.28125 -14.140625 C 4.414062 -16.316406 5.921875 -18.066406 7.796875 -19.390625 C 9.671875 -20.722656 11.65625 -21.390625 13.75 -21.390625 C 14.425781 -21.390625 14.878906 -21.257812 15.109375 -21 C 15.335938 -20.738281 15.523438 -20.273438 15.671875 -19.609375 C 16.316406 -19.734375 16.988281 -19.796875 17.6875 -19.796875 C 19.175781 -19.796875 19.921875 -19.257812 19.921875 -18.1875 C 19.921875 -17.550781 19.691406 -16.03125 19.234375 -13.625 C 18.535156 -10.113281 18.1875 -7.675781 18.1875 -6.3125 C 18.1875 -5.851562 18.300781 -5.484375 18.53125 -5.203125 C 18.757812 -4.929688 19.054688 -4.796875 19.421875 -4.796875 C 20.003906 -4.796875 20.707031 -5.164062 21.53125 -5.90625 C 22.351562 -6.65625 23.460938 -7.867188 24.859375 -9.546875 C 25.222656 -9.972656 25.632812 -10.1875 26.09375 -10.1875 C 26.488281 -10.1875 26.800781 -10.003906 27.03125 -9.640625 C 27.257812 -9.273438 27.375 -8.773438 27.375 -8.140625 C 27.375 -6.921875 27.085938 -5.972656 26.515625 -5.296875 C 25.265625 -3.742188 23.9375 -2.429688 22.53125 -1.359375 C 21.125 -0.296875 19.769531 0.234375 18.46875 0.234375 C 17.457031 0.234375 16.53125 -0.109375 15.6875 -0.796875 C 14.851562 -1.484375 14.222656 -2.421875 13.796875 -3.609375 C 12.210938 -1.046875 10.21875 0.234375 7.8125 0.234375 Z M 9.453125 -4.390625 C 10.128906 -4.390625 10.769531 -4.785156 11.375 -5.578125 C 11.988281 -6.367188 12.429688 -7.421875 12.703125 -8.734375 L 14.390625 -17.140625 C 13.117188 -17.109375 11.941406 -16.628906 10.859375 -15.703125 C 9.773438 -14.773438 8.910156 -13.546875 8.265625 -12.015625 C 7.628906 -10.492188 7.3125 -8.878906 7.3125 -7.171875 C 7.3125 -6.234375 7.5 -5.535156 7.875 -5.078125 C 8.257812 -4.617188 8.785156 -4.390625 9.453125 -4.390625 Z M 9.453125 -4.390625 "/></g></g></g><g fill="#ffffff" fill-opacity="1"><g transform="translate(216.930177, 49.110461)"><g><path d="M 25.59375 -10.09375 C 25.988281 -10.09375 26.300781 -9.898438 26.53125 -9.515625 C 26.757812 -9.140625 26.875 -8.664062 26.875 -8.09375 C 26.875 -7.382812 26.765625 -6.832031 26.546875 -6.4375 C 26.335938 -6.039062 26.003906 -5.691406 25.546875 -5.390625 C 22.929688 -3.628906 21.015625 -2.320312 19.796875 -1.46875 L 16.859375 0.5 C 15.703125 6.8125 14.1875 11.769531 12.3125 15.375 C 10.4375 18.988281 8.054688 20.796875 5.171875 20.796875 C 3.609375 20.796875 2.335938 20.316406 1.359375 19.359375 C 0.390625 18.398438 -0.09375 17.140625 -0.09375 15.578125 C -0.09375 13.421875 0.757812 11.097656 2.46875 8.609375 C 4.175781 6.128906 7.375 3.078125 12.0625 -0.546875 L 12.34375 -2.328125 C 11.820312 -1.503906 11.140625 -0.867188 10.296875 -0.421875 C 9.460938 0.015625 8.632812 0.234375 7.8125 0.234375 C 5.925781 0.234375 4.414062 -0.453125 3.28125 -1.828125 C 2.15625 -3.203125 1.59375 -5 1.59375 -7.21875 C 1.59375 -9.65625 2.15625 -11.960938 3.28125 -14.140625 C 4.414062 -16.316406 5.921875 -18.066406 7.796875 -19.390625 C 9.671875 -20.722656 11.65625 -21.390625 13.75 -21.390625 C 14.425781 -21.390625 14.878906 -21.257812 15.109375 -21 C 15.335938 -20.738281 15.523438 -20.273438 15.671875 -19.609375 C 16.253906 -19.734375 16.925781 -19.796875 17.6875 -19.796875 C 18.445312 -19.796875 18.988281 -19.679688 19.3125 -19.453125 C 19.632812 -19.222656 19.796875 -18.769531 19.796875 -18.09375 C 19.796875 -17.726562 19.78125 -17.441406 19.75 -17.234375 C 19.625 -16.285156 19.238281 -13.894531 18.59375 -10.0625 C 18.476562 -9.320312 18.347656 -8.519531 18.203125 -7.65625 C 18.066406 -6.789062 17.925781 -5.867188 17.78125 -4.890625 C 20.125 -6.710938 22.378906 -8.328125 24.546875 -9.734375 C 24.941406 -9.972656 25.289062 -10.09375 25.59375 -10.09375 Z M 9.453125 -4.390625 C 10.160156 -4.390625 10.832031 -4.816406 11.46875 -5.671875 C 12.113281 -6.523438 12.570312 -7.742188 12.84375 -9.328125 L 14.3125 -17.140625 C 13.0625 -17.109375 11.898438 -16.628906 10.828125 -15.703125 C 9.765625 -14.773438 8.910156 -13.546875 8.265625 -12.015625 C 7.628906 -10.492188 7.3125 -8.878906 7.3125 -7.171875 C 7.3125 -6.234375 7.5 -5.535156 7.875 -5.078125 C 8.257812 -4.617188 8.785156 -4.390625 9.453125 -4.390625 Z M 5.671875 16.359375 C 6.429688 16.359375 7.289062 15.441406 8.25 13.609375 C 9.207031 11.785156 10.128906 8.878906 11.015625 4.890625 C 8.671875 6.898438 6.976562 8.710938 5.9375 10.328125 C 4.90625 11.941406 4.390625 13.359375 4.390625 14.578125 C 4.390625 15.097656 4.488281 15.523438 4.6875 15.859375 C 4.882812 16.191406 5.210938 16.359375 5.671875 16.359375 Z M 5.671875 16.359375 "/></g></g></g><g fill="#ffffff" fill-opacity="1"><g transform="translate(238.817458, 49.110461)"><g><path d="M 7.8125 0.234375 C 5.925781 0.234375 4.414062 -0.453125 3.28125 -1.828125 C 2.15625 -3.203125 1.59375 -5 1.59375 -7.21875 C 1.59375 -9.65625 2.15625 -11.960938 3.28125 -14.140625 C 4.414062 -16.316406 5.921875 -18.066406 7.796875 -19.390625 C 9.671875 -20.722656 11.65625 -21.390625 13.75 -21.390625 C 14.425781 -21.390625 14.878906 -21.257812 15.109375 -21 C 15.335938 -20.738281 15.523438 -20.273438 15.671875 -19.609375 C 16.316406 -19.734375 16.988281 -19.796875 17.6875 -19.796875 C 19.175781 -19.796875 19.921875 -19.257812 19.921875 -18.1875 C 19.921875 -17.550781 19.691406 -16.03125 19.234375 -13.625 C 18.535156 -10.113281 18.1875 -7.675781 18.1875 -6.3125 C 18.1875 -5.851562 18.300781 -5.484375 18.53125 -5.203125 C 18.757812 -4.929688 19.054688 -4.796875 19.421875 -4.796875 C 20.003906 -4.796875 20.707031 -5.164062 21.53125 -5.90625 C 22.351562 -6.65625 23.460938 -7.867188 24.859375 -9.546875 C 25.222656 -9.972656 25.632812 -10.1875 26.09375 -10.1875 C 26.488281 -10.1875 26.800781 -10.003906 27.03125 -9.640625 C 27.257812 -9.273438 27.375 -8.773438 27.375 -8.140625 C 27.375 -6.921875 27.085938 -5.972656 26.515625 -5.296875 C 25.265625 -3.742188 23.9375 -2.429688 22.53125 -1.359375 C 21.125 -0.296875 19.769531 0.234375 18.46875 0.234375 C 17.457031 0.234375 16.53125 -0.109375 15.6875 -0.796875 C 14.851562 -1.484375 14.222656 -2.421875 13.796875 -3.609375 C 12.210938 -1.046875 10.21875 0.234375 7.8125 0.234375 Z M 9.453125 -4.390625 C 10.128906 -4.390625 10.769531 -4.785156 11.375 -5.578125 C 11.988281 -6.367188 12.429688 -7.421875 12.703125 -8.734375 L 14.390625 -17.140625 C 13.117188 -17.109375 11.941406 -16.628906 10.859375 -15.703125 C 9.773438 -14.773438 8.910156 -13.546875 8.265625 -12.015625 C 7.628906 -10.492188 7.3125 -8.878906 7.3125 -7.171875 C 7.3125 -6.234375 7.5 -5.535156 7.875 -5.078125 C 8.257812 -4.617188 8.785156 -4.390625 9.453125 -4.390625 Z M 9.453125 -4.390625 "/></g></g></g><g fill="#ffffff" fill-opacity="1"><g transform="translate(260.293505, 49.110461)"><g><path d="M 5.4375 0.234375 C 4.28125 0.234375 3.460938 -0.375 2.984375 -1.59375 C 2.515625 -2.8125 2.28125 -4.765625 2.28125 -7.453125 C 2.28125 -11.410156 2.84375 -15.171875 3.96875 -18.734375 C 4.25 -19.617188 4.703125 -20.265625 5.328125 -20.671875 C 5.953125 -21.085938 6.828125 -21.296875 7.953125 -21.296875 C 8.554688 -21.296875 8.976562 -21.21875 9.21875 -21.0625 C 9.46875 -20.914062 9.59375 -20.628906 9.59375 -20.203125 C 9.59375 -19.710938 9.363281 -18.613281 8.90625 -16.90625 C 8.601562 -15.6875 8.359375 -14.617188 8.171875 -13.703125 C 7.992188 -12.796875 7.84375 -11.671875 7.71875 -10.328125 C 8.726562 -12.953125 9.859375 -15.085938 11.109375 -16.734375 C 12.359375 -18.378906 13.582031 -19.550781 14.78125 -20.25 C 15.988281 -20.945312 17.09375 -21.296875 18.09375 -21.296875 C 20.070312 -21.296875 21.0625 -20.304688 21.0625 -18.328125 C 21.0625 -17.929688 20.925781 -16.972656 20.65625 -15.453125 C 20.414062 -14.234375 20.296875 -13.46875 20.296875 -13.15625 C 20.296875 -12.09375 20.675781 -11.5625 21.4375 -11.5625 C 22.289062 -11.5625 23.382812 -12.234375 24.71875 -13.578125 C 25.113281 -13.972656 25.523438 -14.171875 25.953125 -14.171875 C 26.347656 -14.171875 26.660156 -13.992188 26.890625 -13.640625 C 27.117188 -13.285156 27.234375 -12.820312 27.234375 -12.25 C 27.234375 -11.125 26.929688 -10.238281 26.328125 -9.59375 C 25.472656 -8.707031 24.472656 -7.953125 23.328125 -7.328125 C 22.191406 -6.710938 20.984375 -6.40625 19.703125 -6.40625 C 18.085938 -6.40625 16.859375 -6.8125 16.015625 -7.625 C 15.179688 -8.445312 14.765625 -9.5625 14.765625 -10.96875 C 14.765625 -11.425781 14.8125 -11.882812 14.90625 -12.34375 C 14.957031 -12.945312 14.984375 -13.359375 14.984375 -13.578125 C 14.984375 -14.066406 14.816406 -14.3125 14.484375 -14.3125 C 14.023438 -14.3125 13.421875 -13.800781 12.671875 -12.78125 C 11.929688 -11.757812 11.195312 -10.410156 10.46875 -8.734375 C 9.738281 -7.054688 9.144531 -5.285156 8.6875 -3.421875 C 8.351562 -1.992188 7.960938 -1.023438 7.515625 -0.515625 C 7.078125 -0.015625 6.382812 0.234375 5.4375 0.234375 Z M 5.4375 0.234375 "/></g></g></g><g fill="#ffffff" fill-opacity="1"><g transform="translate(281.076056, 49.110461)"><g/></g></g><g fill="#ffffff" fill-opacity="1"><g transform="translate(293.184882, 49.110461)"><g/></g></g><g fill="#ffffff" fill-opacity="1"><g transform="translate(305.293707, 49.110461)"><g/></g></g><g fill="#ffffff" fill-opacity="1"><g transform="translate(317.402532, 49.110461)"><g/></g></g><g fill="#ffffff" fill-opacity="1"><g transform="translate(329.496333, 49.110461)"><g><path d="M 5.4375 0.234375 C 4.28125 0.234375 3.460938 -0.375 2.984375 -1.59375 C 2.515625 -2.8125 2.28125 -4.765625 2.28125 -7.453125 C 2.28125 -11.410156 2.84375 -15.171875 3.96875 -18.734375 C 4.25 -19.617188 4.703125 -20.265625 5.328125 -20.671875 C 5.953125 -21.085938 6.828125 -21.296875 7.953125 -21.296875 C 8.554688 -21.296875 8.976562 -21.21875 9.21875 -21.0625 C 9.46875 -20.914062 9.59375 -20.628906 9.59375 -20.203125 C 9.59375 -19.710938 9.363281 -18.613281 8.90625 -16.90625 C 8.601562 -15.6875 8.359375 -14.617188 8.171875 -13.703125 C 7.992188 -12.796875 7.84375 -11.671875 7.71875 -10.328125 C 8.726562 -12.953125 9.859375 -15.085938 11.109375 -16.734375 C 12.359375 -18.378906 13.582031 -19.550781 14.78125 -20.25 C 15.988281 -20.945312 17.09375 -21.296875 18.09375 -21.296875 C 20.070312 -21.296875 21.0625 -20.304688 21.0625 -18.328125 C 21.0625 -17.140625 20.726562 -14.992188 20.0625 -11.890625 C 19.488281 -9.234375 19.203125 -7.476562 19.203125 -6.625 C 19.203125 -5.40625 19.640625 -4.796875 20.515625 -4.796875 C 21.128906 -4.796875 21.851562 -5.164062 22.6875 -5.90625 C 23.53125 -6.65625 24.648438 -7.867188 26.046875 -9.546875 C 26.410156 -9.972656 26.820312 -10.1875 27.28125 -10.1875 C 27.675781 -10.1875 27.988281 -10.003906 28.21875 -9.640625 C 28.445312 -9.273438 28.5625 -8.773438 28.5625 -8.140625 C 28.5625 -6.921875 28.273438 -5.972656 27.703125 -5.296875 C 26.390625 -3.679688 24.976562 -2.351562 23.46875 -1.3125 C 21.957031 -0.28125 20.242188 0.234375 18.328125 0.234375 C 16.773438 0.234375 15.601562 -0.210938 14.8125 -1.109375 C 14.019531 -2.015625 13.625 -3.320312 13.625 -5.03125 C 13.625 -5.882812 13.835938 -7.40625 14.265625 -9.59375 C 14.660156 -11.519531 14.859375 -12.847656 14.859375 -13.578125 C 14.859375 -14.066406 14.6875 -14.3125 14.34375 -14.3125 C 13.945312 -14.3125 13.390625 -13.800781 12.671875 -12.78125 C 11.960938 -11.757812 11.234375 -10.410156 10.484375 -8.734375 C 9.742188 -7.054688 9.144531 -5.285156 8.6875 -3.421875 C 8.351562 -1.992188 7.960938 -1.023438 7.515625 -0.515625 C 7.078125 -0.015625 6.382812 0.234375 5.4375 0.234375 Z M 5.4375 0.234375 "/></g></g></g><g fill="#ffffff" fill-opacity="1"><g transform="translate(352.160412, 49.110461)"><g><path d="M 6.859375 0.234375 C 5.484375 0.234375 4.359375 -0.394531 3.484375 -1.65625 C 2.617188 -2.925781 2.1875 -4.507812 2.1875 -6.40625 C 2.1875 -8.6875 2.335938 -10.78125 2.640625 -12.6875 C 2.953125 -14.59375 3.457031 -16.609375 4.15625 -18.734375 C 4.457031 -19.648438 4.882812 -20.304688 5.4375 -20.703125 C 5.988281 -21.097656 6.859375 -21.296875 8.046875 -21.296875 C 8.710938 -21.296875 9.175781 -21.1875 9.4375 -20.96875 C 9.695312 -20.757812 9.828125 -20.441406 9.828125 -20.015625 C 9.828125 -19.773438 9.660156 -18.953125 9.328125 -17.546875 C 9.015625 -16.421875 8.769531 -15.398438 8.59375 -14.484375 C 7.976562 -11.285156 7.671875 -9.15625 7.671875 -8.09375 C 7.671875 -7.445312 7.75 -6.992188 7.90625 -6.734375 C 8.0625 -6.484375 8.304688 -6.359375 8.640625 -6.359375 C 9.097656 -6.359375 9.664062 -6.8125 10.34375 -7.71875 C 11.03125 -8.632812 11.765625 -10.019531 12.546875 -11.875 C 13.328125 -13.738281 14.082031 -16.023438 14.8125 -18.734375 C 15.050781 -19.648438 15.421875 -20.304688 15.921875 -20.703125 C 16.429688 -21.097656 17.1875 -21.296875 18.1875 -21.296875 C 18.882812 -21.296875 19.367188 -21.210938 19.640625 -21.046875 C 19.921875 -20.878906 20.0625 -20.566406 20.0625 -20.109375 C 20.0625 -19.347656 19.679688 -17.257812 18.921875 -13.84375 C 18.066406 -9.945312 17.640625 -7.539062 17.640625 -6.625 C 17.640625 -6.050781 17.757812 -5.601562 18 -5.28125 C 18.25 -4.957031 18.570312 -4.796875 18.96875 -4.796875 C 19.570312 -4.796875 20.289062 -5.164062 21.125 -5.90625 C 21.96875 -6.65625 23.09375 -7.867188 24.5 -9.546875 C 24.863281 -9.972656 25.273438 -10.1875 25.734375 -10.1875 C 26.128906 -10.1875 26.441406 -10.003906 26.671875 -9.640625 C 26.898438 -9.273438 27.015625 -8.773438 27.015625 -8.140625 C 27.015625 -6.921875 26.722656 -5.972656 26.140625 -5.296875 C 24.828125 -3.679688 23.414062 -2.351562 21.90625 -1.3125 C 20.40625 -0.28125 18.691406 0.234375 16.765625 0.234375 C 15.304688 0.234375 14.234375 -0.328125 13.546875 -1.453125 C 12.859375 -2.585938 12.515625 -4.175781 12.515625 -6.21875 C 12.003906 -4.144531 11.226562 -2.550781 10.1875 -1.4375 C 9.15625 -0.320312 8.046875 0.234375 6.859375 0.234375 Z M 13.53125 -24.3125 C 13.101562 -24.3125 12.726562 -24.472656 12.40625 -24.796875 C 12.09375 -25.117188 11.9375 -25.503906 11.9375 -25.953125 C 11.9375 -26.171875 12.015625 -26.460938 12.171875 -26.828125 L 16.421875 -36.328125 C 16.691406 -36.941406 17.046875 -37.390625 17.484375 -37.671875 C 17.929688 -37.960938 18.425781 -38.109375 18.96875 -38.109375 C 19.726562 -38.109375 20.40625 -37.832031 21 -37.28125 C 21.601562 -36.738281 21.90625 -36.054688 21.90625 -35.234375 C 21.90625 -34.378906 21.566406 -33.523438 20.890625 -32.671875 L 15 -25.09375 C 14.601562 -24.570312 14.113281 -24.3125 13.53125 -24.3125 Z M 13.53125 -24.3125 "/></g></g></g><g fill="#ffffff" fill-opacity="1"><g transform="translate(373.270918, 49.110461)"><g><path d="M 5.4375 0.234375 C 4.28125 0.234375 3.460938 -0.375 2.984375 -1.59375 C 2.515625 -2.8125 2.28125 -4.765625 2.28125 -7.453125 C 2.28125 -11.410156 2.84375 -15.171875 3.96875 -18.734375 C 4.25 -19.617188 4.703125 -20.265625 5.328125 -20.671875 C 5.953125 -21.085938 6.828125 -21.296875 7.953125 -21.296875 C 8.554688 -21.296875 8.976562 -21.21875 9.21875 -21.0625 C 9.46875 -20.914062 9.59375 -20.628906 9.59375 -20.203125 C 9.59375 -19.710938 9.363281 -18.613281 8.90625 -16.90625 C 8.601562 -15.6875 8.359375 -14.617188 8.171875 -13.703125 C 7.992188 -12.796875 7.84375 -11.671875 7.71875 -10.328125 C 8.726562 -12.953125 9.859375 -15.085938 11.109375 -16.734375 C 12.359375 -18.378906 13.582031 -19.550781 14.78125 -20.25 C 15.988281 -20.945312 17.09375 -21.296875 18.09375 -21.296875 C 20.070312 -21.296875 21.0625 -20.304688 21.0625 -18.328125 C 21.0625 -17.140625 20.726562 -14.992188 20.0625 -11.890625 C 19.488281 -9.234375 19.203125 -7.476562 19.203125 -6.625 C 19.203125 -5.40625 19.640625 -4.796875 20.515625 -4.796875 C 21.128906 -4.796875 21.851562 -5.164062 22.6875 -5.90625 C 23.53125 -6.65625 24.648438 -7.867188 26.046875 -9.546875 C 26.410156 -9.972656 26.820312 -10.1875 27.28125 -10.1875 C 27.675781 -10.1875 27.988281 -10.003906 28.21875 -9.640625 C 28.445312 -9.273438 28.5625 -8.773438 28.5625 -8.140625 C 28.5625 -6.921875 28.273438 -5.972656 27.703125 -5.296875 C 26.390625 -3.679688 24.976562 -2.351562 23.46875 -1.3125 C 21.957031 -0.28125 20.242188 0.234375 18.328125 0.234375 C 16.773438 0.234375 15.601562 -0.210938 14.8125 -1.109375 C 14.019531 -2.015625 13.625 -3.320312 13.625 -5.03125 C 13.625 -5.882812 13.835938 -7.40625 14.265625 -9.59375 C 14.660156 -11.519531 14.859375 -12.847656 14.859375 -13.578125 C 14.859375 -14.066406 14.6875 -14.3125 14.34375 -14.3125 C 13.945312 -14.3125 13.390625 -13.800781 12.671875 -12.78125 C 11.960938 -11.757812 11.234375 -10.410156 10.484375 -8.734375 C 9.742188 -7.054688 9.144531 -5.285156 8.6875 -3.421875 C 8.351562 -1.992188 7.960938 -1.023438 7.515625 -0.515625 C 7.078125 -0.015625 6.382812 0.234375 5.4375 0.234375 Z M 5.4375 0.234375 "/></g></g></g><g fill="#ffffff" fill-opacity="1"><g transform="translate(395.934997, 49.110461)"><g><path d="M 10.921875 0.234375 C 7.929688 0.234375 5.609375 -0.609375 3.953125 -2.296875 C 2.296875 -3.992188 1.46875 -6.226562 1.46875 -9 C 1.46875 -11.46875 1.953125 -13.628906 2.921875 -15.484375 C 3.898438 -17.347656 5.164062 -18.78125 6.71875 -19.78125 C 8.269531 -20.789062 9.898438 -21.296875 11.609375 -21.296875 C 13.285156 -21.296875 14.585938 -20.800781 15.515625 -19.8125 C 16.441406 -18.820312 16.90625 -17.550781 16.90625 -16 C 16.90625 -14.71875 16.625 -13.632812 16.0625 -12.75 C 15.5 -11.863281 14.757812 -11.421875 13.84375 -11.421875 C 13.269531 -11.421875 12.804688 -11.554688 12.453125 -11.828125 C 12.097656 -12.109375 11.921875 -12.492188 11.921875 -12.984375 C 11.921875 -13.191406 11.953125 -13.429688 12.015625 -13.703125 C 12.078125 -13.984375 12.125 -14.1875 12.15625 -14.3125 C 12.3125 -14.757812 12.390625 -15.179688 12.390625 -15.578125 C 12.390625 -15.972656 12.289062 -16.273438 12.09375 -16.484375 C 11.894531 -16.703125 11.613281 -16.8125 11.25 -16.8125 C 10.539062 -16.8125 9.878906 -16.5 9.265625 -15.875 C 8.660156 -15.25 8.175781 -14.40625 7.8125 -13.34375 C 7.445312 -12.28125 7.265625 -11.109375 7.265625 -9.828125 C 7.265625 -6.296875 8.804688 -4.53125 11.890625 -4.53125 C 13.128906 -4.53125 14.472656 -4.945312 15.921875 -5.78125 C 17.367188 -6.613281 18.796875 -7.867188 20.203125 -9.546875 C 20.566406 -9.972656 20.976562 -10.1875 21.4375 -10.1875 C 21.832031 -10.1875 22.144531 -10.003906 22.375 -9.640625 C 22.601562 -9.273438 22.71875 -8.773438 22.71875 -8.140625 C 22.71875 -6.984375 22.425781 -6.035156 21.84375 -5.296875 C 20.414062 -3.535156 18.703125 -2.171875 16.703125 -1.203125 C 14.710938 -0.242188 12.785156 0.234375 10.921875 0.234375 Z M 10.921875 0.234375 "/></g></g></g><g fill="#ffffff" fill-opacity="1"><g transform="translate(412.75028, 49.110461)"><g><path d="M 8.1875 -24.3125 C 6.90625 -24.3125 5.941406 -24.609375 5.296875 -25.203125 C 4.660156 -25.796875 4.34375 -26.628906 4.34375 -27.703125 C 4.34375 -28.765625 4.757812 -29.648438 5.59375 -30.359375 C 6.4375 -31.078125 7.484375 -31.4375 8.734375 -31.4375 C 9.859375 -31.4375 10.769531 -31.160156 11.46875 -30.609375 C 12.164062 -30.066406 12.515625 -29.296875 12.515625 -28.296875 C 12.515625 -27.078125 12.117188 -26.109375 11.328125 -25.390625 C 10.535156 -24.671875 9.488281 -24.3125 8.1875 -24.3125 Z M 7.8125 0.234375 C 5.832031 0.234375 4.390625 -0.460938 3.484375 -1.859375 C 2.585938 -3.265625 2.140625 -5.128906 2.140625 -7.453125 C 2.140625 -8.816406 2.316406 -10.570312 2.671875 -12.71875 C 3.023438 -14.875 3.472656 -16.878906 4.015625 -18.734375 C 4.296875 -19.710938 4.660156 -20.382812 5.109375 -20.75 C 5.566406 -21.113281 6.300781 -21.296875 7.3125 -21.296875 C 8.863281 -21.296875 9.640625 -20.78125 9.640625 -19.75 C 9.640625 -18.976562 9.351562 -17.207031 8.78125 -14.4375 C 8.039062 -11.09375 7.671875 -8.820312 7.671875 -7.625 C 7.671875 -6.71875 7.789062 -6.019531 8.03125 -5.53125 C 8.28125 -5.039062 8.695312 -4.796875 9.28125 -4.796875 C 9.820312 -4.796875 10.503906 -5.175781 11.328125 -5.9375 C 12.148438 -6.695312 13.25 -7.898438 14.625 -9.546875 C 14.988281 -9.972656 15.398438 -10.1875 15.859375 -10.1875 C 16.253906 -10.1875 16.566406 -10.003906 16.796875 -9.640625 C 17.023438 -9.273438 17.140625 -8.773438 17.140625 -8.140625 C 17.140625 -6.921875 16.847656 -5.972656 16.265625 -5.296875 C 13.253906 -1.609375 10.4375 0.234375 7.8125 0.234375 Z M 7.8125 0.234375 "/></g></g></g><g fill="#ffffff" fill-opacity="1"><g transform="translate(423.990946, 49.110461)"><g><path d="M 25.5 -14.03125 C 25.894531 -14.03125 26.195312 -13.832031 26.40625 -13.4375 C 26.625 -13.039062 26.734375 -12.535156 26.734375 -11.921875 C 26.734375 -10.460938 26.289062 -9.597656 25.40625 -9.328125 C 23.582031 -8.679688 21.570312 -8.316406 19.375 -8.234375 C 18.800781 -5.671875 17.660156 -3.617188 15.953125 -2.078125 C 14.242188 -0.535156 12.304688 0.234375 10.140625 0.234375 C 8.316406 0.234375 6.753906 -0.207031 5.453125 -1.09375 C 4.160156 -1.976562 3.179688 -3.148438 2.515625 -4.609375 C 1.847656 -6.078125 1.515625 -7.664062 1.515625 -9.375 C 1.515625 -11.6875 1.953125 -13.75 2.828125 -15.5625 C 3.710938 -17.375 4.929688 -18.789062 6.484375 -19.8125 C 8.046875 -20.832031 9.769531 -21.34375 11.65625 -21.34375 C 13.96875 -21.34375 15.832031 -20.539062 17.25 -18.9375 C 18.664062 -17.34375 19.5 -15.375 19.75 -13.03125 C 21.175781 -13.113281 22.878906 -13.414062 24.859375 -13.9375 C 25.109375 -14 25.320312 -14.03125 25.5 -14.03125 Z M 10.515625 -4.609375 C 11.484375 -4.609375 12.328125 -5.003906 13.046875 -5.796875 C 13.765625 -6.597656 14.242188 -7.742188 14.484375 -9.234375 C 13.546875 -9.867188 12.820312 -10.703125 12.3125 -11.734375 C 11.8125 -12.773438 11.5625 -13.875 11.5625 -15.03125 C 11.5625 -15.519531 11.609375 -16.007812 11.703125 -16.5 L 11.46875 -16.5 C 10.25 -16.5 9.234375 -15.910156 8.421875 -14.734375 C 7.617188 -13.566406 7.21875 -11.914062 7.21875 -9.78125 C 7.21875 -8.101562 7.546875 -6.820312 8.203125 -5.9375 C 8.859375 -5.050781 9.628906 -4.609375 10.515625 -4.609375 Z M 10.515625 -4.609375 "/></g></g></g><g fill="#ffffff" fill-opacity="1"><g transform="translate(132.090214, 53.090535)"><g><path d="M 10.757812 0.464844 C 17.171875 0.363281 20.226562 -4.707031 23.226562 -11.949219 C 25.65625 -11.691406 28.292969 -11.378906 29.847656 -11.277344 C 28.863281 -7.449219 27.933594 -3.671875 27.519531 -0.929688 C 28.085938 0.515625 32.585938 0.515625 33.363281 -0.929688 C 33.777344 -3.878906 34.8125 -7.8125 35.640625 -11.378906 C 39.519531 -11.691406 43.347656 -12.933594 45.726562 -15.878906 C 46.296875 -16.605469 45.261719 -18.464844 44.328125 -17.535156 C 42.46875 -15.570312 39.414062 -14.691406 36.15625 -14.484375 C 37.035156 -17.847656 39 -25.863281 39.054688 -30.878906 C 39.054688 -36.261719 32.691406 -37.449219 28.140625 -32.640625 C 24.519531 -28.8125 21.984375 -22.757812 19.140625 -15.984375 C 11.792969 -16.605469 4.863281 -13.449219 3.570312 -7.292969 C 2.691406 -2.691406 5.121094 0.570312 10.757812 0.464844 Z M 30.570312 -14.585938 C 29.175781 -14.691406 26.640625 -15 24.570312 -15.3125 C 26.640625 -20.792969 28.96875 -27.207031 31.863281 -30.675781 C 33.363281 -32.433594 34.605469 -31.96875 34.292969 -30 C 33.46875 -25.140625 31.65625 -18.464844 30.570312 -14.585938 Z M 10.914062 -3.207031 C 8.898438 -3.207031 8.585938 -5.222656 9.15625 -7.242188 C 10.292969 -10.8125 13.605469 -12.464844 17.691406 -12.363281 C 15.519531 -7.035156 13.863281 -3.257812 10.914062 -3.207031 Z M 10.914062 -3.207031 "/></g></g></g><g fill="#ffffff" fill-opacity="1"><g transform="translate(290.389186, 50.579392)"><g><path d="M 10.757812 0.464844 C 17.171875 0.363281 20.226562 -4.707031 23.226562 -11.949219 C 25.65625 -11.691406 28.292969 -11.378906 29.847656 -11.277344 C 28.863281 -7.449219 27.933594 -3.671875 27.519531 -0.929688 C 28.085938 0.515625 32.585938 0.515625 33.363281 -0.929688 C 33.777344 -3.878906 34.8125 -7.8125 35.640625 -11.378906 C 39.519531 -11.691406 43.347656 -12.933594 45.726562 -15.878906 C 46.296875 -16.605469 45.261719 -18.464844 44.328125 -17.535156 C 42.46875 -15.570312 39.414062 -14.691406 36.15625 -14.484375 C 37.035156 -17.847656 39 -25.863281 39.054688 -30.878906 C 39.054688 -36.261719 32.691406 -37.449219 28.140625 -32.640625 C 24.519531 -28.8125 21.984375 -22.757812 19.140625 -15.984375 C 11.792969 -16.605469 4.863281 -13.449219 3.570312 -7.292969 C 2.691406 -2.691406 5.121094 0.570312 10.757812 0.464844 Z M 30.570312 -14.585938 C 29.175781 -14.691406 26.640625 -15 24.570312 -15.3125 C 26.640625 -20.792969 28.96875 -27.207031 31.863281 -30.675781 C 33.363281 -32.433594 34.605469 -31.96875 34.292969 -30 C 33.46875 -25.140625 31.65625 -18.464844 30.570312 -14.585938 Z M 10.914062 -3.207031 C 8.898438 -3.207031 8.585938 -5.222656 9.15625 -7.242188 C 10.292969 -10.8125 13.605469 -12.464844 17.691406 -12.363281 C 15.519531 -7.035156 13.863281 -3.257812 10.914062 -3.207031 Z M 10.914062 -3.207031 "/></g></g></g></svg>