<svg xmlns="http://www.w3.org/2000/svg" xmlns:xlink="http://www.w3.org/1999/xlink" width="718" zoomAndPan="magnify" viewBox="0 0 538.5 70.499998" height="94" preserveAspectRatio="xMidYMid meet" version="1.0"><defs><g/><clipPath id="id1"><path d="M 1.648438 0 L 536.355469 0 L 536.355469 70.003906 L 1.648438 70.003906 Z M 1.648438 0 " clip-rule="nonzero"/></clipPath><clipPath id="id2"><path d="M 80 17 L 122 17 L 122 53.390625 L 80 53.390625 Z M 80 17 " clip-rule="nonzero"/></clipPath></defs><g clip-path="url(#id1)"><path fill="#82d2ff" d="M 17.308594 0 L 521.191406 0 C 525.339844 0 529.324219 1.640625 532.257812 4.5625 C 535.191406 7.480469 536.839844 11.441406 536.839844 15.574219 L 536.839844 54.496094 C 536.839844 58.625 535.191406 62.585938 532.257812 65.507812 C 529.324219 68.429688 525.339844 70.070312 521.191406 70.070312 L 17.308594 70.070312 C 13.15625 70.070312 9.175781 68.429688 6.242188 65.507812 C 3.308594 62.585938 1.660156 58.625 1.660156 54.496094 L 1.660156 15.574219 C 1.660156 11.441406 3.308594 7.480469 6.242188 4.5625 C 9.175781 1.640625 13.15625 0 17.308594 0 " fill-opacity="1" fill-rule="nonzero"/></g><g fill="#ffffff" fill-opacity="1"><g transform="translate(128.66098, 54.695857)"><g><path d="M 20.703125 0.234375 C 17.078125 0.234375 13.921875 -0.425781 11.234375 -1.75 C 8.554688 -3.082031 6.5 -4.96875 5.0625 -7.40625 C 3.632812 -9.84375 2.921875 -12.675781 2.921875 -15.90625 C 2.921875 -20.382812 3.765625 -24.359375 5.453125 -27.828125 C 7.148438 -31.304688 9.445312 -33.992188 12.34375 -35.890625 C 15.238281 -37.796875 18.453125 -38.75 21.984375 -38.75 C 25.273438 -38.75 27.769531 -37.90625 29.46875 -36.21875 C 31.175781 -34.53125 32.03125 -32.300781 32.03125 -29.53125 C 32.03125 -27.664062 31.703125 -26.171875 31.046875 -25.046875 C 30.398438 -23.921875 29.46875 -23.359375 28.25 -23.359375 C 27.394531 -23.359375 26.722656 -23.554688 26.234375 -23.953125 C 25.742188 -24.347656 25.5 -24.925781 25.5 -25.6875 C 25.5 -25.957031 25.5625 -26.457031 25.6875 -27.1875 C 25.863281 -28.101562 25.953125 -28.835938 25.953125 -29.390625 C 25.953125 -32.160156 24.476562 -33.546875 21.53125 -33.546875 C 19.519531 -33.546875 17.597656 -32.890625 15.765625 -31.578125 C 13.941406 -30.265625 12.460938 -28.335938 11.328125 -25.796875 C 10.203125 -23.253906 9.640625 -20.234375 9.640625 -16.734375 C 9.640625 -13.078125 10.660156 -10.25 12.703125 -8.25 C 14.742188 -6.25 17.757812 -5.25 21.75 -5.25 C 23.726562 -5.25 25.726562 -5.5 27.75 -6 C 29.78125 -6.507812 32.03125 -7.28125 34.5 -8.3125 C 34.957031 -8.5 35.34375 -8.59375 35.65625 -8.59375 C 36.132812 -8.59375 36.492188 -8.410156 36.734375 -8.046875 C 36.984375 -7.679688 37.109375 -7.207031 37.109375 -6.625 C 37.109375 -4.769531 36.101562 -3.398438 34.09375 -2.515625 C 31.925781 -1.566406 29.675781 -0.867188 27.34375 -0.421875 C 25.019531 0.015625 22.804688 0.234375 20.703125 0.234375 Z M 20.703125 0.234375 "/></g></g></g><g fill="#ffffff" fill-opacity="1"><g transform="translate(160.006868, 54.695857)"><g><path d="M 25.5 -14.03125 C 25.894531 -14.03125 26.195312 -13.832031 26.40625 -13.4375 C 26.625 -13.039062 26.734375 -12.535156 26.734375 -11.921875 C 26.734375 -10.460938 26.289062 -9.597656 25.40625 -9.328125 C 23.582031 -8.679688 21.570312 -8.316406 19.375 -8.234375 C 18.800781 -5.671875 17.660156 -3.617188 15.953125 -2.078125 C 14.242188 -0.535156 12.304688 0.234375 10.140625 0.234375 C 8.316406 0.234375 6.753906 -0.207031 5.453125 -1.09375 C 4.160156 -1.976562 3.179688 -3.148438 2.515625 -4.609375 C 1.847656 -6.078125 1.515625 -7.664062 1.515625 -9.375 C 1.515625 -11.6875 1.953125 -13.75 2.828125 -15.5625 C 3.710938 -17.375 4.929688 -18.789062 6.484375 -19.8125 C 8.046875 -20.832031 9.769531 -21.34375 11.65625 -21.34375 C 13.96875 -21.34375 15.832031 -20.539062 17.25 -18.9375 C 18.664062 -17.34375 19.5 -15.375 19.75 -13.03125 C 21.175781 -13.113281 22.878906 -13.414062 24.859375 -13.9375 C 25.109375 -14 25.320312 -14.03125 25.5 -14.03125 Z M 10.515625 -4.609375 C 11.484375 -4.609375 12.328125 -5.003906 13.046875 -5.796875 C 13.765625 -6.597656 14.242188 -7.742188 14.484375 -9.234375 C 13.546875 -9.867188 12.820312 -10.703125 12.3125 -11.734375 C 11.8125 -12.773438 11.5625 -13.875 11.5625 -15.03125 C 11.5625 -15.519531 11.609375 -16.007812 11.703125 -16.5 L 11.46875 -16.5 C 10.25 -16.5 9.234375 -15.910156 8.421875 -14.734375 C 7.617188 -13.566406 7.21875 -11.914062 7.21875 -9.78125 C 7.21875 -8.101562 7.546875 -6.820312 8.203125 -5.9375 C 8.859375 -5.050781 9.628906 -4.609375 10.515625 -4.609375 Z M 10.515625 -4.609375 "/></g></g></g><g fill="#ffffff" fill-opacity="1"><g transform="translate(180.614732, 54.695857)"><g><path d="M 5.4375 0.234375 C 4.28125 0.234375 3.460938 -0.375 2.984375 -1.59375 C 2.515625 -2.8125 2.28125 -4.765625 2.28125 -7.453125 C 2.28125 -11.410156 2.84375 -15.171875 3.96875 -18.734375 C 4.25 -19.617188 4.703125 -20.265625 5.328125 -20.671875 C 5.953125 -21.085938 6.828125 -21.296875 7.953125 -21.296875 C 8.554688 -21.296875 8.976562 -21.21875 9.21875 -21.0625 C 9.46875 -20.914062 9.59375 -20.628906 9.59375 -20.203125 C 9.59375 -19.710938 9.363281 -18.613281 8.90625 -16.90625 C 8.601562 -15.6875 8.359375 -14.617188 8.171875 -13.703125 C 7.992188 -12.796875 7.84375 -11.671875 7.71875 -10.328125 C 8.726562 -12.953125 9.859375 -15.085938 11.109375 -16.734375 C 12.359375 -18.378906 13.582031 -19.550781 14.78125 -20.25 C 15.988281 -20.945312 17.09375 -21.296875 18.09375 -21.296875 C 20.070312 -21.296875 21.0625 -20.304688 21.0625 -18.328125 C 21.0625 -17.140625 20.726562 -14.992188 20.0625 -11.890625 C 19.488281 -9.234375 19.203125 -7.476562 19.203125 -6.625 C 19.203125 -5.40625 19.640625 -4.796875 20.515625 -4.796875 C 21.128906 -4.796875 21.851562 -5.164062 22.6875 -5.90625 C 23.53125 -6.65625 24.648438 -7.867188 26.046875 -9.546875 C 26.410156 -9.972656 26.820312 -10.1875 27.28125 -10.1875 C 27.675781 -10.1875 27.988281 -10.003906 28.21875 -9.640625 C 28.445312 -9.273438 28.5625 -8.773438 28.5625 -8.140625 C 28.5625 -6.921875 28.273438 -5.972656 27.703125 -5.296875 C 26.390625 -3.679688 24.976562 -2.351562 23.46875 -1.3125 C 21.957031 -0.28125 20.242188 0.234375 18.328125 0.234375 C 16.773438 0.234375 15.601562 -0.210938 14.8125 -1.109375 C 14.019531 -2.015625 13.625 -3.320312 13.625 -5.03125 C 13.625 -5.882812 13.835938 -7.40625 14.265625 -9.59375 C 14.660156 -11.519531 14.859375 -12.847656 14.859375 -13.578125 C 14.859375 -14.066406 14.6875 -14.3125 14.34375 -14.3125 C 13.945312 -14.3125 13.390625 -13.800781 12.671875 -12.78125 C 11.960938 -11.757812 11.234375 -10.410156 10.484375 -8.734375 C 9.742188 -7.054688 9.144531 -5.285156 8.6875 -3.421875 C 8.351562 -1.992188 7.960938 -1.023438 7.515625 -0.515625 C 7.078125 -0.015625 6.382812 0.234375 5.4375 0.234375 Z M 5.4375 0.234375 "/></g></g></g><g fill="#ffffff" fill-opacity="1"><g transform="translate(203.278811, 54.695857)"><g><path d="M 10.921875 0.234375 C 7.929688 0.234375 5.609375 -0.609375 3.953125 -2.296875 C 2.296875 -3.992188 1.46875 -6.226562 1.46875 -9 C 1.46875 -11.46875 1.953125 -13.628906 2.921875 -15.484375 C 3.898438 -17.347656 5.164062 -18.78125 6.71875 -19.78125 C 8.269531 -20.789062 9.898438 -21.296875 11.609375 -21.296875 C 13.285156 -21.296875 14.585938 -20.800781 15.515625 -19.8125 C 16.441406 -18.820312 16.90625 -17.550781 16.90625 -16 C 16.90625 -14.71875 16.625 -13.632812 16.0625 -12.75 C 15.5 -11.863281 14.757812 -11.421875 13.84375 -11.421875 C 13.269531 -11.421875 12.804688 -11.554688 12.453125 -11.828125 C 12.097656 -12.109375 11.921875 -12.492188 11.921875 -12.984375 C 11.921875 -13.191406 11.953125 -13.429688 12.015625 -13.703125 C 12.078125 -13.984375 12.125 -14.1875 12.15625 -14.3125 C 12.3125 -14.757812 12.390625 -15.179688 12.390625 -15.578125 C 12.390625 -15.972656 12.289062 -16.273438 12.09375 -16.484375 C 11.894531 -16.703125 11.613281 -16.8125 11.25 -16.8125 C 10.539062 -16.8125 9.878906 -16.5 9.265625 -15.875 C 8.660156 -15.25 8.175781 -14.40625 7.8125 -13.34375 C 7.445312 -12.28125 7.265625 -11.109375 7.265625 -9.828125 C 7.265625 -6.296875 8.804688 -4.53125 11.890625 -4.53125 C 13.128906 -4.53125 14.472656 -4.945312 15.921875 -5.78125 C 17.367188 -6.613281 18.796875 -7.867188 20.203125 -9.546875 C 20.566406 -9.972656 20.976562 -10.1875 21.4375 -10.1875 C 21.832031 -10.1875 22.144531 -10.003906 22.375 -9.640625 C 22.601562 -9.273438 22.71875 -8.773438 22.71875 -8.140625 C 22.71875 -6.984375 22.425781 -6.035156 21.84375 -5.296875 C 20.414062 -3.535156 18.703125 -2.171875 16.703125 -1.203125 C 14.710938 -0.242188 12.785156 0.234375 10.921875 0.234375 Z M 10.921875 0.234375 "/></g></g></g><g fill="#ffffff" fill-opacity="1"><g transform="translate(220.094093, 54.695857)"><g><path d="M 19.515625 -10.1875 C 19.910156 -10.1875 20.222656 -10.003906 20.453125 -9.640625 C 20.679688 -9.273438 20.796875 -8.773438 20.796875 -8.140625 C 20.796875 -6.921875 20.503906 -5.972656 19.921875 -5.296875 C 18.617188 -3.679688 17.195312 -2.351562 15.65625 -1.3125 C 14.113281 -0.28125 12.367188 0.234375 10.421875 0.234375 C 7.742188 0.234375 5.753906 -0.984375 4.453125 -3.421875 C 3.160156 -5.859375 2.515625 -9.015625 2.515625 -12.890625 C 2.515625 -16.609375 2.992188 -20.84375 3.953125 -25.59375 C 4.910156 -30.34375 6.328125 -34.425781 8.203125 -37.84375 C 10.078125 -41.257812 12.3125 -42.96875 14.90625 -42.96875 C 16.363281 -42.96875 17.507812 -42.285156 18.34375 -40.921875 C 19.1875 -39.566406 19.609375 -37.625 19.609375 -35.09375 C 19.609375 -31.46875 18.601562 -27.265625 16.59375 -22.484375 C 14.582031 -17.703125 11.851562 -12.960938 8.40625 -8.265625 C 8.625 -7.023438 8.972656 -6.132812 9.453125 -5.59375 C 9.941406 -5.0625 10.582031 -4.796875 11.375 -4.796875 C 12.625 -4.796875 13.722656 -5.15625 14.671875 -5.875 C 15.617188 -6.59375 16.820312 -7.816406 18.28125 -9.546875 C 18.644531 -9.972656 19.054688 -10.1875 19.515625 -10.1875 Z M 13.890625 -38.4375 C 13.191406 -38.4375 12.398438 -37.171875 11.515625 -34.640625 C 10.628906 -32.109375 9.851562 -28.96875 9.1875 -25.21875 C 8.519531 -21.476562 8.15625 -17.882812 8.09375 -14.4375 C 10.25 -18.007812 11.96875 -21.582031 13.25 -25.15625 C 14.53125 -28.738281 15.171875 -32.007812 15.171875 -34.96875 C 15.171875 -37.28125 14.742188 -38.4375 13.890625 -38.4375 Z M 13.890625 -38.4375 "/></g></g></g><g fill="#ffffff" fill-opacity="1"><g transform="translate(234.990239, 54.695857)"><g><path d="M 6.859375 0.234375 C 5.484375 0.234375 4.359375 -0.394531 3.484375 -1.65625 C 2.617188 -2.925781 2.1875 -4.507812 2.1875 -6.40625 C 2.1875 -8.6875 2.335938 -10.78125 2.640625 -12.6875 C 2.953125 -14.59375 3.457031 -16.609375 4.15625 -18.734375 C 4.457031 -19.648438 4.882812 -20.304688 5.4375 -20.703125 C 5.988281 -21.097656 6.859375 -21.296875 8.046875 -21.296875 C 8.710938 -21.296875 9.175781 -21.1875 9.4375 -20.96875 C 9.695312 -20.757812 9.828125 -20.441406 9.828125 -20.015625 C 9.828125 -19.773438 9.660156 -18.953125 9.328125 -17.546875 C 9.015625 -16.421875 8.769531 -15.398438 8.59375 -14.484375 C 7.976562 -11.285156 7.671875 -9.15625 7.671875 -8.09375 C 7.671875 -7.445312 7.75 -6.992188 7.90625 -6.734375 C 8.0625 -6.484375 8.304688 -6.359375 8.640625 -6.359375 C 9.097656 -6.359375 9.664062 -6.8125 10.34375 -7.71875 C 11.03125 -8.632812 11.765625 -10.019531 12.546875 -11.875 C 13.328125 -13.738281 14.082031 -16.023438 14.8125 -18.734375 C 15.050781 -19.648438 15.421875 -20.304688 15.921875 -20.703125 C 16.429688 -21.097656 17.1875 -21.296875 18.1875 -21.296875 C 18.882812 -21.296875 19.367188 -21.210938 19.640625 -21.046875 C 19.921875 -20.878906 20.0625 -20.566406 20.0625 -20.109375 C 20.0625 -19.347656 19.679688 -17.257812 18.921875 -13.84375 C 18.066406 -9.945312 17.640625 -7.539062 17.640625 -6.625 C 17.640625 -6.050781 17.757812 -5.601562 18 -5.28125 C 18.25 -4.957031 18.570312 -4.796875 18.96875 -4.796875 C 19.570312 -4.796875 20.289062 -5.164062 21.125 -5.90625 C 21.96875 -6.65625 23.09375 -7.867188 24.5 -9.546875 C 24.863281 -9.972656 25.273438 -10.1875 25.734375 -10.1875 C 26.128906 -10.1875 26.441406 -10.003906 26.671875 -9.640625 C 26.898438 -9.273438 27.015625 -8.773438 27.015625 -8.140625 C 27.015625 -6.921875 26.722656 -5.972656 26.140625 -5.296875 C 24.828125 -3.679688 23.414062 -2.351562 21.90625 -1.3125 C 20.40625 -0.28125 18.691406 0.234375 16.765625 0.234375 C 15.304688 0.234375 14.234375 -0.328125 13.546875 -1.453125 C 12.859375 -2.585938 12.515625 -4.175781 12.515625 -6.21875 C 12.003906 -4.144531 11.226562 -2.550781 10.1875 -1.4375 C 9.15625 -0.320312 8.046875 0.234375 6.859375 0.234375 Z M 6.859375 0.234375 "/></g></g></g><g fill="#ffffff" fill-opacity="1"><g transform="translate(256.100745, 54.695857)"><g><path d="M 8.1875 -24.3125 C 6.90625 -24.3125 5.941406 -24.609375 5.296875 -25.203125 C 4.660156 -25.796875 4.34375 -26.628906 4.34375 -27.703125 C 4.34375 -28.765625 4.757812 -29.648438 5.59375 -30.359375 C 6.4375 -31.078125 7.484375 -31.4375 8.734375 -31.4375 C 9.859375 -31.4375 10.769531 -31.160156 11.46875 -30.609375 C 12.164062 -30.066406 12.515625 -29.296875 12.515625 -28.296875 C 12.515625 -27.078125 12.117188 -26.109375 11.328125 -25.390625 C 10.535156 -24.671875 9.488281 -24.3125 8.1875 -24.3125 Z M 7.8125 0.234375 C 5.832031 0.234375 4.390625 -0.460938 3.484375 -1.859375 C 2.585938 -3.265625 2.140625 -5.128906 2.140625 -7.453125 C 2.140625 -8.816406 2.316406 -10.570312 2.671875 -12.71875 C 3.023438 -14.875 3.472656 -16.878906 4.015625 -18.734375 C 4.296875 -19.710938 4.660156 -20.382812 5.109375 -20.75 C 5.566406 -21.113281 6.300781 -21.296875 7.3125 -21.296875 C 8.863281 -21.296875 9.640625 -20.78125 9.640625 -19.75 C 9.640625 -18.976562 9.351562 -17.207031 8.78125 -14.4375 C 8.039062 -11.09375 7.671875 -8.820312 7.671875 -7.625 C 7.671875 -6.71875 7.789062 -6.019531 8.03125 -5.53125 C 8.28125 -5.039062 8.695312 -4.796875 9.28125 -4.796875 C 9.820312 -4.796875 10.503906 -5.175781 11.328125 -5.9375 C 12.148438 -6.695312 13.25 -7.898438 14.625 -9.546875 C 14.988281 -9.972656 15.398438 -10.1875 15.859375 -10.1875 C 16.253906 -10.1875 16.566406 -10.003906 16.796875 -9.640625 C 17.023438 -9.273438 17.140625 -8.773438 17.140625 -8.140625 C 17.140625 -6.921875 16.847656 -5.972656 16.265625 -5.296875 C 13.253906 -1.609375 10.4375 0.234375 7.8125 0.234375 Z M 7.8125 0.234375 "/></g></g></g><g fill="#ffffff" fill-opacity="1"><g transform="translate(267.341411, 54.695857)"><g><path d="M 5.4375 0.234375 C 4.28125 0.234375 3.460938 -0.375 2.984375 -1.59375 C 2.515625 -2.8125 2.28125 -4.765625 2.28125 -7.453125 C 2.28125 -11.410156 2.84375 -15.171875 3.96875 -18.734375 C 4.25 -19.617188 4.703125 -20.265625 5.328125 -20.671875 C 5.953125 -21.085938 6.828125 -21.296875 7.953125 -21.296875 C 8.554688 -21.296875 8.976562 -21.21875 9.21875 -21.0625 C 9.46875 -20.914062 9.59375 -20.628906 9.59375 -20.203125 C 9.59375 -19.710938 9.363281 -18.613281 8.90625 -16.90625 C 8.601562 -15.6875 8.359375 -14.617188 8.171875 -13.703125 C 7.992188 -12.796875 7.84375 -11.671875 7.71875 -10.328125 C 8.726562 -12.953125 9.859375 -15.085938 11.109375 -16.734375 C 12.359375 -18.378906 13.582031 -19.550781 14.78125 -20.25 C 15.988281 -20.945312 17.09375 -21.296875 18.09375 -21.296875 C 20.070312 -21.296875 21.0625 -20.304688 21.0625 -18.328125 C 21.0625 -17.929688 20.925781 -16.972656 20.65625 -15.453125 C 20.414062 -14.234375 20.296875 -13.46875 20.296875 -13.15625 C 20.296875 -12.09375 20.675781 -11.5625 21.4375 -11.5625 C 22.289062 -11.5625 23.382812 -12.234375 24.71875 -13.578125 C 25.113281 -13.972656 25.523438 -14.171875 25.953125 -14.171875 C 26.347656 -14.171875 26.660156 -13.992188 26.890625 -13.640625 C 27.117188 -13.285156 27.234375 -12.820312 27.234375 -12.25 C 27.234375 -11.125 26.929688 -10.238281 26.328125 -9.59375 C 25.472656 -8.707031 24.472656 -7.953125 23.328125 -7.328125 C 22.191406 -6.710938 20.984375 -6.40625 19.703125 -6.40625 C 18.085938 -6.40625 16.859375 -6.8125 16.015625 -7.625 C 15.179688 -8.445312 14.765625 -9.5625 14.765625 -10.96875 C 14.765625 -11.425781 14.8125 -11.882812 14.90625 -12.34375 C 14.957031 -12.945312 14.984375 -13.359375 14.984375 -13.578125 C 14.984375 -14.066406 14.816406 -14.3125 14.484375 -14.3125 C 14.023438 -14.3125 13.421875 -13.800781 12.671875 -12.78125 C 11.929688 -11.757812 11.195312 -10.410156 10.46875 -8.734375 C 9.738281 -7.054688 9.144531 -5.285156 8.6875 -3.421875 C 8.351562 -1.992188 7.960938 -1.023438 7.515625 -0.515625 C 7.078125 -0.015625 6.382812 0.234375 5.4375 0.234375 Z M 5.4375 0.234375 "/></g></g></g><g fill="#ffffff" fill-opacity="1"><g transform="translate(288.132046, 54.695857)"><g/></g></g><g fill="#ffffff" fill-opacity="1"><g transform="translate(300.240871, 54.695857)"><g><path d="M 34.5 -8.3125 C 34.957031 -8.5 35.34375 -8.59375 35.65625 -8.59375 C 36.132812 -8.59375 36.492188 -8.410156 36.734375 -8.046875 C 36.984375 -7.679688 37.109375 -7.207031 37.109375 -6.625 C 37.109375 -5.707031 36.882812 -4.929688 36.4375 -4.296875 C 36 -3.660156 35.25 -3.082031 34.1875 -2.5625 C 32.382812 -1.707031 30.050781 -1.023438 27.1875 -0.515625 C 24.320312 -0.015625 21.503906 0.234375 18.734375 0.234375 C 14.898438 0.234375 11.6875 -0.195312 9.09375 -1.0625 C 6.5 -1.9375 4.570312 -3.132812 3.3125 -4.65625 C 2.050781 -6.1875 1.421875 -7.910156 1.421875 -9.828125 C 1.421875 -12.441406 2.265625 -14.671875 3.953125 -16.515625 C 5.640625 -18.359375 8.128906 -19.691406 11.421875 -20.515625 C 9.628906 -21.035156 8.25 -21.953125 7.28125 -23.265625 C 6.320312 -24.578125 5.84375 -26.039062 5.84375 -27.65625 C 5.84375 -29.84375 6.535156 -31.78125 7.921875 -33.46875 C 9.316406 -35.164062 11.1875 -36.46875 13.53125 -37.375 C 15.875 -38.289062 18.445312 -38.75 21.25 -38.75 C 25.03125 -38.75 27.863281 -37.929688 29.75 -36.296875 C 31.644531 -34.671875 32.59375 -32.566406 32.59375 -29.984375 C 32.59375 -28.179688 32.265625 -26.722656 31.609375 -25.609375 C 30.953125 -24.503906 30.015625 -23.953125 28.796875 -23.953125 C 27.941406 -23.953125 27.269531 -24.140625 26.78125 -24.515625 C 26.289062 -24.898438 26.046875 -25.472656 26.046875 -26.234375 C 26.046875 -26.753906 26.125 -27.316406 26.28125 -27.921875 C 26.4375 -28.929688 26.515625 -29.617188 26.515625 -29.984375 C 26.515625 -31.078125 26.101562 -31.96875 25.28125 -32.65625 C 24.457031 -33.34375 23.082031 -33.6875 21.15625 -33.6875 C 18.570312 -33.6875 16.5 -33.132812 14.9375 -32.03125 C 13.382812 -30.9375 12.609375 -29.460938 12.609375 -27.609375 C 12.609375 -26.171875 13.195312 -24.988281 14.375 -24.0625 C 15.550781 -23.132812 17.460938 -22.625 20.109375 -22.53125 C 20.773438 -22.5 21.242188 -22.34375 21.515625 -22.0625 C 21.796875 -21.789062 21.9375 -21.335938 21.9375 -20.703125 C 21.9375 -18.691406 21.023438 -17.671875 19.203125 -17.640625 C 16.671875 -17.578125 14.570312 -17.222656 12.90625 -16.578125 C 11.25 -15.941406 10.046875 -15.128906 9.296875 -14.140625 C 8.554688 -13.148438 8.1875 -12.09375 8.1875 -10.96875 C 8.1875 -9.082031 9.066406 -7.65625 10.828125 -6.6875 C 12.597656 -5.726562 15.398438 -5.25 19.234375 -5.25 C 21.765625 -5.25 24.4375 -5.546875 27.25 -6.140625 C 30.070312 -6.734375 32.488281 -7.457031 34.5 -8.3125 Z M 34.5 -8.3125 "/></g></g></g><g fill="#ffffff" fill-opacity="1"><g transform="translate(331.586759, 54.695857)"><g><path d="M 28.15625 -10.1875 C 28.550781 -10.1875 28.863281 -10.003906 29.09375 -9.640625 C 29.320312 -9.273438 29.4375 -8.773438 29.4375 -8.140625 C 29.4375 -6.921875 29.144531 -5.972656 28.5625 -5.296875 C 27.3125 -3.773438 25.941406 -2.472656 24.453125 -1.390625 C 22.960938 -0.304688 21.484375 0.234375 20.015625 0.234375 C 17.703125 0.234375 15.9375 -1.125 14.71875 -3.84375 C 13.4375 -2.226562 12.316406 -1.144531 11.359375 -0.59375 C 10.398438 -0.0390625 9.28125 0.234375 8 0.234375 C 6.132812 0.234375 4.597656 -0.457031 3.390625 -1.84375 C 2.191406 -3.238281 1.59375 -5.046875 1.59375 -7.265625 C 1.59375 -9.703125 2.109375 -11.960938 3.140625 -14.046875 C 4.179688 -16.140625 5.609375 -17.847656 7.421875 -19.171875 C 9.234375 -20.492188 11.269531 -21.28125 13.53125 -21.53125 C 14.101562 -27.4375 15.203125 -32.484375 16.828125 -36.671875 C 18.460938 -40.867188 20.609375 -42.96875 23.265625 -42.96875 C 24.578125 -42.96875 25.664062 -42.367188 26.53125 -41.171875 C 27.394531 -39.984375 27.828125 -38.1875 27.828125 -35.78125 C 27.828125 -32.375 26.988281 -28.382812 25.3125 -23.8125 C 23.644531 -19.238281 21.40625 -14.546875 18.59375 -9.734375 C 18.71875 -7.960938 18.984375 -6.695312 19.390625 -5.9375 C 19.804688 -5.175781 20.335938 -4.796875 20.984375 -4.796875 C 21.804688 -4.796875 22.640625 -5.160156 23.484375 -5.890625 C 24.335938 -6.628906 25.484375 -7.847656 26.921875 -9.546875 C 27.285156 -9.972656 27.695312 -10.1875 28.15625 -10.1875 Z M 22.765625 -38.484375 C 22.179688 -38.484375 21.597656 -37.453125 21.015625 -35.390625 C 20.441406 -33.335938 19.945312 -30.648438 19.53125 -27.328125 C 19.125 -24.003906 18.828125 -20.53125 18.640625 -16.90625 C 22.054688 -24.34375 23.765625 -30.316406 23.765625 -34.828125 C 23.765625 -35.984375 23.664062 -36.878906 23.46875 -37.515625 C 23.269531 -38.160156 23.035156 -38.484375 22.765625 -38.484375 Z M 9.59375 -4.390625 C 10.175781 -4.390625 10.753906 -4.625 11.328125 -5.09375 C 11.910156 -5.5625 12.644531 -6.4375 13.53125 -7.71875 C 13.226562 -9.363281 13.078125 -11.207031 13.078125 -13.25 C 13.078125 -13.976562 13.101562 -15.164062 13.15625 -16.8125 C 11.488281 -16.300781 10.097656 -15.179688 8.984375 -13.453125 C 7.867188 -11.734375 7.3125 -9.820312 7.3125 -7.71875 C 7.3125 -5.5 8.070312 -4.390625 9.59375 -4.390625 Z M 9.59375 -4.390625 "/></g></g></g><g fill="#ffffff" fill-opacity="1"><g transform="translate(355.119021, 54.695857)"><g><path d="M 8.1875 -24.3125 C 6.90625 -24.3125 5.941406 -24.609375 5.296875 -25.203125 C 4.660156 -25.796875 4.34375 -26.628906 4.34375 -27.703125 C 4.34375 -28.765625 4.757812 -29.648438 5.59375 -30.359375 C 6.4375 -31.078125 7.484375 -31.4375 8.734375 -31.4375 C 9.859375 -31.4375 10.769531 -31.160156 11.46875 -30.609375 C 12.164062 -30.066406 12.515625 -29.296875 12.515625 -28.296875 C 12.515625 -27.078125 12.117188 -26.109375 11.328125 -25.390625 C 10.535156 -24.671875 9.488281 -24.3125 8.1875 -24.3125 Z M 7.8125 0.234375 C 5.832031 0.234375 4.390625 -0.460938 3.484375 -1.859375 C 2.585938 -3.265625 2.140625 -5.128906 2.140625 -7.453125 C 2.140625 -8.816406 2.316406 -10.570312 2.671875 -12.71875 C 3.023438 -14.875 3.472656 -16.878906 4.015625 -18.734375 C 4.296875 -19.710938 4.660156 -20.382812 5.109375 -20.75 C 5.566406 -21.113281 6.300781 -21.296875 7.3125 -21.296875 C 8.863281 -21.296875 9.640625 -20.78125 9.640625 -19.75 C 9.640625 -18.976562 9.351562 -17.207031 8.78125 -14.4375 C 8.039062 -11.09375 7.671875 -8.820312 7.671875 -7.625 C 7.671875 -6.71875 7.789062 -6.019531 8.03125 -5.53125 C 8.28125 -5.039062 8.695312 -4.796875 9.28125 -4.796875 C 9.820312 -4.796875 10.503906 -5.175781 11.328125 -5.9375 C 12.148438 -6.695312 13.25 -7.898438 14.625 -9.546875 C 14.988281 -9.972656 15.398438 -10.1875 15.859375 -10.1875 C 16.253906 -10.1875 16.566406 -10.003906 16.796875 -9.640625 C 17.023438 -9.273438 17.140625 -8.773438 17.140625 -8.140625 C 17.140625 -6.921875 16.847656 -5.972656 16.265625 -5.296875 C 13.253906 -1.609375 10.4375 0.234375 7.8125 0.234375 Z M 7.8125 0.234375 "/></g></g></g><g fill="#ffffff" fill-opacity="1"><g transform="translate(366.359687, 54.695857)"><g><path d="M 10.921875 0.234375 C 7.929688 0.234375 5.609375 -0.609375 3.953125 -2.296875 C 2.296875 -3.992188 1.46875 -6.226562 1.46875 -9 C 1.46875 -11.46875 1.953125 -13.628906 2.921875 -15.484375 C 3.898438 -17.347656 5.164062 -18.78125 6.71875 -19.78125 C 8.269531 -20.789062 9.898438 -21.296875 11.609375 -21.296875 C 13.285156 -21.296875 14.585938 -20.800781 15.515625 -19.8125 C 16.441406 -18.820312 16.90625 -17.550781 16.90625 -16 C 16.90625 -14.71875 16.625 -13.632812 16.0625 -12.75 C 15.5 -11.863281 14.757812 -11.421875 13.84375 -11.421875 C 13.269531 -11.421875 12.804688 -11.554688 12.453125 -11.828125 C 12.097656 -12.109375 11.921875 -12.492188 11.921875 -12.984375 C 11.921875 -13.191406 11.953125 -13.429688 12.015625 -13.703125 C 12.078125 -13.984375 12.125 -14.1875 12.15625 -14.3125 C 12.3125 -14.757812 12.390625 -15.179688 12.390625 -15.578125 C 12.390625 -15.972656 12.289062 -16.273438 12.09375 -16.484375 C 11.894531 -16.703125 11.613281 -16.8125 11.25 -16.8125 C 10.539062 -16.8125 9.878906 -16.5 9.265625 -15.875 C 8.660156 -15.25 8.175781 -14.40625 7.8125 -13.34375 C 7.445312 -12.28125 7.265625 -11.109375 7.265625 -9.828125 C 7.265625 -6.296875 8.804688 -4.53125 11.890625 -4.53125 C 13.128906 -4.53125 14.472656 -4.945312 15.921875 -5.78125 C 17.367188 -6.613281 18.796875 -7.867188 20.203125 -9.546875 C 20.566406 -9.972656 20.976562 -10.1875 21.4375 -10.1875 C 21.832031 -10.1875 22.144531 -10.003906 22.375 -9.640625 C 22.601562 -9.273438 22.71875 -8.773438 22.71875 -8.140625 C 22.71875 -6.984375 22.425781 -6.035156 21.84375 -5.296875 C 20.414062 -3.535156 18.703125 -2.171875 16.703125 -1.203125 C 14.710938 -0.242188 12.785156 0.234375 10.921875 0.234375 Z M 7.265625 11.421875 C 6.109375 11.421875 5.164062 11.347656 4.4375 11.203125 C 3.25 10.984375 2.65625 10.3125 2.65625 9.1875 C 2.65625 7.8125 3.265625 7.125 4.484375 7.125 C 4.722656 7.125 4.921875 7.140625 5.078125 7.171875 C 5.898438 7.296875 6.707031 7.359375 7.5 7.359375 C 8.71875 7.359375 9.664062 7.101562 10.34375 6.59375 C 11.03125 6.09375 11.375 5.328125 11.375 4.296875 C 11.375 3.535156 11.046875 2.929688 10.390625 2.484375 C 9.742188 2.046875 8.851562 1.828125 7.71875 1.828125 C 6.925781 1.828125 6.316406 1.71875 5.890625 1.5 C 5.460938 1.289062 5.25 0.925781 5.25 0.40625 C 5.25 0.226562 5.265625 0.09375 5.296875 0 C 5.421875 -0.613281 5.664062 -1.0625 6.03125 -1.34375 C 6.394531 -1.632812 6.957031 -1.78125 7.71875 -1.78125 L 8.90625 -1.78125 C 11.007812 -1.78125 12.6875 -1.273438 13.9375 -0.265625 C 15.1875 0.734375 15.8125 2.132812 15.8125 3.9375 C 15.8125 5.363281 15.46875 6.644531 14.78125 7.78125 C 14.09375 8.925781 13.101562 9.816406 11.8125 10.453125 C 10.519531 11.097656 9.003906 11.421875 7.265625 11.421875 Z M 7.265625 11.421875 "/></g></g></g><g fill="#ffffff" fill-opacity="1"><g transform="translate(383.17497, 54.695857)"><g><path d="M 7.8125 0.234375 C 5.925781 0.234375 4.414062 -0.453125 3.28125 -1.828125 C 2.15625 -3.203125 1.59375 -5 1.59375 -7.21875 C 1.59375 -9.65625 2.15625 -11.960938 3.28125 -14.140625 C 4.414062 -16.316406 5.921875 -18.066406 7.796875 -19.390625 C 9.671875 -20.722656 11.65625 -21.390625 13.75 -21.390625 C 14.425781 -21.390625 14.878906 -21.257812 15.109375 -21 C 15.335938 -20.738281 15.523438 -20.273438 15.671875 -19.609375 C 16.316406 -19.734375 16.988281 -19.796875 17.6875 -19.796875 C 19.175781 -19.796875 19.921875 -19.257812 19.921875 -18.1875 C 19.921875 -17.550781 19.691406 -16.03125 19.234375 -13.625 C 18.535156 -10.113281 18.1875 -7.675781 18.1875 -6.3125 C 18.1875 -5.851562 18.300781 -5.484375 18.53125 -5.203125 C 18.757812 -4.929688 19.054688 -4.796875 19.421875 -4.796875 C 20.003906 -4.796875 20.707031 -5.164062 21.53125 -5.90625 C 22.351562 -6.65625 23.460938 -7.867188 24.859375 -9.546875 C 25.222656 -9.972656 25.632812 -10.1875 26.09375 -10.1875 C 26.488281 -10.1875 26.800781 -10.003906 27.03125 -9.640625 C 27.257812 -9.273438 27.375 -8.773438 27.375 -8.140625 C 27.375 -6.921875 27.085938 -5.972656 26.515625 -5.296875 C 25.265625 -3.742188 23.9375 -2.429688 22.53125 -1.359375 C 21.125 -0.296875 19.769531 0.234375 18.46875 0.234375 C 17.457031 0.234375 16.53125 -0.109375 15.6875 -0.796875 C 14.851562 -1.484375 14.222656 -2.421875 13.796875 -3.609375 C 12.210938 -1.046875 10.21875 0.234375 7.8125 0.234375 Z M 9.453125 -4.390625 C 10.128906 -4.390625 10.769531 -4.785156 11.375 -5.578125 C 11.988281 -6.367188 12.429688 -7.421875 12.703125 -8.734375 L 14.390625 -17.140625 C 13.117188 -17.109375 11.941406 -16.628906 10.859375 -15.703125 C 9.773438 -14.773438 8.910156 -13.546875 8.265625 -12.015625 C 7.628906 -10.492188 7.3125 -8.878906 7.3125 -7.171875 C 7.3125 -6.234375 7.5 -5.535156 7.875 -5.078125 C 8.257812 -4.617188 8.785156 -4.390625 9.453125 -4.390625 Z M 18.734375 -24.3125 C 18.242188 -24.3125 17.785156 -24.394531 17.359375 -24.5625 C 16.929688 -24.726562 16.382812 -25.039062 15.71875 -25.5 L 10.828125 -28.890625 L 8.8125 -26 C 8.320312 -25.332031 7.632812 -25 6.75 -25 C 6.207031 -25 5.742188 -25.15625 5.359375 -25.46875 C 4.984375 -25.789062 4.796875 -26.226562 4.796875 -26.78125 C 4.796875 -27.476562 5.359375 -28.648438 6.484375 -30.296875 C 7.179688 -31.304688 7.863281 -32.046875 8.53125 -32.515625 C 9.207031 -32.984375 9.941406 -33.21875 10.734375 -33.21875 C 11.253906 -33.21875 11.71875 -33.140625 12.125 -32.984375 C 12.539062 -32.835938 13.082031 -32.519531 13.75 -32.03125 L 18.640625 -28.65625 L 20.65625 -31.53125 C 21.132812 -32.207031 21.816406 -32.546875 22.703125 -32.546875 C 23.253906 -32.546875 23.71875 -32.382812 24.09375 -32.0625 C 24.476562 -31.738281 24.671875 -31.304688 24.671875 -30.765625 C 24.671875 -30.335938 24.523438 -29.851562 24.234375 -29.3125 C 23.941406 -28.78125 23.523438 -28.085938 22.984375 -27.234375 C 22.285156 -26.234375 21.597656 -25.492188 20.921875 -25.015625 C 20.253906 -24.546875 19.523438 -24.3125 18.734375 -24.3125 Z M 18.734375 -24.3125 "/></g></g></g><g fill="#ffffff" fill-opacity="1"><g transform="translate(404.651017, 54.695857)"><g><path d="M 25.5 -14.03125 C 25.894531 -14.03125 26.195312 -13.832031 26.40625 -13.4375 C 26.625 -13.039062 26.734375 -12.535156 26.734375 -11.921875 C 26.734375 -10.460938 26.289062 -9.597656 25.40625 -9.328125 C 23.582031 -8.679688 21.570312 -8.316406 19.375 -8.234375 C 18.800781 -5.671875 17.660156 -3.617188 15.953125 -2.078125 C 14.242188 -0.535156 12.304688 0.234375 10.140625 0.234375 C 8.316406 0.234375 6.753906 -0.207031 5.453125 -1.09375 C 4.160156 -1.976562 3.179688 -3.148438 2.515625 -4.609375 C 1.847656 -6.078125 1.515625 -7.664062 1.515625 -9.375 C 1.515625 -11.6875 1.953125 -13.75 2.828125 -15.5625 C 3.710938 -17.375 4.929688 -18.789062 6.484375 -19.8125 C 8.046875 -20.832031 9.769531 -21.34375 11.65625 -21.34375 C 13.96875 -21.34375 15.832031 -20.539062 17.25 -18.9375 C 18.664062 -17.34375 19.5 -15.375 19.75 -13.03125 C 21.175781 -13.113281 22.878906 -13.414062 24.859375 -13.9375 C 25.109375 -14 25.320312 -14.03125 25.5 -14.03125 Z M 10.515625 -4.609375 C 11.484375 -4.609375 12.328125 -5.003906 13.046875 -5.796875 C 13.765625 -6.597656 14.242188 -7.742188 14.484375 -9.234375 C 13.546875 -9.867188 12.820312 -10.703125 12.3125 -11.734375 C 11.8125 -12.773438 11.5625 -13.875 11.5625 -15.03125 C 11.5625 -15.519531 11.609375 -16.007812 11.703125 -16.5 L 11.46875 -16.5 C 10.25 -16.5 9.234375 -15.910156 8.421875 -14.734375 C 7.617188 -13.566406 7.21875 -11.914062 7.21875 -9.78125 C 7.21875 -8.101562 7.546875 -6.820312 8.203125 -5.9375 C 8.859375 -5.050781 9.628906 -4.609375 10.515625 -4.609375 Z M 10.515625 -4.609375 "/></g></g></g><g clip-path="url(#id2)"><path fill="#ffffff" d="M 80.414062 36.988281 C 83.664062 39.226562 85.363281 39.632812 88.164062 44.328125 C 90.960938 49.019531 91.453125 52.214844 92.191406 52.800781 C 92.925781 53.386719 96.609375 52.65625 98.527344 51.628906 C 100.441406 50.601562 100.515625 50.035156 102.304688 45.871094 C 104.785156 40.097656 108.8125 33.011719 111.90625 28.90625 C 115 24.796875 121.519531 19.394531 121.8125 18.371094 C 122.109375 17.34375 119.011719 16.867188 116.066406 17.746094 C 113.117188 18.625 106.90625 25.421875 103.160156 30.769531 C 98.992188 36.710938 97.515625 41.726562 96.777344 41.582031 C 96.039062 41.433594 94.601562 38.445312 92.535156 36.242188 C 90.472656 34.042969 88.300781 32.554688 85.792969 32.992188 C 83.289062 33.433594 78.914062 35.957031 80.414062 36.988281 " fill-opacity="1" fill-rule="nonzero"/></g></svg>