<svg xmlns="http://www.w3.org/2000/svg" xmlns:xlink="http://www.w3.org/1999/xlink" width="718" zoomAndPan="magnify" viewBox="0 0 538.5 70.499998" height="94" preserveAspectRatio="xMidYMid meet" version="1.0"><defs><g/><clipPath id="id1"><path d="M 1.648438 0 L 536.355469 0 L 536.355469 70.003906 L 1.648438 70.003906 Z M 1.648438 0 " clip-rule="nonzero"/></clipPath><clipPath id="id2"><path d="M 89 15.066406 L 99.972656 15.066406 L 99.972656 26 L 89 26 Z M 89 15.066406 " clip-rule="nonzero"/></clipPath><clipPath id="id3"><path d="M 58.230469 22 L 92 22 L 92 55.316406 L 58.230469 55.316406 Z M 58.230469 22 " clip-rule="nonzero"/></clipPath></defs><g clip-path="url(#id1)"><path fill="#82d2ff" d="M 17.308594 0 L 521.191406 0 C 525.339844 0 529.324219 1.640625 532.257812 4.5625 C 535.191406 7.480469 536.839844 11.441406 536.839844 15.574219 L 536.839844 54.496094 C 536.839844 58.625 535.191406 62.585938 532.257812 65.507812 C 529.324219 68.429688 525.339844 70.070312 521.191406 70.070312 L 17.308594 70.070312 C 13.15625 70.070312 9.175781 68.429688 6.242188 65.507812 C 3.308594 62.585938 1.660156 58.625 1.660156 54.496094 L 1.660156 15.574219 C 1.660156 11.441406 3.308594 7.480469 6.242188 4.5625 C 9.175781 1.640625 13.15625 0 17.308594 0 " fill-opacity="1" fill-rule="nonzero"/></g><g fill="#ffffff" fill-opacity="1"><g transform="translate(108.839614, 54.58974)"><g><path d="M 34.40625 -8.296875 C 34.863281 -8.472656 35.242188 -8.5625 35.546875 -8.5625 C 36.035156 -8.5625 36.398438 -8.378906 36.640625 -8.015625 C 36.890625 -7.648438 37.015625 -7.179688 37.015625 -6.609375 C 37.015625 -5.691406 36.789062 -4.914062 36.34375 -4.28125 C 35.90625 -3.644531 35.15625 -3.066406 34.09375 -2.546875 C 32.300781 -1.703125 29.972656 -1.023438 27.109375 -0.515625 C 24.253906 -0.015625 21.445312 0.234375 18.6875 0.234375 C 14.851562 0.234375 11.644531 -0.195312 9.0625 -1.0625 C 6.488281 -1.9375 4.566406 -3.128906 3.296875 -4.640625 C 2.035156 -6.160156 1.40625 -7.878906 1.40625 -9.796875 C 1.40625 -12.410156 2.25 -14.632812 3.9375 -16.46875 C 5.625 -18.3125 8.109375 -19.644531 11.390625 -20.46875 C 9.597656 -20.976562 8.222656 -21.882812 7.265625 -23.1875 C 6.304688 -24.5 5.828125 -25.960938 5.828125 -27.578125 C 5.828125 -29.765625 6.519531 -31.703125 7.90625 -33.390625 C 9.289062 -35.078125 11.148438 -36.375 13.484375 -37.28125 C 15.828125 -38.195312 18.394531 -38.65625 21.1875 -38.65625 C 24.957031 -38.65625 27.785156 -37.84375 29.671875 -36.21875 C 31.554688 -34.59375 32.5 -32.488281 32.5 -29.90625 C 32.5 -28.101562 32.171875 -26.648438 31.515625 -25.546875 C 30.859375 -24.441406 29.925781 -23.890625 28.71875 -23.890625 C 27.863281 -23.890625 27.191406 -24.078125 26.703125 -24.453125 C 26.222656 -24.828125 25.984375 -25.394531 25.984375 -26.15625 C 25.984375 -26.675781 26.054688 -27.238281 26.203125 -27.84375 C 26.359375 -28.851562 26.4375 -29.539062 26.4375 -29.90625 C 26.4375 -31 26.023438 -31.882812 25.203125 -32.5625 C 24.378906 -33.25 23.015625 -33.59375 21.109375 -33.59375 C 18.523438 -33.59375 16.457031 -33.046875 14.90625 -31.953125 C 13.351562 -30.859375 12.578125 -29.382812 12.578125 -27.53125 C 12.578125 -26.101562 13.160156 -24.925781 14.328125 -24 C 15.503906 -23.070312 17.410156 -22.5625 20.046875 -22.46875 C 20.722656 -22.4375 21.195312 -22.285156 21.46875 -22.015625 C 21.738281 -21.742188 21.875 -21.285156 21.875 -20.640625 C 21.875 -18.640625 20.960938 -17.625 19.140625 -17.59375 C 16.617188 -17.53125 14.53125 -17.179688 12.875 -16.546875 C 11.21875 -15.910156 10.015625 -15.097656 9.265625 -14.109375 C 8.523438 -13.117188 8.15625 -12.0625 8.15625 -10.9375 C 8.15625 -9.050781 9.035156 -7.628906 10.796875 -6.671875 C 12.566406 -5.710938 15.363281 -5.234375 19.1875 -5.234375 C 21.707031 -5.234375 24.375 -5.53125 27.1875 -6.125 C 30 -6.71875 32.40625 -7.441406 34.40625 -8.296875 Z M 34.40625 -8.296875 "/></g></g></g><g fill="#ffffff" fill-opacity="1"><g transform="translate(140.105522, 54.58974)"><g><path d="M 28.078125 -10.15625 C 28.472656 -10.15625 28.785156 -9.972656 29.015625 -9.609375 C 29.242188 -9.242188 29.359375 -8.742188 29.359375 -8.109375 C 29.359375 -6.898438 29.066406 -5.957031 28.484375 -5.28125 C 27.242188 -3.769531 25.878906 -2.472656 24.390625 -1.390625 C 22.898438 -0.304688 21.425781 0.234375 19.96875 0.234375 C 17.65625 0.234375 15.890625 -1.117188 14.671875 -3.828125 C 13.398438 -2.210938 12.285156 -1.128906 11.328125 -0.578125 C 10.367188 -0.0351562 9.25 0.234375 7.96875 0.234375 C 6.125 0.234375 4.597656 -0.457031 3.390625 -1.84375 C 2.191406 -3.226562 1.59375 -5.03125 1.59375 -7.25 C 1.59375 -9.675781 2.109375 -11.929688 3.140625 -14.015625 C 4.171875 -16.097656 5.59375 -17.800781 7.40625 -19.125 C 9.21875 -20.445312 11.242188 -21.226562 13.484375 -21.46875 C 14.066406 -27.363281 15.171875 -32.398438 16.796875 -36.578125 C 18.421875 -40.753906 20.554688 -42.84375 23.203125 -42.84375 C 24.503906 -42.84375 25.585938 -42.25 26.453125 -41.0625 C 27.316406 -39.875 27.75 -38.082031 27.75 -35.6875 C 27.75 -32.28125 26.914062 -28.296875 25.25 -23.734375 C 23.582031 -19.179688 21.347656 -14.503906 18.546875 -9.703125 C 18.671875 -7.941406 18.9375 -6.679688 19.34375 -5.921875 C 19.757812 -5.160156 20.285156 -4.78125 20.921875 -4.78125 C 21.742188 -4.78125 22.578125 -5.144531 23.421875 -5.875 C 24.273438 -6.601562 25.414062 -7.820312 26.84375 -9.53125 C 27.207031 -9.945312 27.617188 -10.15625 28.078125 -10.15625 Z M 22.703125 -38.375 C 22.117188 -38.375 21.535156 -37.347656 20.953125 -35.296875 C 20.378906 -33.242188 19.890625 -30.5625 19.484375 -27.25 C 19.078125 -23.9375 18.78125 -20.472656 18.59375 -16.859375 C 22 -24.273438 23.703125 -30.234375 23.703125 -34.734375 C 23.703125 -35.890625 23.601562 -36.785156 23.40625 -37.421875 C 23.207031 -38.054688 22.972656 -38.375 22.703125 -38.375 Z M 9.578125 -4.375 C 10.148438 -4.375 10.722656 -4.609375 11.296875 -5.078125 C 11.878906 -5.546875 12.609375 -6.421875 13.484375 -7.703125 C 13.179688 -9.335938 13.03125 -11.175781 13.03125 -13.21875 C 13.03125 -13.945312 13.0625 -15.128906 13.125 -16.765625 C 11.457031 -16.253906 10.066406 -15.140625 8.953125 -13.421875 C 7.847656 -11.703125 7.296875 -9.796875 7.296875 -7.703125 C 7.296875 -5.484375 8.054688 -4.375 9.578125 -4.375 Z M 9.578125 -4.375 "/></g></g></g><g fill="#ffffff" fill-opacity="1"><g transform="translate(163.577738, 54.58974)"><g><path d="M 8.15625 -24.25 C 6.882812 -24.25 5.925781 -24.546875 5.28125 -25.140625 C 4.644531 -25.734375 4.328125 -26.5625 4.328125 -27.625 C 4.328125 -28.6875 4.742188 -29.570312 5.578125 -30.28125 C 6.421875 -31 7.460938 -31.359375 8.703125 -31.359375 C 9.828125 -31.359375 10.738281 -31.082031 11.4375 -30.53125 C 12.132812 -29.988281 12.484375 -29.21875 12.484375 -28.21875 C 12.484375 -27 12.085938 -26.03125 11.296875 -25.3125 C 10.515625 -24.601562 9.46875 -24.25 8.15625 -24.25 Z M 7.796875 0.234375 C 5.816406 0.234375 4.378906 -0.460938 3.484375 -1.859375 C 2.585938 -3.265625 2.140625 -5.117188 2.140625 -7.421875 C 2.140625 -8.796875 2.3125 -10.550781 2.65625 -12.6875 C 3.007812 -14.832031 3.460938 -16.832031 4.015625 -18.6875 C 4.285156 -19.65625 4.644531 -20.320312 5.09375 -20.6875 C 5.550781 -21.050781 6.285156 -21.234375 7.296875 -21.234375 C 8.835938 -21.234375 9.609375 -20.71875 9.609375 -19.6875 C 9.609375 -18.925781 9.320312 -17.164062 8.75 -14.40625 C 8.019531 -11.0625 7.65625 -8.796875 7.65625 -7.609375 C 7.65625 -6.703125 7.773438 -6.003906 8.015625 -5.515625 C 8.265625 -5.023438 8.675781 -4.78125 9.25 -4.78125 C 9.800781 -4.78125 10.484375 -5.160156 11.296875 -5.921875 C 12.117188 -6.679688 13.210938 -7.882812 14.578125 -9.53125 C 14.941406 -9.945312 15.351562 -10.15625 15.8125 -10.15625 C 16.207031 -10.15625 16.519531 -9.972656 16.75 -9.609375 C 16.976562 -9.242188 17.09375 -8.742188 17.09375 -8.109375 C 17.09375 -6.898438 16.800781 -5.957031 16.21875 -5.28125 C 13.21875 -1.601562 10.410156 0.234375 7.796875 0.234375 Z M 7.796875 0.234375 "/></g></g></g><g fill="#ffffff" fill-opacity="1"><g transform="translate(174.789717, 54.58974)"><g><path d="M 22.515625 -10.15625 C 22.910156 -10.15625 23.222656 -9.972656 23.453125 -9.609375 C 23.679688 -9.242188 23.796875 -8.742188 23.796875 -8.109375 C 23.796875 -6.898438 23.503906 -5.957031 22.921875 -5.28125 C 21.617188 -3.675781 20.191406 -2.351562 18.640625 -1.3125 C 17.085938 -0.28125 15.3125 0.234375 13.3125 0.234375 C 7.113281 0.234375 4.015625 -4.128906 4.015625 -12.859375 C 4.015625 -14.191406 4.054688 -15.539062 4.140625 -16.90625 L 2.375 -16.90625 C 1.457031 -16.90625 0.835938 -17.070312 0.515625 -17.40625 C 0.203125 -17.738281 0.046875 -18.269531 0.046875 -19 C 0.046875 -20.707031 0.726562 -21.5625 2.09375 -21.5625 L 4.6875 -21.5625 C 5.207031 -24.90625 6 -27.957031 7.0625 -30.71875 C 8.125 -33.488281 9.40625 -35.691406 10.90625 -37.328125 C 12.414062 -38.972656 14.035156 -39.796875 15.765625 -39.796875 C 17.046875 -39.796875 18.050781 -39.234375 18.78125 -38.109375 C 19.507812 -36.984375 19.875 -35.566406 19.875 -33.859375 C 19.875 -29.148438 17.898438 -25.050781 13.953125 -21.5625 L 19.046875 -21.5625 C 19.535156 -21.5625 19.882812 -21.453125 20.09375 -21.234375 C 20.3125 -21.023438 20.421875 -20.628906 20.421875 -20.046875 C 20.421875 -17.953125 18.703125 -16.90625 15.265625 -16.90625 L 9.703125 -16.90625 C 9.640625 -15.382812 9.609375 -14.203125 9.609375 -13.359375 C 9.609375 -10.191406 9.976562 -7.96875 10.71875 -6.6875 C 11.46875 -5.414062 12.648438 -4.78125 14.265625 -4.78125 C 15.566406 -4.78125 16.71875 -5.175781 17.71875 -5.96875 C 18.726562 -6.757812 19.914062 -7.945312 21.28125 -9.53125 C 21.644531 -9.945312 22.054688 -10.15625 22.515625 -10.15625 Z M 14.546875 -35.421875 C 14.085938 -35.421875 13.578125 -34.847656 13.015625 -33.703125 C 12.453125 -32.566406 11.921875 -30.988281 11.421875 -28.96875 C 10.921875 -26.945312 10.5 -24.703125 10.15625 -22.234375 C 11.957031 -23.785156 13.304688 -25.523438 14.203125 -27.453125 C 15.097656 -29.390625 15.546875 -31.144531 15.546875 -32.71875 C 15.546875 -34.519531 15.210938 -35.421875 14.546875 -35.421875 Z M 14.546875 -35.421875 "/></g></g></g><g fill="#ffffff" fill-opacity="1"><g transform="translate(192.70153, 54.58974)"><g><path d="M 7.796875 0.234375 C 5.910156 0.234375 4.40625 -0.445312 3.28125 -1.8125 C 2.15625 -3.1875 1.59375 -4.984375 1.59375 -7.203125 C 1.59375 -9.628906 2.15625 -11.925781 3.28125 -14.09375 C 4.40625 -16.269531 5.898438 -18.019531 7.765625 -19.34375 C 9.640625 -20.664062 11.625 -21.328125 13.71875 -21.328125 C 14.382812 -21.328125 14.832031 -21.195312 15.0625 -20.9375 C 15.289062 -20.6875 15.484375 -20.222656 15.640625 -19.546875 C 16.273438 -19.671875 16.941406 -19.734375 17.640625 -19.734375 C 19.128906 -19.734375 19.875 -19.203125 19.875 -18.140625 C 19.875 -17.503906 19.644531 -15.984375 19.1875 -13.578125 C 18.488281 -10.085938 18.140625 -7.660156 18.140625 -6.296875 C 18.140625 -5.835938 18.253906 -5.46875 18.484375 -5.1875 C 18.710938 -4.914062 19.007812 -4.78125 19.375 -4.78125 C 19.945312 -4.78125 20.644531 -5.148438 21.46875 -5.890625 C 22.289062 -6.640625 23.398438 -7.851562 24.796875 -9.53125 C 25.160156 -9.945312 25.570312 -10.15625 26.03125 -10.15625 C 26.425781 -10.15625 26.734375 -9.972656 26.953125 -9.609375 C 27.179688 -9.242188 27.296875 -8.742188 27.296875 -8.109375 C 27.296875 -6.898438 27.007812 -5.957031 26.4375 -5.28125 C 25.1875 -3.738281 23.863281 -2.429688 22.46875 -1.359375 C 21.070312 -0.296875 19.71875 0.234375 18.40625 0.234375 C 17.40625 0.234375 16.488281 -0.109375 15.65625 -0.796875 C 14.820312 -1.484375 14.191406 -2.414062 13.765625 -3.59375 C 12.179688 -1.039062 10.191406 0.234375 7.796875 0.234375 Z M 9.4375 -4.375 C 10.101562 -4.375 10.738281 -4.769531 11.34375 -5.5625 C 11.957031 -6.351562 12.398438 -7.398438 12.671875 -8.703125 L 14.359375 -17.09375 C 13.078125 -17.0625 11.894531 -16.582031 10.8125 -15.65625 C 9.738281 -14.726562 8.882812 -13.503906 8.25 -11.984375 C 7.613281 -10.460938 7.296875 -8.851562 7.296875 -7.15625 C 7.296875 -6.21875 7.484375 -5.519531 7.859375 -5.0625 C 8.242188 -4.601562 8.769531 -4.375 9.4375 -4.375 Z M 9.4375 -4.375 "/></g></g></g><g fill="#ffffff" fill-opacity="1"><g transform="translate(214.122786, 54.58974)"><g><path d="M 5.421875 0.234375 C 4.265625 0.234375 3.453125 -0.375 2.984375 -1.59375 C 2.515625 -2.8125 2.28125 -4.753906 2.28125 -7.421875 C 2.28125 -11.378906 2.84375 -15.132812 3.96875 -18.6875 C 4.238281 -19.570312 4.6875 -20.21875 5.3125 -20.625 C 5.9375 -21.03125 6.8125 -21.234375 7.9375 -21.234375 C 8.539062 -21.234375 8.960938 -21.15625 9.203125 -21 C 9.453125 -20.851562 9.578125 -20.566406 9.578125 -20.140625 C 9.578125 -19.660156 9.347656 -18.566406 8.890625 -16.859375 C 8.585938 -15.648438 8.34375 -14.585938 8.15625 -13.671875 C 7.976562 -12.765625 7.828125 -11.640625 7.703125 -10.296875 C 8.703125 -12.910156 9.820312 -15.035156 11.0625 -16.671875 C 12.3125 -18.316406 13.535156 -19.488281 14.734375 -20.1875 C 15.941406 -20.882812 17.046875 -21.234375 18.046875 -21.234375 C 20.023438 -21.234375 21.015625 -20.25 21.015625 -18.28125 C 21.015625 -17.882812 20.875 -16.925781 20.59375 -15.40625 C 20.351562 -14.1875 20.234375 -13.425781 20.234375 -13.125 C 20.234375 -12.0625 20.613281 -11.53125 21.375 -11.53125 C 22.226562 -11.53125 23.320312 -12.195312 24.65625 -13.53125 C 25.050781 -13.925781 25.460938 -14.125 25.890625 -14.125 C 26.285156 -14.125 26.597656 -13.945312 26.828125 -13.59375 C 27.054688 -13.25 27.171875 -12.789062 27.171875 -12.21875 C 27.171875 -11.09375 26.863281 -10.210938 26.25 -9.578125 C 25.40625 -8.691406 24.410156 -7.9375 23.265625 -7.3125 C 22.128906 -6.6875 20.921875 -6.375 19.640625 -6.375 C 18.035156 -6.375 16.8125 -6.785156 15.96875 -7.609375 C 15.132812 -8.429688 14.71875 -9.539062 14.71875 -10.9375 C 14.71875 -11.394531 14.765625 -11.851562 14.859375 -12.3125 C 14.921875 -12.914062 14.953125 -13.320312 14.953125 -13.53125 C 14.953125 -14.019531 14.785156 -14.265625 14.453125 -14.265625 C 13.992188 -14.265625 13.390625 -13.753906 12.640625 -12.734375 C 11.898438 -11.722656 11.164062 -10.378906 10.4375 -8.703125 C 9.707031 -7.035156 9.113281 -5.273438 8.65625 -3.421875 C 8.320312 -1.992188 7.9375 -1.023438 7.5 -0.515625 C 7.0625 -0.015625 6.367188 0.234375 5.421875 0.234375 Z M 5.421875 0.234375 "/></g></g></g><g fill="#ffffff" fill-opacity="1"><g transform="translate(234.860379, 54.58974)"><g/></g></g><g fill="#ffffff" fill-opacity="1"><g transform="translate(246.938319, 54.58974)"><g><path d="M 22.515625 -38.375 C 23.304688 -38.375 23.972656 -38.179688 24.515625 -37.796875 C 25.066406 -37.421875 25.34375 -36.960938 25.34375 -36.421875 C 25.34375 -35.441406 25.035156 -34.65625 24.421875 -34.0625 C 23.816406 -33.476562 22.953125 -33.1875 21.828125 -33.1875 C 20.066406 -33.1875 18.734375 -33.171875 17.828125 -33.140625 C 17.765625 -32.773438 17.488281 -31.132812 17 -28.21875 C 16.457031 -24.96875 16.125 -22.972656 16 -22.234375 L 15.046875 -16.265625 C 14.367188 -11.804688 13.835938 -8.070312 13.453125 -5.0625 C 14.085938 -5.09375 14.953125 -5.109375 16.046875 -5.109375 C 17.648438 -5.109375 18.738281 -4.894531 19.3125 -4.46875 C 19.894531 -4.039062 20.1875 -3.398438 20.1875 -2.546875 C 20.1875 -1.765625 19.875 -1.097656 19.25 -0.546875 C 18.632812 0.00390625 17.765625 0.28125 16.640625 0.28125 C 15.878906 0.28125 14.675781 0.25 13.03125 0.1875 C 11.507812 0.125 10.507812 0.09375 10.03125 0.09375 C 8.113281 0.09375 6.015625 0.257812 3.734375 0.59375 C 2.734375 0.75 2.019531 0.828125 1.59375 0.828125 C 0.925781 0.828125 0.363281 0.640625 -0.09375 0.265625 C -0.550781 -0.0976562 -0.78125 -0.628906 -0.78125 -1.328125 C -0.78125 -2.421875 -0.296875 -3.269531 0.671875 -3.875 C 1.648438 -4.476562 3.019531 -4.796875 4.78125 -4.828125 L 6.921875 -4.875 L 7.0625 -5.875 C 7.789062 -10.738281 8.320312 -14.175781 8.65625 -16.1875 L 9.65625 -22.15625 C 10.269531 -25.675781 10.816406 -29.304688 11.296875 -33.046875 L 7.46875 -33 C 6.375 -33 5.625 -33.171875 5.21875 -33.515625 C 4.8125 -33.867188 4.609375 -34.363281 4.609375 -35 C 4.609375 -37.070312 6.09375 -38.179688 9.0625 -38.328125 C 10.46875 -38.390625 12.171875 -38.421875 14.171875 -38.421875 Z M 22.515625 -38.375 "/></g></g></g><g fill="#ffffff" fill-opacity="1"><g transform="translate(269.499005, 54.58974)"><g><path d="M 5.421875 0.234375 C 4.265625 0.234375 3.453125 -0.375 2.984375 -1.59375 C 2.515625 -2.8125 2.28125 -4.753906 2.28125 -7.421875 C 2.28125 -11.378906 2.84375 -15.132812 3.96875 -18.6875 C 4.238281 -19.570312 4.6875 -20.21875 5.3125 -20.625 C 5.9375 -21.03125 6.8125 -21.234375 7.9375 -21.234375 C 8.539062 -21.234375 8.960938 -21.15625 9.203125 -21 C 9.453125 -20.851562 9.578125 -20.566406 9.578125 -20.140625 C 9.578125 -19.660156 9.347656 -18.566406 8.890625 -16.859375 C 8.585938 -15.648438 8.34375 -14.585938 8.15625 -13.671875 C 7.976562 -12.765625 7.828125 -11.640625 7.703125 -10.296875 C 8.703125 -12.910156 9.820312 -15.035156 11.0625 -16.671875 C 12.3125 -18.316406 13.535156 -19.488281 14.734375 -20.1875 C 15.941406 -20.882812 17.046875 -21.234375 18.046875 -21.234375 C 20.023438 -21.234375 21.015625 -20.25 21.015625 -18.28125 C 21.015625 -17.09375 20.679688 -14.945312 20.015625 -11.84375 C 19.429688 -9.207031 19.140625 -7.460938 19.140625 -6.609375 C 19.140625 -5.390625 19.582031 -4.78125 20.46875 -4.78125 C 21.070312 -4.78125 21.789062 -5.148438 22.625 -5.890625 C 23.46875 -6.640625 24.585938 -7.851562 25.984375 -9.53125 C 26.347656 -9.945312 26.753906 -10.15625 27.203125 -10.15625 C 27.597656 -10.15625 27.910156 -9.972656 28.140625 -9.609375 C 28.367188 -9.242188 28.484375 -8.742188 28.484375 -8.109375 C 28.484375 -6.898438 28.195312 -5.957031 27.625 -5.28125 C 26.3125 -3.675781 24.898438 -2.351562 23.390625 -1.3125 C 21.890625 -0.28125 20.1875 0.234375 18.28125 0.234375 C 16.726562 0.234375 15.554688 -0.210938 14.765625 -1.109375 C 13.972656 -2.015625 13.578125 -3.316406 13.578125 -5.015625 C 13.578125 -5.867188 13.789062 -7.390625 14.21875 -9.578125 C 14.613281 -11.484375 14.8125 -12.800781 14.8125 -13.53125 C 14.8125 -14.019531 14.644531 -14.265625 14.3125 -14.265625 C 13.914062 -14.265625 13.359375 -13.753906 12.640625 -12.734375 C 11.929688 -11.722656 11.203125 -10.378906 10.453125 -8.703125 C 9.710938 -7.035156 9.113281 -5.273438 8.65625 -3.421875 C 8.320312 -1.992188 7.9375 -1.023438 7.5 -0.515625 C 7.0625 -0.015625 6.367188 0.234375 5.421875 0.234375 Z M 5.421875 0.234375 "/></g></g></g><g fill="#ffffff" fill-opacity="1"><g transform="translate(292.10526, 54.58974)"><g><path d="M 20.375 -12.765625 C 21.226562 -12.765625 21.65625 -12.125 21.65625 -10.84375 C 21.65625 -8.445312 19.769531 -7.25 16 -7.25 C 15.269531 -7.25 14.222656 -7.382812 12.859375 -7.65625 C 13.253906 -5.769531 13.578125 -3.679688 13.828125 -1.390625 C 14.085938 0.898438 14.21875 2.789062 14.21875 4.28125 C 14.21875 7.5625 13.6875 10.066406 12.625 11.796875 C 11.5625 13.535156 10.164062 14.40625 8.4375 14.40625 C 6.25 14.40625 4.691406 12.851562 3.765625 9.75 C 2.835938 6.65625 2.375 1.976562 2.375 -4.28125 C 2.375 -10.113281 3.003906 -16.03125 4.265625 -22.03125 C 5.523438 -28.03125 7.253906 -33 9.453125 -36.9375 C 11.660156 -40.875 14.085938 -42.84375 16.734375 -42.84375 C 18.160156 -42.84375 19.273438 -42.203125 20.078125 -40.921875 C 20.878906 -39.648438 21.28125 -37.9375 21.28125 -35.78125 C 21.28125 -28.632812 17.015625 -20.851562 8.484375 -12.4375 C 8.171875 -9.457031 8.015625 -6.847656 8.015625 -4.609375 C 8.015625 -1.472656 8.117188 1.738281 8.328125 5.03125 C 8.546875 8.332031 8.898438 9.984375 9.390625 9.984375 C 10.296875 9.984375 10.75 8.398438 10.75 5.234375 C 10.75 2.867188 10.585938 0.578125 10.265625 -1.640625 C 9.953125 -3.859375 9.523438 -6.195312 8.984375 -8.65625 C 8.953125 -9.050781 9.078125 -9.550781 9.359375 -10.15625 C 9.648438 -10.769531 10.007812 -11.300781 10.4375 -11.75 C 10.863281 -12.207031 11.242188 -12.4375 11.578125 -12.4375 C 12.179688 -12.4375 12.910156 -12.410156 13.765625 -12.359375 C 14.035156 -12.328125 14.351562 -12.3125 14.71875 -12.3125 C 15.9375 -12.3125 17.289062 -12.414062 18.78125 -12.625 C 19.019531 -12.65625 19.273438 -12.6875 19.546875 -12.71875 C 19.828125 -12.75 20.101562 -12.765625 20.375 -12.765625 Z M 15.765625 -38.328125 C 15.222656 -38.328125 14.546875 -37.398438 13.734375 -35.546875 C 12.929688 -33.691406 12.132812 -31.238281 11.34375 -28.1875 C 10.550781 -25.132812 9.867188 -21.90625 9.296875 -18.5 C 11.722656 -21.269531 13.585938 -24.148438 14.890625 -27.140625 C 16.203125 -30.128906 16.875 -32.929688 16.90625 -35.546875 C 16.90625 -37.398438 16.523438 -38.328125 15.765625 -38.328125 Z M 15.765625 -38.328125 "/></g></g></g><g fill="#ffffff" fill-opacity="1"><g transform="translate(309.014369, 54.58974)"><g><path d="M 25.4375 -14 C 25.832031 -14 26.132812 -13.800781 26.34375 -13.40625 C 26.550781 -13.007812 26.65625 -12.503906 26.65625 -11.890625 C 26.65625 -10.429688 26.21875 -9.566406 25.34375 -9.296875 C 23.519531 -8.660156 21.515625 -8.296875 19.328125 -8.203125 C 18.742188 -5.648438 17.601562 -3.601562 15.90625 -2.0625 C 14.207031 -0.53125 12.28125 0.234375 10.125 0.234375 C 8.300781 0.234375 6.742188 -0.207031 5.453125 -1.09375 C 4.160156 -1.976562 3.175781 -3.148438 2.5 -4.609375 C 1.832031 -6.066406 1.5 -7.644531 1.5 -9.34375 C 1.5 -11.65625 1.9375 -13.710938 2.8125 -15.515625 C 3.695312 -17.328125 4.914062 -18.738281 6.46875 -19.75 C 8.019531 -20.769531 9.738281 -21.28125 11.625 -21.28125 C 13.9375 -21.28125 15.796875 -20.484375 17.203125 -18.890625 C 18.617188 -17.296875 19.445312 -15.328125 19.6875 -12.984375 C 21.113281 -13.078125 22.816406 -13.382812 24.796875 -13.90625 C 25.035156 -13.96875 25.25 -14 25.4375 -14 Z M 10.484375 -4.609375 C 11.453125 -4.609375 12.289062 -5 13 -5.78125 C 13.71875 -6.570312 14.203125 -7.710938 14.453125 -9.203125 C 13.503906 -9.835938 12.78125 -10.671875 12.28125 -11.703125 C 11.78125 -12.742188 11.53125 -13.84375 11.53125 -15 C 11.53125 -15.476562 11.578125 -15.960938 11.671875 -16.453125 L 11.4375 -16.453125 C 10.21875 -16.453125 9.207031 -15.863281 8.40625 -14.6875 C 7.601562 -13.519531 7.203125 -11.875 7.203125 -9.75 C 7.203125 -8.082031 7.523438 -6.804688 8.171875 -5.921875 C 8.828125 -5.046875 9.597656 -4.609375 10.484375 -4.609375 Z M 10.484375 -4.609375 "/></g></g></g><g fill="#ffffff" fill-opacity="1"><g transform="translate(329.569648, 54.58974)"><g><path d="M 5.421875 0.234375 C 4.265625 0.234375 3.453125 -0.375 2.984375 -1.59375 C 2.515625 -2.8125 2.28125 -4.753906 2.28125 -7.421875 C 2.28125 -11.378906 2.84375 -15.132812 3.96875 -18.6875 C 4.238281 -19.570312 4.6875 -20.21875 5.3125 -20.625 C 5.9375 -21.03125 6.8125 -21.234375 7.9375 -21.234375 C 8.539062 -21.234375 8.960938 -21.15625 9.203125 -21 C 9.453125 -20.851562 9.578125 -20.566406 9.578125 -20.140625 C 9.578125 -19.660156 9.347656 -18.566406 8.890625 -16.859375 C 8.585938 -15.648438 8.34375 -14.585938 8.15625 -13.671875 C 7.976562 -12.765625 7.828125 -11.640625 7.703125 -10.296875 C 8.703125 -12.910156 9.820312 -15.035156 11.0625 -16.671875 C 12.3125 -18.316406 13.535156 -19.488281 14.734375 -20.1875 C 15.941406 -20.882812 17.046875 -21.234375 18.046875 -21.234375 C 20.023438 -21.234375 21.015625 -20.25 21.015625 -18.28125 C 21.015625 -17.882812 20.875 -16.925781 20.59375 -15.40625 C 20.351562 -14.1875 20.234375 -13.425781 20.234375 -13.125 C 20.234375 -12.0625 20.613281 -11.53125 21.375 -11.53125 C 22.226562 -11.53125 23.320312 -12.195312 24.65625 -13.53125 C 25.050781 -13.925781 25.460938 -14.125 25.890625 -14.125 C 26.285156 -14.125 26.597656 -13.945312 26.828125 -13.59375 C 27.054688 -13.25 27.171875 -12.789062 27.171875 -12.21875 C 27.171875 -11.09375 26.863281 -10.210938 26.25 -9.578125 C 25.40625 -8.691406 24.410156 -7.9375 23.265625 -7.3125 C 22.128906 -6.6875 20.921875 -6.375 19.640625 -6.375 C 18.035156 -6.375 16.8125 -6.785156 15.96875 -7.609375 C 15.132812 -8.429688 14.71875 -9.539062 14.71875 -10.9375 C 14.71875 -11.394531 14.765625 -11.851562 14.859375 -12.3125 C 14.921875 -12.914062 14.953125 -13.320312 14.953125 -13.53125 C 14.953125 -14.019531 14.785156 -14.265625 14.453125 -14.265625 C 13.992188 -14.265625 13.390625 -13.753906 12.640625 -12.734375 C 11.898438 -11.722656 11.164062 -10.378906 10.4375 -8.703125 C 9.707031 -7.035156 9.113281 -5.273438 8.65625 -3.421875 C 8.320312 -1.992188 7.9375 -1.023438 7.5 -0.515625 C 7.0625 -0.015625 6.367188 0.234375 5.421875 0.234375 Z M 5.421875 0.234375 "/></g></g></g><g fill="#ffffff" fill-opacity="1"><g transform="translate(350.30724, 54.58974)"><g><path d="M 5.421875 0.234375 C 4.265625 0.234375 3.453125 -0.375 2.984375 -1.59375 C 2.515625 -2.8125 2.28125 -4.753906 2.28125 -7.421875 C 2.28125 -11.378906 2.84375 -15.132812 3.96875 -18.6875 C 4.238281 -19.570312 4.6875 -20.21875 5.3125 -20.625 C 5.9375 -21.03125 6.8125 -21.234375 7.9375 -21.234375 C 8.539062 -21.234375 8.960938 -21.15625 9.203125 -21 C 9.453125 -20.851562 9.578125 -20.566406 9.578125 -20.140625 C 9.578125 -19.660156 9.347656 -18.566406 8.890625 -16.859375 C 8.585938 -15.648438 8.34375 -14.597656 8.15625 -13.703125 C 7.976562 -12.804688 7.828125 -11.6875 7.703125 -10.34375 C 8.523438 -12.71875 9.503906 -14.722656 10.640625 -16.359375 C 11.785156 -18.003906 12.957031 -19.226562 14.15625 -20.03125 C 15.351562 -20.832031 16.484375 -21.234375 17.546875 -21.234375 C 18.609375 -21.234375 19.359375 -20.988281 19.796875 -20.5 C 20.242188 -20.019531 20.46875 -19.28125 20.46875 -18.28125 C 20.46875 -17.300781 20.175781 -15.535156 19.59375 -12.984375 C 19.351562 -11.890625 19.1875 -11.070312 19.09375 -10.53125 C 20.613281 -14.269531 22.300781 -16.988281 24.15625 -18.6875 C 26.007812 -20.382812 27.742188 -21.234375 29.359375 -21.234375 C 31.328125 -21.234375 32.3125 -20.25 32.3125 -18.28125 C 32.3125 -17.09375 31.976562 -14.945312 31.3125 -11.84375 C 30.738281 -9.207031 30.453125 -7.460938 30.453125 -6.609375 C 30.453125 -5.390625 30.890625 -4.78125 31.765625 -4.78125 C 32.367188 -4.78125 33.085938 -5.148438 33.921875 -5.890625 C 34.765625 -6.640625 35.882812 -7.851562 37.28125 -9.53125 C 37.644531 -9.945312 38.054688 -10.15625 38.515625 -10.15625 C 38.910156 -10.15625 39.222656 -9.972656 39.453125 -9.609375 C 39.679688 -9.242188 39.796875 -8.742188 39.796875 -8.109375 C 39.796875 -6.898438 39.503906 -5.957031 38.921875 -5.28125 C 37.617188 -3.675781 36.210938 -2.351562 34.703125 -1.3125 C 33.203125 -0.28125 31.492188 0.234375 29.578125 0.234375 C 28.023438 0.234375 26.851562 -0.210938 26.0625 -1.109375 C 25.28125 -2.015625 24.890625 -3.316406 24.890625 -5.015625 C 24.890625 -5.867188 25.101562 -7.390625 25.53125 -9.578125 C 25.914062 -11.484375 26.109375 -12.800781 26.109375 -13.53125 C 26.109375 -14.019531 25.941406 -14.265625 25.609375 -14.265625 C 25.210938 -14.265625 24.648438 -13.753906 23.921875 -12.734375 C 23.191406 -11.722656 22.460938 -10.378906 21.734375 -8.703125 C 21.003906 -7.035156 20.414062 -5.273438 19.96875 -3.421875 C 19.632812 -1.960938 19.242188 -0.988281 18.796875 -0.5 C 18.359375 -0.0078125 17.65625 0.234375 16.6875 0.234375 C 15.675781 0.234375 14.921875 -0.242188 14.421875 -1.203125 C 13.921875 -2.160156 13.671875 -3.320312 13.671875 -4.6875 C 13.671875 -5.84375 13.820312 -7.515625 14.125 -9.703125 C 14.375 -11.648438 14.5 -12.925781 14.5 -13.53125 C 14.5 -14.019531 14.332031 -14.265625 14 -14.265625 C 13.539062 -14.265625 12.960938 -13.71875 12.265625 -12.625 C 11.566406 -11.53125 10.890625 -10.128906 10.234375 -8.421875 C 9.578125 -6.722656 9.050781 -5.054688 8.65625 -3.421875 C 8.320312 -1.992188 7.9375 -1.023438 7.5 -0.515625 C 7.0625 -0.015625 6.367188 0.234375 5.421875 0.234375 Z M 5.421875 0.234375 "/></g></g></g><g fill="#ffffff" fill-opacity="1"><g transform="translate(384.216632, 54.58974)"><g><path d="M 7.796875 0.234375 C 5.910156 0.234375 4.40625 -0.445312 3.28125 -1.8125 C 2.15625 -3.1875 1.59375 -4.984375 1.59375 -7.203125 C 1.59375 -9.628906 2.15625 -11.925781 3.28125 -14.09375 C 4.40625 -16.269531 5.898438 -18.019531 7.765625 -19.34375 C 9.640625 -20.664062 11.625 -21.328125 13.71875 -21.328125 C 14.382812 -21.328125 14.832031 -21.195312 15.0625 -20.9375 C 15.289062 -20.6875 15.484375 -20.222656 15.640625 -19.546875 C 16.273438 -19.671875 16.941406 -19.734375 17.640625 -19.734375 C 19.128906 -19.734375 19.875 -19.203125 19.875 -18.140625 C 19.875 -17.503906 19.644531 -15.984375 19.1875 -13.578125 C 18.488281 -10.085938 18.140625 -7.660156 18.140625 -6.296875 C 18.140625 -5.835938 18.253906 -5.46875 18.484375 -5.1875 C 18.710938 -4.914062 19.007812 -4.78125 19.375 -4.78125 C 19.945312 -4.78125 20.644531 -5.148438 21.46875 -5.890625 C 22.289062 -6.640625 23.398438 -7.851562 24.796875 -9.53125 C 25.160156 -9.945312 25.570312 -10.15625 26.03125 -10.15625 C 26.425781 -10.15625 26.734375 -9.972656 26.953125 -9.609375 C 27.179688 -9.242188 27.296875 -8.742188 27.296875 -8.109375 C 27.296875 -6.898438 27.007812 -5.957031 26.4375 -5.28125 C 25.1875 -3.738281 23.863281 -2.429688 22.46875 -1.359375 C 21.070312 -0.296875 19.71875 0.234375 18.40625 0.234375 C 17.40625 0.234375 16.488281 -0.109375 15.65625 -0.796875 C 14.820312 -1.484375 14.191406 -2.414062 13.765625 -3.59375 C 12.179688 -1.039062 10.191406 0.234375 7.796875 0.234375 Z M 9.4375 -4.375 C 10.101562 -4.375 10.738281 -4.769531 11.34375 -5.5625 C 11.957031 -6.351562 12.398438 -7.398438 12.671875 -8.703125 L 14.359375 -17.09375 C 13.078125 -17.0625 11.894531 -16.582031 10.8125 -15.65625 C 9.738281 -14.726562 8.882812 -13.503906 8.25 -11.984375 C 7.613281 -10.460938 7.296875 -8.851562 7.296875 -7.15625 C 7.296875 -6.21875 7.484375 -5.519531 7.859375 -5.0625 C 8.242188 -4.601562 8.769531 -4.375 9.4375 -4.375 Z M 9.4375 -4.375 "/></g></g></g><g fill="#ffffff" fill-opacity="1"><g transform="translate(405.637888, 54.58974)"><g><path d="M 10.890625 0.234375 C 7.910156 0.234375 5.59375 -0.609375 3.9375 -2.296875 C 2.28125 -3.984375 1.453125 -6.210938 1.453125 -8.984375 C 1.453125 -11.441406 1.9375 -13.597656 2.90625 -15.453125 C 3.882812 -17.304688 5.148438 -18.734375 6.703125 -19.734375 C 8.253906 -20.734375 9.878906 -21.234375 11.578125 -21.234375 C 13.242188 -21.234375 14.539062 -20.738281 15.46875 -19.75 C 16.394531 -18.769531 16.859375 -17.503906 16.859375 -15.953125 C 16.859375 -14.671875 16.578125 -13.585938 16.015625 -12.703125 C 15.453125 -11.828125 14.71875 -11.390625 13.8125 -11.390625 C 13.226562 -11.390625 12.757812 -11.523438 12.40625 -11.796875 C 12.0625 -12.078125 11.890625 -12.457031 11.890625 -12.9375 C 11.890625 -13.15625 11.921875 -13.398438 11.984375 -13.671875 C 12.046875 -13.941406 12.09375 -14.140625 12.125 -14.265625 C 12.28125 -14.722656 12.359375 -15.148438 12.359375 -15.546875 C 12.359375 -15.941406 12.257812 -16.242188 12.0625 -16.453125 C 11.863281 -16.660156 11.582031 -16.765625 11.21875 -16.765625 C 10.507812 -16.765625 9.851562 -16.453125 9.25 -15.828125 C 8.644531 -15.210938 8.160156 -14.375 7.796875 -13.3125 C 7.429688 -12.25 7.25 -11.078125 7.25 -9.796875 C 7.25 -6.273438 8.78125 -4.515625 11.84375 -4.515625 C 13.09375 -4.515625 14.4375 -4.929688 15.875 -5.765625 C 17.320312 -6.597656 18.742188 -7.851562 20.140625 -9.53125 C 20.503906 -9.945312 20.914062 -10.15625 21.375 -10.15625 C 21.769531 -10.15625 22.082031 -9.972656 22.3125 -9.609375 C 22.539062 -9.242188 22.65625 -8.742188 22.65625 -8.109375 C 22.65625 -6.953125 22.363281 -6.007812 21.78125 -5.28125 C 20.351562 -3.519531 18.644531 -2.160156 16.65625 -1.203125 C 14.664062 -0.242188 12.742188 0.234375 10.890625 0.234375 Z M 7.25 11.390625 C 6.09375 11.390625 5.148438 11.316406 4.421875 11.171875 C 3.234375 10.953125 2.640625 10.28125 2.640625 9.15625 C 2.640625 7.789062 3.25 7.109375 4.46875 7.109375 C 4.707031 7.109375 4.90625 7.125 5.0625 7.15625 C 5.875 7.28125 6.675781 7.34375 7.46875 7.34375 C 8.6875 7.34375 9.632812 7.085938 10.3125 6.578125 C 11 6.078125 11.34375 5.3125 11.34375 4.28125 C 11.34375 3.519531 11.015625 2.921875 10.359375 2.484375 C 9.710938 2.046875 8.828125 1.828125 7.703125 1.828125 C 6.910156 1.828125 6.300781 1.71875 5.875 1.5 C 5.445312 1.289062 5.234375 0.925781 5.234375 0.40625 C 5.234375 0.226562 5.25 0.09375 5.28125 0 C 5.40625 -0.601562 5.648438 -1.050781 6.015625 -1.34375 C 6.378906 -1.632812 6.941406 -1.78125 7.703125 -1.78125 L 8.890625 -1.78125 C 10.984375 -1.78125 12.648438 -1.273438 13.890625 -0.265625 C 15.140625 0.734375 15.765625 2.128906 15.765625 3.921875 C 15.765625 5.347656 15.421875 6.628906 14.734375 7.765625 C 14.054688 8.910156 13.070312 9.800781 11.78125 10.4375 C 10.488281 11.070312 8.976562 11.390625 7.25 11.390625 Z M 7.25 11.390625 "/></g></g></g><g fill="#ffffff" fill-opacity="1"><g transform="translate(422.410289, 54.58974)"><g><path d="M 25.4375 -14 C 25.832031 -14 26.132812 -13.800781 26.34375 -13.40625 C 26.550781 -13.007812 26.65625 -12.503906 26.65625 -11.890625 C 26.65625 -10.429688 26.21875 -9.566406 25.34375 -9.296875 C 23.519531 -8.660156 21.515625 -8.296875 19.328125 -8.203125 C 18.742188 -5.648438 17.601562 -3.601562 15.90625 -2.0625 C 14.207031 -0.53125 12.28125 0.234375 10.125 0.234375 C 8.300781 0.234375 6.742188 -0.207031 5.453125 -1.09375 C 4.160156 -1.976562 3.175781 -3.148438 2.5 -4.609375 C 1.832031 -6.066406 1.5 -7.644531 1.5 -9.34375 C 1.5 -11.65625 1.9375 -13.710938 2.8125 -15.515625 C 3.695312 -17.328125 4.914062 -18.738281 6.46875 -19.75 C 8.019531 -20.769531 9.738281 -21.28125 11.625 -21.28125 C 13.9375 -21.28125 15.796875 -20.484375 17.203125 -18.890625 C 18.617188 -17.296875 19.445312 -15.328125 19.6875 -12.984375 C 21.113281 -13.078125 22.816406 -13.382812 24.796875 -13.90625 C 25.035156 -13.96875 25.25 -14 25.4375 -14 Z M 10.484375 -4.609375 C 11.453125 -4.609375 12.289062 -5 13 -5.78125 C 13.71875 -6.570312 14.203125 -7.710938 14.453125 -9.203125 C 13.503906 -9.835938 12.78125 -10.671875 12.28125 -11.703125 C 11.78125 -12.742188 11.53125 -13.84375 11.53125 -15 C 11.53125 -15.476562 11.578125 -15.960938 11.671875 -16.453125 L 11.4375 -16.453125 C 10.21875 -16.453125 9.207031 -15.863281 8.40625 -14.6875 C 7.601562 -13.519531 7.203125 -11.875 7.203125 -9.75 C 7.203125 -8.082031 7.523438 -6.804688 8.171875 -5.921875 C 8.828125 -5.046875 9.597656 -4.609375 10.484375 -4.609375 Z M 16.578125 -24.25 C 16.097656 -24.25 15.644531 -24.332031 15.21875 -24.5 C 14.789062 -24.664062 14.242188 -24.976562 13.578125 -25.4375 L 8.703125 -28.8125 L 6.6875 -25.9375 C 6.207031 -25.269531 5.523438 -24.9375 4.640625 -24.9375 C 4.097656 -24.9375 3.632812 -25.09375 3.25 -25.40625 C 2.875 -25.726562 2.6875 -26.160156 2.6875 -26.703125 C 2.6875 -27.398438 3.25 -28.570312 4.375 -30.21875 C 5.070312 -31.21875 5.753906 -31.953125 6.421875 -32.421875 C 7.085938 -32.898438 7.816406 -33.140625 8.609375 -33.140625 C 9.117188 -33.140625 9.578125 -33.0625 9.984375 -32.90625 C 10.398438 -32.75 10.941406 -32.429688 11.609375 -31.953125 L 16.5 -28.578125 L 18.5 -31.453125 C 18.988281 -32.117188 19.671875 -32.453125 20.546875 -32.453125 C 21.097656 -32.453125 21.5625 -32.289062 21.9375 -31.96875 C 22.320312 -31.65625 22.515625 -31.222656 22.515625 -30.671875 C 22.515625 -30.242188 22.367188 -29.765625 22.078125 -29.234375 C 21.785156 -28.703125 21.367188 -28.015625 20.828125 -27.171875 C 20.128906 -26.160156 19.441406 -25.421875 18.765625 -24.953125 C 18.097656 -24.484375 17.367188 -24.25 16.578125 -24.25 Z M 16.578125 -24.25 "/></g></g></g><g fill="#ffffff" fill-opacity="1"><g transform="translate(442.965568, 54.58974)"><g><path d="M 22.515625 -10.15625 C 22.910156 -10.15625 23.222656 -9.972656 23.453125 -9.609375 C 23.679688 -9.242188 23.796875 -8.742188 23.796875 -8.109375 C 23.796875 -6.898438 23.503906 -5.957031 22.921875 -5.28125 C 21.796875 -3.914062 20.207031 -2.65625 18.15625 -1.5 C 16.113281 -0.34375 13.921875 0.234375 11.578125 0.234375 C 8.390625 0.234375 5.910156 -0.628906 4.140625 -2.359375 C 2.378906 -4.097656 1.5 -6.472656 1.5 -9.484375 C 1.5 -11.578125 1.9375 -13.523438 2.8125 -15.328125 C 3.695312 -17.140625 4.921875 -18.578125 6.484375 -19.640625 C 8.054688 -20.703125 9.832031 -21.234375 11.8125 -21.234375 C 13.570312 -21.234375 14.984375 -20.707031 16.046875 -19.65625 C 17.109375 -18.613281 17.640625 -17.195312 17.640625 -15.40625 C 17.640625 -13.3125 16.882812 -11.507812 15.375 -10 C 13.875 -8.5 11.332031 -7.304688 7.75 -6.421875 C 8.507812 -5.023438 9.953125 -4.328125 12.078125 -4.328125 C 13.441406 -4.328125 15 -4.804688 16.75 -5.765625 C 18.5 -6.722656 20.007812 -7.976562 21.28125 -9.53125 C 21.644531 -9.945312 22.054688 -10.15625 22.515625 -10.15625 Z M 11.03125 -16.765625 C 9.90625 -16.765625 8.953125 -16.113281 8.171875 -14.8125 C 7.398438 -13.507812 7.015625 -11.929688 7.015625 -10.078125 L 7.015625 -9.984375 C 8.804688 -10.410156 10.21875 -11.046875 11.25 -11.890625 C 12.289062 -12.742188 12.8125 -13.734375 12.8125 -14.859375 C 12.8125 -15.429688 12.648438 -15.890625 12.328125 -16.234375 C 12.003906 -16.585938 11.570312 -16.765625 11.03125 -16.765625 Z M 11.03125 -16.765625 "/></g></g></g><g fill="#ffffff" fill-opacity="1"><g transform="translate(460.877363, 54.58974)"><g><path d="M 10.671875 1.234375 C 9.085938 1.234375 7.875 0.867188 7.03125 0.140625 C 6.195312 -0.585938 5.78125 -1.410156 5.78125 -2.328125 C 5.78125 -3.117188 6.066406 -3.800781 6.640625 -4.375 C 7.222656 -4.945312 8.078125 -5.234375 9.203125 -5.234375 C 9.597656 -5.234375 10.0625 -5.195312 10.59375 -5.125 C 11.125 -5.050781 11.53125 -5 11.8125 -4.96875 C 11.78125 -5.757812 11.601562 -6.503906 11.28125 -7.203125 C 10.957031 -7.898438 10.550781 -8.570312 10.0625 -9.21875 C 9.582031 -9.875 9.128906 -10.445312 8.703125 -10.9375 C 7.765625 -9.144531 6.832031 -7.65625 5.90625 -6.46875 C 4.976562 -5.28125 3.96875 -4.15625 2.875 -3.09375 C 2.320312 -2.550781 1.742188 -2.28125 1.140625 -2.28125 C 0.648438 -2.28125 0.253906 -2.453125 -0.046875 -2.796875 C -0.347656 -3.148438 -0.5 -3.585938 -0.5 -4.109375 C -0.5 -4.710938 -0.285156 -5.269531 0.140625 -5.78125 L 0.734375 -6.515625 C 2.398438 -8.578125 3.660156 -10.28125 4.515625 -11.625 C 5.023438 -12.5 5.628906 -13.671875 6.328125 -15.140625 C 7.035156 -16.617188 7.722656 -18.148438 8.390625 -19.734375 C 8.960938 -21.066406 10.160156 -21.734375 11.984375 -21.734375 C 12.835938 -21.734375 13.429688 -21.65625 13.765625 -21.5 C 14.097656 -21.351562 14.265625 -21.113281 14.265625 -20.78125 C 14.265625 -20.601562 14.203125 -20.316406 14.078125 -19.921875 C 13.960938 -19.523438 13.796875 -19.128906 13.578125 -18.734375 C 13.035156 -17.640625 12.765625 -16.710938 12.765625 -15.953125 C 12.765625 -15.492188 12.921875 -14.988281 13.234375 -14.4375 C 13.554688 -13.894531 14.050781 -13.210938 14.71875 -12.390625 C 15.695312 -11.117188 16.4375 -10.035156 16.9375 -9.140625 C 17.4375 -8.242188 17.6875 -7.265625 17.6875 -6.203125 C 17.6875 -5.898438 17.65625 -5.472656 17.59375 -4.921875 C 19.082031 -5.492188 20.828125 -7.03125 22.828125 -9.53125 C 23.191406 -9.945312 23.601562 -10.15625 24.0625 -10.15625 C 24.457031 -10.15625 24.769531 -9.972656 25 -9.609375 C 25.226562 -9.242188 25.34375 -8.742188 25.34375 -8.109375 C 25.34375 -6.953125 25.050781 -6.007812 24.46875 -5.28125 C 22.957031 -3.40625 21.507812 -2.125 20.125 -1.4375 C 18.738281 -0.75 17.03125 -0.375 15 -0.3125 C 13.78125 0.71875 12.335938 1.234375 10.671875 1.234375 Z M 10.671875 1.234375 "/></g></g></g><g clip-path="url(#id2)"><path fill="#ffffff" d="M 99.152344 19.511719 L 95.441406 15.785156 C 95.058594 15.398438 94.550781 15.207031 94.050781 15.207031 C 93.546875 15.207031 93.042969 15.398438 92.660156 15.785156 L 89.6875 18.757812 L 96.183594 25.273438 L 99.152344 22.296875 C 99.921875 21.527344 99.921875 20.277344 99.152344 19.511719 Z M 99.152344 19.511719 " fill-opacity="1" fill-rule="nonzero"/></g><path fill="#ffffff" d="M 70.40625 38.089844 L 76.902344 44.605469 L 94.792969 26.667969 L 88.296875 20.152344 Z M 70.40625 38.089844 " fill-opacity="1" fill-rule="nonzero"/><path fill="#ffffff" d="M 69.003906 39.484375 L 67.617188 47.386719 L 75.5 45.996094 Z M 69.003906 39.484375 " fill-opacity="1" fill-rule="nonzero"/><g clip-path="url(#id3)"><path fill="#ffffff" d="M 86.960938 50.90625 L 62.46875 50.90625 L 62.46875 26.308594 L 79.753906 26.308594 L 84.011719 22.039062 L 60.96875 22.039062 C 59.457031 22.039062 58.21875 23.28125 58.21875 24.800781 L 58.21875 52.414062 C 58.21875 53.933594 59.457031 55.175781 60.96875 55.175781 L 88.460938 55.175781 C 89.972656 55.175781 91.210938 53.933594 91.210938 52.414062 L 91.210938 32.671875 L 86.960938 36.933594 Z M 86.960938 50.90625 " fill-opacity="1" fill-rule="nonzero"/></g></svg>