<svg xmlns="http://www.w3.org/2000/svg" xmlns:xlink="http://www.w3.org/1999/xlink" width="718" zoomAndPan="magnify" viewBox="0 0 538.5 70.499998" height="94" preserveAspectRatio="xMidYMid meet" version="1.0"><defs><g/><clipPath id="id1"><path d="M 1.648438 0 L 536.355469 0 L 536.355469 70.003906 L 1.648438 70.003906 Z M 1.648438 0 " clip-rule="nonzero"/></clipPath><clipPath id="id2"><path d="M 61 18 L 103.878906 18 L 103.878906 54 L 61 54 Z M 61 18 " clip-rule="nonzero"/></clipPath></defs><g clip-path="url(#id1)"><path fill="#82d2ff" d="M 17.308594 0 L 521.191406 0 C 525.339844 0 529.324219 1.640625 532.257812 4.5625 C 535.191406 7.480469 536.839844 11.441406 536.839844 15.574219 L 536.839844 54.496094 C 536.839844 58.625 535.191406 62.585938 532.257812 65.507812 C 529.324219 68.429688 525.339844 70.070312 521.191406 70.070312 L 17.308594 70.070312 C 13.15625 70.070312 9.175781 68.429688 6.242188 65.507812 C 3.308594 62.585938 1.660156 58.625 1.660156 54.496094 L 1.660156 15.574219 C 1.660156 11.441406 3.308594 7.480469 6.242188 4.5625 C 9.175781 1.640625 13.15625 0 17.308594 0 " fill-opacity="1" fill-rule="nonzero"/></g><g fill="#ffffff" fill-opacity="1"><g transform="translate(112.488379, 54.695857)"><g><path d="M 40.53125 -37.890625 C 41.382812 -37.765625 41.972656 -37.503906 42.296875 -37.109375 C 42.617188 -36.710938 42.78125 -36.195312 42.78125 -35.5625 C 42.78125 -33.457031 41.648438 -32.476562 39.390625 -32.625 L 37.796875 -32.765625 C 35.992188 -32.921875 34.203125 -33.039062 32.421875 -33.125 C 30.640625 -33.21875 28.773438 -33.265625 26.828125 -33.265625 L 24.765625 -33.265625 C 24.398438 -28.765625 24.019531 -24.65625 23.625 -20.9375 L 31.484375 -21.0625 C 32.617188 -21.0625 33.375 -20.863281 33.75 -20.46875 C 34.132812 -20.070312 34.328125 -19.539062 34.328125 -18.875 C 34.328125 -17.84375 34.019531 -17.03125 33.40625 -16.4375 C 32.800781 -15.84375 31.929688 -15.546875 30.796875 -15.546875 L 22.984375 -15.546875 L 22.71875 -13.578125 C 22.070312 -8.546875 20.707031 -4.960938 18.625 -2.828125 C 16.539062 -0.703125 13.671875 0.359375 10.015625 0.359375 C 7.941406 0.359375 6.035156 -0.0859375 4.296875 -0.984375 C 2.554688 -1.878906 1.273438 -2.96875 0.453125 -4.25 C 0.117188 -4.769531 -0.046875 -5.394531 -0.046875 -6.125 C -0.046875 -6.851562 0.125 -7.488281 0.46875 -8.03125 C 0.820312 -8.582031 1.257812 -8.859375 1.78125 -8.859375 C 2.144531 -8.859375 2.5 -8.738281 2.84375 -8.5 C 3.195312 -8.257812 3.648438 -7.785156 4.203125 -7.078125 C 5.671875 -5.160156 7.484375 -4.203125 9.640625 -4.203125 C 11.378906 -4.203125 12.832031 -4.910156 14 -6.328125 C 15.175781 -7.742188 15.929688 -9.976562 16.265625 -13.03125 L 16.546875 -15.546875 L 14.34375 -15.546875 C 13.644531 -15.546875 13.046875 -15.742188 12.546875 -16.140625 C 12.046875 -16.535156 11.796875 -17.097656 11.796875 -17.828125 C 11.796875 -18.765625 12.035156 -19.484375 12.515625 -19.984375 C 13.003906 -20.492188 13.722656 -20.75 14.671875 -20.75 C 15.523438 -20.75 16.363281 -20.765625 17.1875 -20.796875 C 17.550781 -24.148438 17.945312 -28.21875 18.375 -33 C 15.082031 -32.695312 12.765625 -32.160156 11.421875 -31.390625 C 10.085938 -30.628906 9.421875 -29.503906 9.421875 -28.015625 C 9.421875 -26.984375 9.722656 -25.992188 10.328125 -25.046875 C 10.515625 -24.773438 10.609375 -24.5 10.609375 -24.21875 C 10.609375 -23.675781 10.300781 -23.195312 9.6875 -22.78125 C 9.082031 -22.375 8.394531 -22.171875 7.625 -22.171875 C 6.8125 -22.171875 6.113281 -22.410156 5.53125 -22.890625 C 5.164062 -23.203125 4.8125 -23.828125 4.46875 -24.765625 C 4.132812 -25.710938 3.96875 -26.765625 3.96875 -27.921875 C 3.96875 -31.703125 5.910156 -34.441406 9.796875 -36.140625 C 13.679688 -37.847656 19.359375 -38.703125 26.828125 -38.703125 C 32.003906 -38.703125 36.570312 -38.429688 40.53125 -37.890625 Z M 40.53125 -37.890625 "/></g></g></g><g fill="#ffffff" fill-opacity="1"><g transform="translate(145.022298, 54.695857)"><g><path d="M 8.1875 -24.3125 C 6.90625 -24.3125 5.941406 -24.609375 5.296875 -25.203125 C 4.660156 -25.796875 4.34375 -26.628906 4.34375 -27.703125 C 4.34375 -28.765625 4.757812 -29.648438 5.59375 -30.359375 C 6.4375 -31.078125 7.484375 -31.4375 8.734375 -31.4375 C 9.859375 -31.4375 10.769531 -31.160156 11.46875 -30.609375 C 12.164062 -30.066406 12.515625 -29.296875 12.515625 -28.296875 C 12.515625 -27.078125 12.117188 -26.109375 11.328125 -25.390625 C 10.535156 -24.671875 9.488281 -24.3125 8.1875 -24.3125 Z M 7.8125 0.234375 C 5.832031 0.234375 4.390625 -0.460938 3.484375 -1.859375 C 2.585938 -3.265625 2.140625 -5.128906 2.140625 -7.453125 C 2.140625 -8.816406 2.316406 -10.570312 2.671875 -12.71875 C 3.023438 -14.875 3.472656 -16.878906 4.015625 -18.734375 C 4.296875 -19.710938 4.660156 -20.382812 5.109375 -20.75 C 5.566406 -21.113281 6.300781 -21.296875 7.3125 -21.296875 C 8.863281 -21.296875 9.640625 -20.78125 9.640625 -19.75 C 9.640625 -18.976562 9.351562 -17.207031 8.78125 -14.4375 C 8.039062 -11.09375 7.671875 -8.820312 7.671875 -7.625 C 7.671875 -6.71875 7.789062 -6.019531 8.03125 -5.53125 C 8.28125 -5.039062 8.695312 -4.796875 9.28125 -4.796875 C 9.820312 -4.796875 10.503906 -5.175781 11.328125 -5.9375 C 12.148438 -6.695312 13.25 -7.898438 14.625 -9.546875 C 14.988281 -9.972656 15.398438 -10.1875 15.859375 -10.1875 C 16.253906 -10.1875 16.566406 -10.003906 16.796875 -9.640625 C 17.023438 -9.273438 17.140625 -8.773438 17.140625 -8.140625 C 17.140625 -6.921875 16.847656 -5.972656 16.265625 -5.296875 C 13.253906 -1.609375 10.4375 0.234375 7.8125 0.234375 Z M 7.8125 0.234375 "/></g></g></g><g fill="#ffffff" fill-opacity="1"><g transform="translate(156.262964, 54.695857)"><g><path d="M 5.4375 0.234375 C 4.28125 0.234375 3.460938 -0.375 2.984375 -1.59375 C 2.515625 -2.8125 2.28125 -4.765625 2.28125 -7.453125 C 2.28125 -11.410156 2.84375 -15.171875 3.96875 -18.734375 C 4.25 -19.617188 4.703125 -20.265625 5.328125 -20.671875 C 5.953125 -21.085938 6.828125 -21.296875 7.953125 -21.296875 C 8.554688 -21.296875 8.976562 -21.21875 9.21875 -21.0625 C 9.46875 -20.914062 9.59375 -20.628906 9.59375 -20.203125 C 9.59375 -19.710938 9.363281 -18.613281 8.90625 -16.90625 C 8.601562 -15.6875 8.359375 -14.617188 8.171875 -13.703125 C 7.992188 -12.796875 7.84375 -11.671875 7.71875 -10.328125 C 8.726562 -12.953125 9.859375 -15.085938 11.109375 -16.734375 C 12.359375 -18.378906 13.582031 -19.550781 14.78125 -20.25 C 15.988281 -20.945312 17.09375 -21.296875 18.09375 -21.296875 C 20.070312 -21.296875 21.0625 -20.304688 21.0625 -18.328125 C 21.0625 -17.140625 20.726562 -14.992188 20.0625 -11.890625 C 19.488281 -9.234375 19.203125 -7.476562 19.203125 -6.625 C 19.203125 -5.40625 19.640625 -4.796875 20.515625 -4.796875 C 21.128906 -4.796875 21.851562 -5.164062 22.6875 -5.90625 C 23.53125 -6.65625 24.648438 -7.867188 26.046875 -9.546875 C 26.410156 -9.972656 26.820312 -10.1875 27.28125 -10.1875 C 27.675781 -10.1875 27.988281 -10.003906 28.21875 -9.640625 C 28.445312 -9.273438 28.5625 -8.773438 28.5625 -8.140625 C 28.5625 -6.921875 28.273438 -5.972656 27.703125 -5.296875 C 26.390625 -3.679688 24.976562 -2.351562 23.46875 -1.3125 C 21.957031 -0.28125 20.242188 0.234375 18.328125 0.234375 C 16.773438 0.234375 15.601562 -0.210938 14.8125 -1.109375 C 14.019531 -2.015625 13.625 -3.320312 13.625 -5.03125 C 13.625 -5.882812 13.835938 -7.40625 14.265625 -9.59375 C 14.660156 -11.519531 14.859375 -12.847656 14.859375 -13.578125 C 14.859375 -14.066406 14.6875 -14.3125 14.34375 -14.3125 C 13.945312 -14.3125 13.390625 -13.800781 12.671875 -12.78125 C 11.960938 -11.757812 11.234375 -10.410156 10.484375 -8.734375 C 9.742188 -7.054688 9.144531 -5.285156 8.6875 -3.421875 C 8.351562 -1.992188 7.960938 -1.023438 7.515625 -0.515625 C 7.078125 -0.015625 6.382812 0.234375 5.4375 0.234375 Z M 5.4375 0.234375 "/></g></g></g><g fill="#ffffff" fill-opacity="1"><g transform="translate(178.927042, 54.695857)"><g><path d="M 7.8125 0.234375 C 5.925781 0.234375 4.414062 -0.453125 3.28125 -1.828125 C 2.15625 -3.203125 1.59375 -5 1.59375 -7.21875 C 1.59375 -9.65625 2.15625 -11.960938 3.28125 -14.140625 C 4.414062 -16.316406 5.921875 -18.066406 7.796875 -19.390625 C 9.671875 -20.722656 11.65625 -21.390625 13.75 -21.390625 C 14.425781 -21.390625 14.878906 -21.257812 15.109375 -21 C 15.335938 -20.738281 15.523438 -20.273438 15.671875 -19.609375 C 16.316406 -19.734375 16.988281 -19.796875 17.6875 -19.796875 C 19.175781 -19.796875 19.921875 -19.257812 19.921875 -18.1875 C 19.921875 -17.550781 19.691406 -16.03125 19.234375 -13.625 C 18.535156 -10.113281 18.1875 -7.675781 18.1875 -6.3125 C 18.1875 -5.851562 18.300781 -5.484375 18.53125 -5.203125 C 18.757812 -4.929688 19.054688 -4.796875 19.421875 -4.796875 C 20.003906 -4.796875 20.707031 -5.164062 21.53125 -5.90625 C 22.351562 -6.65625 23.460938 -7.867188 24.859375 -9.546875 C 25.222656 -9.972656 25.632812 -10.1875 26.09375 -10.1875 C 26.488281 -10.1875 26.800781 -10.003906 27.03125 -9.640625 C 27.257812 -9.273438 27.375 -8.773438 27.375 -8.140625 C 27.375 -6.921875 27.085938 -5.972656 26.515625 -5.296875 C 25.265625 -3.742188 23.9375 -2.429688 22.53125 -1.359375 C 21.125 -0.296875 19.769531 0.234375 18.46875 0.234375 C 17.457031 0.234375 16.53125 -0.109375 15.6875 -0.796875 C 14.851562 -1.484375 14.222656 -2.421875 13.796875 -3.609375 C 12.210938 -1.046875 10.21875 0.234375 7.8125 0.234375 Z M 9.453125 -4.390625 C 10.128906 -4.390625 10.769531 -4.785156 11.375 -5.578125 C 11.988281 -6.367188 12.429688 -7.421875 12.703125 -8.734375 L 14.390625 -17.140625 C 13.117188 -17.109375 11.941406 -16.628906 10.859375 -15.703125 C 9.773438 -14.773438 8.910156 -13.546875 8.265625 -12.015625 C 7.628906 -10.492188 7.3125 -8.878906 7.3125 -7.171875 C 7.3125 -6.234375 7.5 -5.535156 7.875 -5.078125 C 8.257812 -4.617188 8.785156 -4.390625 9.453125 -4.390625 Z M 9.453125 -4.390625 "/></g></g></g><g fill="#ffffff" fill-opacity="1"><g transform="translate(200.403089, 54.695857)"><g><path d="M 19.515625 -10.1875 C 19.910156 -10.1875 20.222656 -10.003906 20.453125 -9.640625 C 20.679688 -9.273438 20.796875 -8.773438 20.796875 -8.140625 C 20.796875 -6.921875 20.503906 -5.972656 19.921875 -5.296875 C 18.617188 -3.679688 17.195312 -2.351562 15.65625 -1.3125 C 14.113281 -0.28125 12.367188 0.234375 10.421875 0.234375 C 7.742188 0.234375 5.753906 -0.984375 4.453125 -3.421875 C 3.160156 -5.859375 2.515625 -9.015625 2.515625 -12.890625 C 2.515625 -16.609375 2.992188 -20.84375 3.953125 -25.59375 C 4.910156 -30.34375 6.328125 -34.425781 8.203125 -37.84375 C 10.078125 -41.257812 12.3125 -42.96875 14.90625 -42.96875 C 16.363281 -42.96875 17.507812 -42.285156 18.34375 -40.921875 C 19.1875 -39.566406 19.609375 -37.625 19.609375 -35.09375 C 19.609375 -31.46875 18.601562 -27.265625 16.59375 -22.484375 C 14.582031 -17.703125 11.851562 -12.960938 8.40625 -8.265625 C 8.625 -7.023438 8.972656 -6.132812 9.453125 -5.59375 C 9.941406 -5.0625 10.582031 -4.796875 11.375 -4.796875 C 12.625 -4.796875 13.722656 -5.15625 14.671875 -5.875 C 15.617188 -6.59375 16.820312 -7.816406 18.28125 -9.546875 C 18.644531 -9.972656 19.054688 -10.1875 19.515625 -10.1875 Z M 13.890625 -38.4375 C 13.191406 -38.4375 12.398438 -37.171875 11.515625 -34.640625 C 10.628906 -32.109375 9.851562 -28.96875 9.1875 -25.21875 C 8.519531 -21.476562 8.15625 -17.882812 8.09375 -14.4375 C 10.25 -18.007812 11.96875 -21.582031 13.25 -25.15625 C 14.53125 -28.738281 15.171875 -32.007812 15.171875 -34.96875 C 15.171875 -37.28125 14.742188 -38.4375 13.890625 -38.4375 Z M 13.890625 -38.4375 "/></g></g></g><g fill="#ffffff" fill-opacity="1"><g transform="translate(215.299235, 54.695857)"><g><path d="M 8.1875 -24.3125 C 6.90625 -24.3125 5.941406 -24.609375 5.296875 -25.203125 C 4.660156 -25.796875 4.34375 -26.628906 4.34375 -27.703125 C 4.34375 -28.765625 4.757812 -29.648438 5.59375 -30.359375 C 6.4375 -31.078125 7.484375 -31.4375 8.734375 -31.4375 C 9.859375 -31.4375 10.769531 -31.160156 11.46875 -30.609375 C 12.164062 -30.066406 12.515625 -29.296875 12.515625 -28.296875 C 12.515625 -27.078125 12.117188 -26.109375 11.328125 -25.390625 C 10.535156 -24.671875 9.488281 -24.3125 8.1875 -24.3125 Z M 7.8125 0.234375 C 5.832031 0.234375 4.390625 -0.460938 3.484375 -1.859375 C 2.585938 -3.265625 2.140625 -5.128906 2.140625 -7.453125 C 2.140625 -8.816406 2.316406 -10.570312 2.671875 -12.71875 C 3.023438 -14.875 3.472656 -16.878906 4.015625 -18.734375 C 4.296875 -19.710938 4.660156 -20.382812 5.109375 -20.75 C 5.566406 -21.113281 6.300781 -21.296875 7.3125 -21.296875 C 8.863281 -21.296875 9.640625 -20.78125 9.640625 -19.75 C 9.640625 -18.976562 9.351562 -17.207031 8.78125 -14.4375 C 8.039062 -11.09375 7.671875 -8.820312 7.671875 -7.625 C 7.671875 -6.71875 7.789062 -6.019531 8.03125 -5.53125 C 8.28125 -5.039062 8.695312 -4.796875 9.28125 -4.796875 C 9.820312 -4.796875 10.503906 -5.175781 11.328125 -5.9375 C 12.148438 -6.695312 13.25 -7.898438 14.625 -9.546875 C 14.988281 -9.972656 15.398438 -10.1875 15.859375 -10.1875 C 16.253906 -10.1875 16.566406 -10.003906 16.796875 -9.640625 C 17.023438 -9.273438 17.140625 -8.773438 17.140625 -8.140625 C 17.140625 -6.921875 16.847656 -5.972656 16.265625 -5.296875 C 13.253906 -1.609375 10.4375 0.234375 7.8125 0.234375 Z M 7.8125 0.234375 "/></g></g></g><g fill="#ffffff" fill-opacity="1"><g transform="translate(226.539901, 54.695857)"><g><path d="M 25 -10.1875 C 25.394531 -10.1875 25.707031 -10.003906 25.9375 -9.640625 C 26.164062 -9.273438 26.28125 -8.773438 26.28125 -8.140625 C 26.28125 -7.003906 25.988281 -6.054688 25.40625 -5.296875 C 23.976562 -3.441406 22.203125 -1.976562 20.078125 -0.90625 C 17.960938 0.15625 15.582031 0.6875 12.9375 0.6875 C 10.863281 0.6875 9.0625 0.375 7.53125 -0.25 C 6.007812 -0.875 4.84375 -1.726562 4.03125 -2.8125 C 3.226562 -3.894531 2.828125 -5.101562 2.828125 -6.4375 C 2.828125 -8.445312 3.632812 -10.226562 5.25 -11.78125 C 6.863281 -13.34375 9.179688 -14.835938 12.203125 -16.265625 L 4.703125 -16.09375 C 4.035156 -16.0625 3.523438 -16.296875 3.171875 -16.796875 C 2.828125 -17.296875 2.65625 -17.894531 2.65625 -18.59375 C 2.65625 -19.332031 2.828125 -19.984375 3.171875 -20.546875 C 3.523438 -21.109375 4.003906 -21.390625 4.609375 -21.390625 C 6.015625 -21.390625 7.890625 -21.28125 10.234375 -21.0625 C 10.722656 -21.039062 11.613281 -20.984375 12.90625 -20.890625 C 14.207031 -20.796875 15.296875 -20.75 16.171875 -20.75 C 16.484375 -20.75 17.066406 -20.867188 17.921875 -21.109375 C 18.066406 -21.140625 18.359375 -21.21875 18.796875 -21.34375 C 19.242188 -21.46875 19.617188 -21.53125 19.921875 -21.53125 C 20.410156 -21.53125 20.816406 -21.316406 21.140625 -20.890625 C 21.460938 -20.460938 21.625 -19.804688 21.625 -18.921875 C 21.625 -17.941406 21.394531 -17.175781 20.9375 -16.625 C 20.476562 -16.082031 19.757812 -15.597656 18.78125 -15.171875 C 16.007812 -13.984375 13.707031 -12.710938 11.875 -11.359375 C 10.050781 -10.003906 9.140625 -8.65625 9.140625 -7.3125 C 9.140625 -6.457031 9.535156 -5.753906 10.328125 -5.203125 C 11.117188 -4.660156 12.289062 -4.390625 13.84375 -4.390625 C 15.550781 -4.390625 17.28125 -4.816406 19.03125 -5.671875 C 20.78125 -6.523438 22.359375 -7.816406 23.765625 -9.546875 C 24.128906 -9.972656 24.539062 -10.1875 25 -10.1875 Z M 25 -10.1875 "/></g></g></g><g fill="#ffffff" fill-opacity="1"><g transform="translate(246.873609, 54.695857)"><g><path d="M 7.8125 0.234375 C 5.925781 0.234375 4.414062 -0.453125 3.28125 -1.828125 C 2.15625 -3.203125 1.59375 -5 1.59375 -7.21875 C 1.59375 -9.65625 2.15625 -11.960938 3.28125 -14.140625 C 4.414062 -16.316406 5.921875 -18.066406 7.796875 -19.390625 C 9.671875 -20.722656 11.65625 -21.390625 13.75 -21.390625 C 14.425781 -21.390625 14.878906 -21.257812 15.109375 -21 C 15.335938 -20.738281 15.523438 -20.273438 15.671875 -19.609375 C 16.316406 -19.734375 16.988281 -19.796875 17.6875 -19.796875 C 19.175781 -19.796875 19.921875 -19.257812 19.921875 -18.1875 C 19.921875 -17.550781 19.691406 -16.03125 19.234375 -13.625 C 18.535156 -10.113281 18.1875 -7.675781 18.1875 -6.3125 C 18.1875 -5.851562 18.300781 -5.484375 18.53125 -5.203125 C 18.757812 -4.929688 19.054688 -4.796875 19.421875 -4.796875 C 20.003906 -4.796875 20.707031 -5.164062 21.53125 -5.90625 C 22.351562 -6.65625 23.460938 -7.867188 24.859375 -9.546875 C 25.222656 -9.972656 25.632812 -10.1875 26.09375 -10.1875 C 26.488281 -10.1875 26.800781 -10.003906 27.03125 -9.640625 C 27.257812 -9.273438 27.375 -8.773438 27.375 -8.140625 C 27.375 -6.921875 27.085938 -5.972656 26.515625 -5.296875 C 25.265625 -3.742188 23.9375 -2.429688 22.53125 -1.359375 C 21.125 -0.296875 19.769531 0.234375 18.46875 0.234375 C 17.457031 0.234375 16.53125 -0.109375 15.6875 -0.796875 C 14.851562 -1.484375 14.222656 -2.421875 13.796875 -3.609375 C 12.210938 -1.046875 10.21875 0.234375 7.8125 0.234375 Z M 9.453125 -4.390625 C 10.128906 -4.390625 10.769531 -4.785156 11.375 -5.578125 C 11.988281 -6.367188 12.429688 -7.421875 12.703125 -8.734375 L 14.390625 -17.140625 C 13.117188 -17.109375 11.941406 -16.628906 10.859375 -15.703125 C 9.773438 -14.773438 8.910156 -13.546875 8.265625 -12.015625 C 7.628906 -10.492188 7.3125 -8.878906 7.3125 -7.171875 C 7.3125 -6.234375 7.5 -5.535156 7.875 -5.078125 C 8.257812 -4.617188 8.785156 -4.390625 9.453125 -4.390625 Z M 9.453125 -4.390625 "/></g></g></g><g fill="#ffffff" fill-opacity="1"><g transform="translate(268.349657, 54.695857)"><g><path d="M 5.4375 0.234375 C 4.28125 0.234375 3.460938 -0.375 2.984375 -1.59375 C 2.515625 -2.8125 2.28125 -4.765625 2.28125 -7.453125 C 2.28125 -11.410156 2.84375 -15.171875 3.96875 -18.734375 C 4.25 -19.617188 4.703125 -20.265625 5.328125 -20.671875 C 5.953125 -21.085938 6.828125 -21.296875 7.953125 -21.296875 C 8.554688 -21.296875 8.976562 -21.21875 9.21875 -21.0625 C 9.46875 -20.914062 9.59375 -20.628906 9.59375 -20.203125 C 9.59375 -19.710938 9.363281 -18.613281 8.90625 -16.90625 C 8.601562 -15.6875 8.359375 -14.617188 8.171875 -13.703125 C 7.992188 -12.796875 7.84375 -11.671875 7.71875 -10.328125 C 8.726562 -12.953125 9.859375 -15.085938 11.109375 -16.734375 C 12.359375 -18.378906 13.582031 -19.550781 14.78125 -20.25 C 15.988281 -20.945312 17.09375 -21.296875 18.09375 -21.296875 C 20.070312 -21.296875 21.0625 -20.304688 21.0625 -18.328125 C 21.0625 -17.929688 20.925781 -16.972656 20.65625 -15.453125 C 20.414062 -14.234375 20.296875 -13.46875 20.296875 -13.15625 C 20.296875 -12.09375 20.675781 -11.5625 21.4375 -11.5625 C 22.289062 -11.5625 23.382812 -12.234375 24.71875 -13.578125 C 25.113281 -13.972656 25.523438 -14.171875 25.953125 -14.171875 C 26.347656 -14.171875 26.660156 -13.992188 26.890625 -13.640625 C 27.117188 -13.285156 27.234375 -12.820312 27.234375 -12.25 C 27.234375 -11.125 26.929688 -10.238281 26.328125 -9.59375 C 25.472656 -8.707031 24.472656 -7.953125 23.328125 -7.328125 C 22.191406 -6.710938 20.984375 -6.40625 19.703125 -6.40625 C 18.085938 -6.40625 16.859375 -6.8125 16.015625 -7.625 C 15.179688 -8.445312 14.765625 -9.5625 14.765625 -10.96875 C 14.765625 -11.425781 14.8125 -11.882812 14.90625 -12.34375 C 14.957031 -12.945312 14.984375 -13.359375 14.984375 -13.578125 C 14.984375 -14.066406 14.816406 -14.3125 14.484375 -14.3125 C 14.023438 -14.3125 13.421875 -13.800781 12.671875 -12.78125 C 11.929688 -11.757812 11.195312 -10.410156 10.46875 -8.734375 C 9.738281 -7.054688 9.144531 -5.285156 8.6875 -3.421875 C 8.351562 -1.992188 7.960938 -1.023438 7.515625 -0.515625 C 7.078125 -0.015625 6.382812 0.234375 5.4375 0.234375 Z M 5.4375 0.234375 "/></g></g></g><g fill="#ffffff" fill-opacity="1"><g transform="translate(289.140291, 54.695857)"><g/></g></g><g fill="#ffffff" fill-opacity="1"><g transform="translate(301.249116, 54.695857)"><g><path d="M 20.703125 0.234375 C 17.078125 0.234375 13.921875 -0.425781 11.234375 -1.75 C 8.554688 -3.082031 6.5 -4.96875 5.0625 -7.40625 C 3.632812 -9.84375 2.921875 -12.675781 2.921875 -15.90625 C 2.921875 -20.382812 3.765625 -24.359375 5.453125 -27.828125 C 7.148438 -31.304688 9.445312 -33.992188 12.34375 -35.890625 C 15.238281 -37.796875 18.453125 -38.75 21.984375 -38.75 C 25.273438 -38.75 27.769531 -37.90625 29.46875 -36.21875 C 31.175781 -34.53125 32.03125 -32.300781 32.03125 -29.53125 C 32.03125 -27.664062 31.703125 -26.171875 31.046875 -25.046875 C 30.398438 -23.921875 29.46875 -23.359375 28.25 -23.359375 C 27.394531 -23.359375 26.722656 -23.554688 26.234375 -23.953125 C 25.742188 -24.347656 25.5 -24.925781 25.5 -25.6875 C 25.5 -25.957031 25.5625 -26.457031 25.6875 -27.1875 C 25.863281 -28.101562 25.953125 -28.835938 25.953125 -29.390625 C 25.953125 -32.160156 24.476562 -33.546875 21.53125 -33.546875 C 19.519531 -33.546875 17.597656 -32.890625 15.765625 -31.578125 C 13.941406 -30.265625 12.460938 -28.335938 11.328125 -25.796875 C 10.203125 -23.253906 9.640625 -20.234375 9.640625 -16.734375 C 9.640625 -13.078125 10.660156 -10.25 12.703125 -8.25 C 14.742188 -6.25 17.757812 -5.25 21.75 -5.25 C 23.726562 -5.25 25.726562 -5.5 27.75 -6 C 29.78125 -6.507812 32.03125 -7.28125 34.5 -8.3125 C 34.957031 -8.5 35.34375 -8.59375 35.65625 -8.59375 C 36.132812 -8.59375 36.492188 -8.410156 36.734375 -8.046875 C 36.984375 -7.679688 37.109375 -7.207031 37.109375 -6.625 C 37.109375 -4.769531 36.101562 -3.398438 34.09375 -2.515625 C 31.925781 -1.566406 29.675781 -0.867188 27.34375 -0.421875 C 25.019531 0.015625 22.804688 0.234375 20.703125 0.234375 Z M 20.703125 0.234375 "/></g></g></g><g fill="#ffffff" fill-opacity="1"><g transform="translate(332.595004, 54.695857)"><g><path d="M 7.8125 0.234375 C 5.925781 0.234375 4.414062 -0.453125 3.28125 -1.828125 C 2.15625 -3.203125 1.59375 -5 1.59375 -7.21875 C 1.59375 -9.65625 2.15625 -11.960938 3.28125 -14.140625 C 4.414062 -16.316406 5.921875 -18.066406 7.796875 -19.390625 C 9.671875 -20.722656 11.65625 -21.390625 13.75 -21.390625 C 14.425781 -21.390625 14.878906 -21.257812 15.109375 -21 C 15.335938 -20.738281 15.523438 -20.273438 15.671875 -19.609375 C 16.316406 -19.734375 16.988281 -19.796875 17.6875 -19.796875 C 19.175781 -19.796875 19.921875 -19.257812 19.921875 -18.1875 C 19.921875 -17.550781 19.691406 -16.03125 19.234375 -13.625 C 18.535156 -10.113281 18.1875 -7.675781 18.1875 -6.3125 C 18.1875 -5.851562 18.300781 -5.484375 18.53125 -5.203125 C 18.757812 -4.929688 19.054688 -4.796875 19.421875 -4.796875 C 20.003906 -4.796875 20.707031 -5.164062 21.53125 -5.90625 C 22.351562 -6.65625 23.460938 -7.867188 24.859375 -9.546875 C 25.222656 -9.972656 25.632812 -10.1875 26.09375 -10.1875 C 26.488281 -10.1875 26.800781 -10.003906 27.03125 -9.640625 C 27.257812 -9.273438 27.375 -8.773438 27.375 -8.140625 C 27.375 -6.921875 27.085938 -5.972656 26.515625 -5.296875 C 25.265625 -3.742188 23.9375 -2.429688 22.53125 -1.359375 C 21.125 -0.296875 19.769531 0.234375 18.46875 0.234375 C 17.457031 0.234375 16.53125 -0.109375 15.6875 -0.796875 C 14.851562 -1.484375 14.222656 -2.421875 13.796875 -3.609375 C 12.210938 -1.046875 10.21875 0.234375 7.8125 0.234375 Z M 9.453125 -4.390625 C 10.128906 -4.390625 10.769531 -4.785156 11.375 -5.578125 C 11.988281 -6.367188 12.429688 -7.421875 12.703125 -8.734375 L 14.390625 -17.140625 C 13.117188 -17.109375 11.941406 -16.628906 10.859375 -15.703125 C 9.773438 -14.773438 8.910156 -13.546875 8.265625 -12.015625 C 7.628906 -10.492188 7.3125 -8.878906 7.3125 -7.171875 C 7.3125 -6.234375 7.5 -5.535156 7.875 -5.078125 C 8.257812 -4.617188 8.785156 -4.390625 9.453125 -4.390625 Z M 9.453125 -4.390625 "/></g></g></g><g fill="#ffffff" fill-opacity="1"><g transform="translate(354.071052, 54.695857)"><g><path d="M 28.15625 -10.1875 C 28.550781 -10.1875 28.863281 -10.003906 29.09375 -9.640625 C 29.320312 -9.273438 29.4375 -8.773438 29.4375 -8.140625 C 29.4375 -6.921875 29.144531 -5.972656 28.5625 -5.296875 C 27.3125 -3.773438 25.941406 -2.472656 24.453125 -1.390625 C 22.960938 -0.304688 21.484375 0.234375 20.015625 0.234375 C 17.703125 0.234375 15.9375 -1.125 14.71875 -3.84375 C 13.4375 -2.226562 12.316406 -1.144531 11.359375 -0.59375 C 10.398438 -0.0390625 9.28125 0.234375 8 0.234375 C 6.132812 0.234375 4.597656 -0.457031 3.390625 -1.84375 C 2.191406 -3.238281 1.59375 -5.046875 1.59375 -7.265625 C 1.59375 -9.703125 2.109375 -11.960938 3.140625 -14.046875 C 4.179688 -16.140625 5.609375 -17.847656 7.421875 -19.171875 C 9.234375 -20.492188 11.269531 -21.28125 13.53125 -21.53125 C 14.101562 -27.4375 15.203125 -32.484375 16.828125 -36.671875 C 18.460938 -40.867188 20.609375 -42.96875 23.265625 -42.96875 C 24.578125 -42.96875 25.664062 -42.367188 26.53125 -41.171875 C 27.394531 -39.984375 27.828125 -38.1875 27.828125 -35.78125 C 27.828125 -32.375 26.988281 -28.382812 25.3125 -23.8125 C 23.644531 -19.238281 21.40625 -14.546875 18.59375 -9.734375 C 18.71875 -7.960938 18.984375 -6.695312 19.390625 -5.9375 C 19.804688 -5.175781 20.335938 -4.796875 20.984375 -4.796875 C 21.804688 -4.796875 22.640625 -5.160156 23.484375 -5.890625 C 24.335938 -6.628906 25.484375 -7.847656 26.921875 -9.546875 C 27.285156 -9.972656 27.695312 -10.1875 28.15625 -10.1875 Z M 22.765625 -38.484375 C 22.179688 -38.484375 21.597656 -37.453125 21.015625 -35.390625 C 20.441406 -33.335938 19.945312 -30.648438 19.53125 -27.328125 C 19.125 -24.003906 18.828125 -20.53125 18.640625 -16.90625 C 22.054688 -24.34375 23.765625 -30.316406 23.765625 -34.828125 C 23.765625 -35.984375 23.664062 -36.878906 23.46875 -37.515625 C 23.269531 -38.160156 23.035156 -38.484375 22.765625 -38.484375 Z M 9.59375 -4.390625 C 10.175781 -4.390625 10.753906 -4.625 11.328125 -5.09375 C 11.910156 -5.5625 12.644531 -6.4375 13.53125 -7.71875 C 13.226562 -9.363281 13.078125 -11.207031 13.078125 -13.25 C 13.078125 -13.976562 13.101562 -15.164062 13.15625 -16.8125 C 11.488281 -16.300781 10.097656 -15.179688 8.984375 -13.453125 C 7.867188 -11.734375 7.3125 -9.820312 7.3125 -7.71875 C 7.3125 -5.5 8.070312 -4.390625 9.59375 -4.390625 Z M 9.59375 -4.390625 "/></g></g></g><g fill="#ffffff" fill-opacity="1"><g transform="translate(377.603313, 54.695857)"><g><path d="M 7.8125 0.234375 C 5.925781 0.234375 4.414062 -0.453125 3.28125 -1.828125 C 2.15625 -3.203125 1.59375 -5 1.59375 -7.21875 C 1.59375 -9.65625 2.15625 -11.960938 3.28125 -14.140625 C 4.414062 -16.316406 5.921875 -18.066406 7.796875 -19.390625 C 9.671875 -20.722656 11.65625 -21.390625 13.75 -21.390625 C 14.425781 -21.390625 14.878906 -21.257812 15.109375 -21 C 15.335938 -20.738281 15.523438 -20.273438 15.671875 -19.609375 C 16.316406 -19.734375 16.988281 -19.796875 17.6875 -19.796875 C 19.175781 -19.796875 19.921875 -19.257812 19.921875 -18.1875 C 19.921875 -17.550781 19.691406 -16.03125 19.234375 -13.625 C 18.535156 -10.113281 18.1875 -7.675781 18.1875 -6.3125 C 18.1875 -5.851562 18.300781 -5.484375 18.53125 -5.203125 C 18.757812 -4.929688 19.054688 -4.796875 19.421875 -4.796875 C 20.003906 -4.796875 20.707031 -5.164062 21.53125 -5.90625 C 22.351562 -6.65625 23.460938 -7.867188 24.859375 -9.546875 C 25.222656 -9.972656 25.632812 -10.1875 26.09375 -10.1875 C 26.488281 -10.1875 26.800781 -10.003906 27.03125 -9.640625 C 27.257812 -9.273438 27.375 -8.773438 27.375 -8.140625 C 27.375 -6.921875 27.085938 -5.972656 26.515625 -5.296875 C 25.265625 -3.742188 23.9375 -2.429688 22.53125 -1.359375 C 21.125 -0.296875 19.769531 0.234375 18.46875 0.234375 C 17.457031 0.234375 16.53125 -0.109375 15.6875 -0.796875 C 14.851562 -1.484375 14.222656 -2.421875 13.796875 -3.609375 C 12.210938 -1.046875 10.21875 0.234375 7.8125 0.234375 Z M 9.453125 -4.390625 C 10.128906 -4.390625 10.769531 -4.785156 11.375 -5.578125 C 11.988281 -6.367188 12.429688 -7.421875 12.703125 -8.734375 L 14.390625 -17.140625 C 13.117188 -17.109375 11.941406 -16.628906 10.859375 -15.703125 C 9.773438 -14.773438 8.910156 -13.546875 8.265625 -12.015625 C 7.628906 -10.492188 7.3125 -8.878906 7.3125 -7.171875 C 7.3125 -6.234375 7.5 -5.535156 7.875 -5.078125 C 8.257812 -4.617188 8.785156 -4.390625 9.453125 -4.390625 Z M 9.453125 -4.390625 "/></g></g></g><g fill="#ffffff" fill-opacity="1"><g transform="translate(399.079361, 54.695857)"><g><path d="M 10.6875 1.234375 C 9.101562 1.234375 7.890625 0.867188 7.046875 0.140625 C 6.210938 -0.585938 5.796875 -1.410156 5.796875 -2.328125 C 5.796875 -3.117188 6.085938 -3.800781 6.671875 -4.375 C 7.253906 -4.957031 8.109375 -5.25 9.234375 -5.25 C 9.628906 -5.25 10.09375 -5.210938 10.625 -5.140625 C 11.15625 -5.066406 11.5625 -5.015625 11.84375 -4.984375 C 11.8125 -5.773438 11.632812 -6.519531 11.3125 -7.21875 C 10.988281 -7.914062 10.582031 -8.59375 10.09375 -9.25 C 9.613281 -9.90625 9.160156 -10.476562 8.734375 -10.96875 C 7.785156 -9.164062 6.847656 -7.671875 5.921875 -6.484375 C 4.992188 -5.296875 3.976562 -4.171875 2.875 -3.109375 C 2.332031 -2.554688 1.753906 -2.28125 1.140625 -2.28125 C 0.648438 -2.28125 0.253906 -2.457031 -0.046875 -2.8125 C -0.347656 -3.164062 -0.5 -3.597656 -0.5 -4.109375 C -0.5 -4.722656 -0.285156 -5.285156 0.140625 -5.796875 L 0.734375 -6.53125 C 2.410156 -8.601562 3.675781 -10.3125 4.53125 -11.65625 C 5.039062 -12.539062 5.644531 -13.71875 6.34375 -15.1875 C 7.050781 -16.664062 7.738281 -18.203125 8.40625 -19.796875 C 8.988281 -21.128906 10.191406 -21.796875 12.015625 -21.796875 C 12.867188 -21.796875 13.460938 -21.71875 13.796875 -21.5625 C 14.140625 -21.414062 14.3125 -21.175781 14.3125 -20.84375 C 14.3125 -20.65625 14.25 -20.363281 14.125 -19.96875 C 14 -19.570312 13.832031 -19.175781 13.625 -18.78125 C 13.070312 -17.6875 12.796875 -16.757812 12.796875 -16 C 12.796875 -15.539062 12.953125 -15.035156 13.265625 -14.484375 C 13.585938 -13.941406 14.085938 -13.257812 14.765625 -12.4375 C 15.734375 -11.15625 16.46875 -10.0625 16.96875 -9.15625 C 17.476562 -8.257812 17.734375 -7.28125 17.734375 -6.21875 C 17.734375 -5.914062 17.703125 -5.488281 17.640625 -4.9375 C 19.128906 -5.507812 20.878906 -7.046875 22.890625 -9.546875 C 23.265625 -9.972656 23.675781 -10.1875 24.125 -10.1875 C 24.519531 -10.1875 24.832031 -10.003906 25.0625 -9.640625 C 25.289062 -9.273438 25.40625 -8.773438 25.40625 -8.140625 C 25.40625 -6.984375 25.117188 -6.035156 24.546875 -5.296875 C 23.015625 -3.410156 21.554688 -2.125 20.171875 -1.4375 C 18.785156 -0.75 17.070312 -0.375 15.03125 -0.3125 C 13.8125 0.71875 12.363281 1.234375 10.6875 1.234375 Z M 10.6875 1.234375 "/></g></g></g><g fill="#ffffff" fill-opacity="1"><g transform="translate(418.590578, 54.695857)"><g><path d="M 22.578125 -10.1875 C 22.972656 -10.1875 23.285156 -10.003906 23.515625 -9.640625 C 23.742188 -9.273438 23.859375 -8.773438 23.859375 -8.140625 C 23.859375 -6.921875 23.566406 -5.972656 22.984375 -5.296875 C 21.679688 -3.679688 20.25 -2.351562 18.6875 -1.3125 C 17.132812 -0.28125 15.351562 0.234375 13.34375 0.234375 C 7.125 0.234375 4.015625 -4.140625 4.015625 -12.890625 C 4.015625 -14.234375 4.0625 -15.585938 4.15625 -16.953125 L 2.375 -16.953125 C 1.457031 -16.953125 0.835938 -17.117188 0.515625 -17.453125 C 0.203125 -17.796875 0.046875 -18.332031 0.046875 -19.0625 C 0.046875 -20.769531 0.734375 -21.625 2.109375 -21.625 L 4.703125 -21.625 C 5.222656 -24.96875 6.015625 -28.023438 7.078125 -30.796875 C 8.148438 -33.578125 9.4375 -35.789062 10.9375 -37.4375 C 12.445312 -39.082031 14.070312 -39.90625 15.8125 -39.90625 C 17.09375 -39.90625 18.097656 -39.335938 18.828125 -38.203125 C 19.554688 -37.078125 19.921875 -35.660156 19.921875 -33.953125 C 19.921875 -29.234375 17.941406 -25.125 13.984375 -21.625 L 19.109375 -21.625 C 19.585938 -21.625 19.929688 -21.515625 20.140625 -21.296875 C 20.359375 -21.085938 20.46875 -20.691406 20.46875 -20.109375 C 20.46875 -18.003906 18.75 -16.953125 15.3125 -16.953125 L 9.734375 -16.953125 C 9.671875 -15.429688 9.640625 -14.242188 9.640625 -13.390625 C 9.640625 -10.222656 10.015625 -8 10.765625 -6.71875 C 11.515625 -5.4375 12.695312 -4.796875 14.3125 -4.796875 C 15.613281 -4.796875 16.765625 -5.191406 17.765625 -5.984375 C 18.773438 -6.773438 19.96875 -7.960938 21.34375 -9.546875 C 21.707031 -9.972656 22.117188 -10.1875 22.578125 -10.1875 Z M 14.578125 -35.515625 C 14.117188 -35.515625 13.609375 -34.941406 13.046875 -33.796875 C 12.484375 -32.648438 11.945312 -31.0625 11.4375 -29.03125 C 10.9375 -27.007812 10.519531 -24.765625 10.1875 -22.296875 C 11.988281 -23.859375 13.335938 -25.601562 14.234375 -27.53125 C 15.128906 -29.46875 15.578125 -31.226562 15.578125 -32.8125 C 15.578125 -34.613281 15.242188 -35.515625 14.578125 -35.515625 Z M 14.578125 -35.515625 "/></g></g></g><g fill="#ffffff" fill-opacity="1"><g transform="translate(436.5482, 54.695857)"><g><path d="M 5.4375 0.234375 C 4.28125 0.234375 3.460938 -0.375 2.984375 -1.59375 C 2.515625 -2.8125 2.28125 -4.765625 2.28125 -7.453125 C 2.28125 -11.410156 2.84375 -15.171875 3.96875 -18.734375 C 4.25 -19.617188 4.703125 -20.265625 5.328125 -20.671875 C 5.953125 -21.085938 6.828125 -21.296875 7.953125 -21.296875 C 8.554688 -21.296875 8.976562 -21.21875 9.21875 -21.0625 C 9.46875 -20.914062 9.59375 -20.628906 9.59375 -20.203125 C 9.59375 -19.710938 9.363281 -18.613281 8.90625 -16.90625 C 8.601562 -15.6875 8.359375 -14.617188 8.171875 -13.703125 C 7.992188 -12.796875 7.84375 -11.671875 7.71875 -10.328125 C 8.726562 -12.953125 9.859375 -15.085938 11.109375 -16.734375 C 12.359375 -18.378906 13.582031 -19.550781 14.78125 -20.25 C 15.988281 -20.945312 17.09375 -21.296875 18.09375 -21.296875 C 20.070312 -21.296875 21.0625 -20.304688 21.0625 -18.328125 C 21.0625 -17.929688 20.925781 -16.972656 20.65625 -15.453125 C 20.414062 -14.234375 20.296875 -13.46875 20.296875 -13.15625 C 20.296875 -12.09375 20.675781 -11.5625 21.4375 -11.5625 C 22.289062 -11.5625 23.382812 -12.234375 24.71875 -13.578125 C 25.113281 -13.972656 25.523438 -14.171875 25.953125 -14.171875 C 26.347656 -14.171875 26.660156 -13.992188 26.890625 -13.640625 C 27.117188 -13.285156 27.234375 -12.820312 27.234375 -12.25 C 27.234375 -11.125 26.929688 -10.238281 26.328125 -9.59375 C 25.472656 -8.707031 24.472656 -7.953125 23.328125 -7.328125 C 22.191406 -6.710938 20.984375 -6.40625 19.703125 -6.40625 C 18.085938 -6.40625 16.859375 -6.8125 16.015625 -7.625 C 15.179688 -8.445312 14.765625 -9.5625 14.765625 -10.96875 C 14.765625 -11.425781 14.8125 -11.882812 14.90625 -12.34375 C 14.957031 -12.945312 14.984375 -13.359375 14.984375 -13.578125 C 14.984375 -14.066406 14.816406 -14.3125 14.484375 -14.3125 C 14.023438 -14.3125 13.421875 -13.800781 12.671875 -12.78125 C 11.929688 -11.757812 11.195312 -10.410156 10.46875 -8.734375 C 9.738281 -7.054688 9.144531 -5.285156 8.6875 -3.421875 C 8.351562 -1.992188 7.960938 -1.023438 7.515625 -0.515625 C 7.078125 -0.015625 6.382812 0.234375 5.4375 0.234375 Z M 5.4375 0.234375 "/></g></g></g><g fill="#ffffff" fill-opacity="1"><g transform="translate(457.338834, 54.695857)"><g><path d="M 25.5 -14.03125 C 25.894531 -14.03125 26.195312 -13.832031 26.40625 -13.4375 C 26.625 -13.039062 26.734375 -12.535156 26.734375 -11.921875 C 26.734375 -10.460938 26.289062 -9.597656 25.40625 -9.328125 C 23.582031 -8.679688 21.570312 -8.316406 19.375 -8.234375 C 18.800781 -5.671875 17.660156 -3.617188 15.953125 -2.078125 C 14.242188 -0.535156 12.304688 0.234375 10.140625 0.234375 C 8.316406 0.234375 6.753906 -0.207031 5.453125 -1.09375 C 4.160156 -1.976562 3.179688 -3.148438 2.515625 -4.609375 C 1.847656 -6.078125 1.515625 -7.664062 1.515625 -9.375 C 1.515625 -11.6875 1.953125 -13.75 2.828125 -15.5625 C 3.710938 -17.375 4.929688 -18.789062 6.484375 -19.8125 C 8.046875 -20.832031 9.769531 -21.34375 11.65625 -21.34375 C 13.96875 -21.34375 15.832031 -20.539062 17.25 -18.9375 C 18.664062 -17.34375 19.5 -15.375 19.75 -13.03125 C 21.175781 -13.113281 22.878906 -13.414062 24.859375 -13.9375 C 25.109375 -14 25.320312 -14.03125 25.5 -14.03125 Z M 10.515625 -4.609375 C 11.484375 -4.609375 12.328125 -5.003906 13.046875 -5.796875 C 13.765625 -6.597656 14.242188 -7.742188 14.484375 -9.234375 C 13.546875 -9.867188 12.820312 -10.703125 12.3125 -11.734375 C 11.8125 -12.773438 11.5625 -13.875 11.5625 -15.03125 C 11.5625 -15.519531 11.609375 -16.007812 11.703125 -16.5 L 11.46875 -16.5 C 10.25 -16.5 9.234375 -15.910156 8.421875 -14.734375 C 7.617188 -13.566406 7.21875 -11.914062 7.21875 -9.78125 C 7.21875 -8.101562 7.546875 -6.820312 8.203125 -5.9375 C 8.859375 -5.050781 9.628906 -4.609375 10.515625 -4.609375 Z M 10.515625 -4.609375 "/></g></g></g><g clip-path="url(#id2)"><path fill="#ffffff" d="M 62.164062 37.796875 C 65.414062 40.035156 67.113281 40.441406 69.914062 45.136719 C 72.714844 49.828125 73.203125 53.023438 73.941406 53.609375 C 74.675781 54.195312 78.359375 53.464844 80.277344 52.4375 C 82.191406 51.410156 82.265625 50.84375 84.054688 46.679688 C 86.535156 40.90625 90.5625 33.820312 93.65625 29.714844 C 96.75 25.605469 103.269531 20.203125 103.5625 19.179688 C 103.859375 18.152344 100.761719 17.675781 97.816406 18.554688 C 94.867188 19.433594 88.660156 26.230469 84.910156 31.578125 C 80.742188 37.519531 79.265625 42.535156 78.527344 42.390625 C 77.789062 42.242188 76.351562 39.253906 74.285156 37.050781 C 72.222656 34.851562 70.050781 33.359375 67.542969 33.800781 C 65.039062 34.242188 60.667969 36.765625 62.164062 37.796875 " fill-opacity="1" fill-rule="nonzero"/></g></svg>