<svg xmlns="http://www.w3.org/2000/svg" xmlns:xlink="http://www.w3.org/1999/xlink" width="718" zoomAndPan="magnify" viewBox="0 0 538.5 70.499998" height="94" preserveAspectRatio="xMidYMid meet" version="1.0"><defs><filter x="0%" y="0%" width="100%" height="100%" id="id1"><feColorMatrix values="0 0 0 0 1 0 0 0 0 1 0 0 0 0 1 0 0 0 1 0" color-interpolation-filters="sRGB"/></filter><g/><clipPath id="id2"><path d="M 1.648438 0 L 536.355469 0 L 536.355469 70.003906 L 1.648438 70.003906 Z M 1.648438 0 " clip-rule="nonzero"/></clipPath><mask id="id3"><g filter="url(#id1)"><rect x="-53.85" width="646.2" fill="#000000" y="-7.05" height="84.599998" fill-opacity="0.749"/></g></mask><clipPath id="id4"><path d="M 0.648438 0 L 535.355469 0 L 535.355469 70.003906 L 0.648438 70.003906 Z M 0.648438 0 " clip-rule="nonzero"/></clipPath><clipPath id="id5"><rect x="0" width="536" y="0" height="71"/></clipPath><clipPath id="id6"><path d="M 76 10.566406 L 115 10.566406 L 115 42 L 76 42 Z M 76 10.566406 " clip-rule="nonzero"/></clipPath><clipPath id="id7"><path d="M 70.675781 42 L 85 42 L 85 55 L 70.675781 55 Z M 70.675781 42 " clip-rule="nonzero"/></clipPath><clipPath id="id8"><path d="M 74 42 L 125.089844 42 L 125.089844 59.761719 L 74 59.761719 Z M 74 42 " clip-rule="nonzero"/></clipPath></defs><g clip-path="url(#id2)"><g mask="url(#id3)"><g transform="matrix(1, 0, 0, 1, 1, 0)"><g clip-path="url(#id5)"><g clip-path="url(#id4)"><path fill="#eebeb8" d="M 16.308594 0 L 520.191406 0 C 524.339844 0 528.324219 1.640625 531.257812 4.5625 C 534.191406 7.480469 535.839844 11.441406 535.839844 15.574219 L 535.839844 54.496094 C 535.839844 58.625 534.191406 62.585938 531.257812 65.507812 C 528.324219 68.429688 524.339844 70.070312 520.191406 70.070312 L 16.308594 70.070312 C 12.15625 70.070312 8.175781 68.429688 5.242188 65.507812 C 2.308594 62.585938 0.660156 58.625 0.660156 54.496094 L 0.660156 15.574219 C 0.660156 11.441406 2.308594 7.480469 5.242188 4.5625 C 8.175781 1.640625 12.15625 0 16.308594 0 " fill-opacity="1" fill-rule="nonzero"/></g></g></g></g></g><g fill="#a6675f" fill-opacity="1"><g transform="translate(160.700087, 54.973797)"><g><path d="M 10.828125 0.234375 C 9.679688 0.234375 8.859375 -0.0195312 8.359375 -0.53125 C 7.859375 -1.050781 7.609375 -2.023438 7.609375 -3.453125 C 7.609375 -4.421875 7.703125 -5.585938 7.890625 -6.953125 C 8.078125 -8.328125 8.40625 -10.398438 8.875 -13.171875 C 8.9375 -13.546875 9.1875 -15.0625 9.625 -17.71875 C 10.0625 -20.382812 10.445312 -23.179688 10.78125 -26.109375 C 11.09375 -28.597656 11.25 -30.46875 11.25 -31.71875 C 11.25 -33.113281 10.738281 -33.8125 9.71875 -33.8125 C 8.9375 -33.8125 7.960938 -33.398438 6.796875 -32.578125 C 5.628906 -31.753906 4.375 -30.4375 3.03125 -28.625 C 2.59375 -28.03125 2.113281 -27.734375 1.59375 -27.734375 C 1.15625 -27.734375 0.769531 -27.941406 0.4375 -28.359375 C 0.113281 -28.785156 -0.046875 -29.265625 -0.046875 -29.796875 C -0.046875 -30.328125 0.046875 -30.832031 0.234375 -31.3125 C 0.421875 -31.789062 0.765625 -32.375 1.265625 -33.0625 C 2.785156 -35.144531 4.476562 -36.753906 6.34375 -37.890625 C 8.21875 -39.035156 10.179688 -39.609375 12.234375 -39.609375 C 13.953125 -39.609375 15.238281 -39.078125 16.09375 -38.015625 C 16.945312 -36.953125 17.375 -35.410156 17.375 -33.390625 C 17.375 -31.585938 17.125 -28.972656 16.625 -25.546875 C 18.1875 -30.148438 20.164062 -33.644531 22.5625 -36.03125 C 24.957031 -38.414062 27.773438 -39.609375 31.015625 -39.609375 C 33.566406 -39.609375 35.488281 -38.882812 36.78125 -37.4375 C 38.070312 -35.988281 38.71875 -34.050781 38.71875 -31.625 C 38.71875 -30.25 38.515625 -28.582031 38.109375 -26.625 L 35.265625 -13.265625 C 34.953125 -11.703125 34.796875 -10.363281 34.796875 -9.25 C 34.796875 -7.9375 35.097656 -6.953125 35.703125 -6.296875 C 36.304688 -5.648438 37.15625 -5.328125 38.25 -5.328125 C 39.28125 -5.328125 40.285156 -5.664062 41.265625 -6.34375 C 42.242188 -7.03125 43.398438 -8.171875 44.734375 -9.765625 C 45.109375 -10.203125 45.53125 -10.421875 46 -10.421875 C 46.40625 -10.421875 46.722656 -10.234375 46.953125 -9.859375 C 47.191406 -9.484375 47.3125 -8.96875 47.3125 -8.3125 C 47.3125 -7.09375 47.015625 -6.128906 46.421875 -5.421875 C 44.804688 -3.453125 43.203125 -2.015625 41.609375 -1.109375 C 40.023438 -0.210938 38.359375 0.234375 36.609375 0.234375 C 33.960938 0.234375 31.890625 -0.550781 30.390625 -2.125 C 28.898438 -3.695312 28.15625 -5.804688 28.15625 -8.453125 C 28.15625 -9.484375 28.238281 -10.601562 28.40625 -11.8125 C 28.582031 -13.03125 28.875 -14.570312 29.28125 -16.4375 L 31.15625 -24.984375 C 31.21875 -25.265625 31.328125 -25.765625 31.484375 -26.484375 C 31.640625 -27.203125 31.757812 -27.878906 31.84375 -28.515625 C 31.9375 -29.148438 31.984375 -29.78125 31.984375 -30.40625 C 31.984375 -31.394531 31.703125 -32.1875 31.140625 -32.78125 C 30.585938 -33.375 29.796875 -33.671875 28.765625 -33.671875 C 26.898438 -33.671875 25.03125 -32.671875 23.15625 -30.671875 C 21.289062 -28.679688 19.5625 -25.46875 17.96875 -21.03125 C 16.382812 -16.601562 15.144531 -10.929688 14.25 -4.015625 C 14.03125 -2.429688 13.707031 -1.328125 13.28125 -0.703125 C 12.863281 -0.078125 12.046875 0.234375 10.828125 0.234375 Z M 10.828125 0.234375 "/></g></g></g><g fill="#a6675f" fill-opacity="1"><g transform="translate(201.986872, 54.973797)"><g><path d="M 26.0625 -14.34375 C 26.46875 -14.34375 26.78125 -14.140625 27 -13.734375 C 27.21875 -13.328125 27.328125 -12.8125 27.328125 -12.1875 C 27.328125 -10.695312 26.875 -9.8125 25.96875 -9.53125 C 24.101562 -8.875 22.046875 -8.5 19.796875 -8.40625 C 19.210938 -5.789062 18.046875 -3.695312 16.296875 -2.125 C 14.554688 -0.550781 12.582031 0.234375 10.375 0.234375 C 8.5 0.234375 6.898438 -0.210938 5.578125 -1.109375 C 4.253906 -2.015625 3.25 -3.210938 2.5625 -4.703125 C 1.882812 -6.203125 1.546875 -7.828125 1.546875 -9.578125 C 1.546875 -11.941406 1.992188 -14.050781 2.890625 -15.90625 C 3.796875 -17.757812 5.039062 -19.207031 6.625 -20.25 C 8.21875 -21.289062 9.976562 -21.8125 11.90625 -21.8125 C 14.269531 -21.8125 16.175781 -20.992188 17.625 -19.359375 C 19.070312 -17.722656 19.921875 -15.707031 20.171875 -13.3125 C 21.640625 -13.40625 23.382812 -13.71875 25.40625 -14.25 C 25.65625 -14.3125 25.875 -14.34375 26.0625 -14.34375 Z M 10.734375 -4.71875 C 11.734375 -4.71875 12.597656 -5.117188 13.328125 -5.921875 C 14.066406 -6.734375 14.5625 -7.90625 14.8125 -9.4375 C 13.84375 -10.09375 13.097656 -10.945312 12.578125 -12 C 12.066406 -13.0625 11.8125 -14.179688 11.8125 -15.359375 C 11.8125 -15.859375 11.859375 -16.359375 11.953125 -16.859375 L 11.71875 -16.859375 C 10.476562 -16.859375 9.441406 -16.257812 8.609375 -15.0625 C 7.785156 -13.863281 7.375 -12.175781 7.375 -10 C 7.375 -8.28125 7.707031 -6.96875 8.375 -6.0625 C 9.050781 -5.164062 9.835938 -4.71875 10.734375 -4.71875 Z M 10.734375 -4.71875 "/></g></g></g><g fill="#a6675f" fill-opacity="1"><g transform="translate(223.05061, 54.973797)"><g><path d="M 25.359375 -14.203125 C 25.453125 -14.234375 25.609375 -14.25 25.828125 -14.25 C 26.296875 -14.25 26.65625 -14.09375 26.90625 -13.78125 C 27.15625 -13.46875 27.28125 -13.046875 27.28125 -12.515625 C 27.28125 -11.546875 27.09375 -10.789062 26.71875 -10.25 C 26.34375 -9.707031 25.78125 -9.3125 25.03125 -9.0625 C 23.601562 -8.59375 22.078125 -8.359375 20.453125 -8.359375 C 19.085938 -8.359375 17.796875 -8.546875 16.578125 -8.921875 C 15.671875 -7.453125 14.675781 -5.941406 13.59375 -4.390625 C 12.34375 -2.617188 11.265625 -1.40625 10.359375 -0.75 C 9.460938 -0.09375 8.4375 0.234375 7.28125 0.234375 C 6.007812 0.234375 5.003906 -0.257812 4.265625 -1.25 C 3.535156 -2.25 3.078125 -3.828125 2.890625 -5.984375 C 2.515625 -10.335938 2.328125 -14.148438 2.328125 -17.421875 L 2.328125 -19.0625 C 2.359375 -20.082031 2.640625 -20.796875 3.171875 -21.203125 C 3.703125 -21.609375 4.5 -21.8125 5.5625 -21.8125 C 6.363281 -21.8125 6.957031 -21.628906 7.34375 -21.265625 C 7.738281 -20.910156 7.9375 -20.3125 7.9375 -19.46875 C 7.9375 -15.894531 8.15625 -11.242188 8.59375 -5.515625 C 10.457031 -8.285156 11.859375 -10.492188 12.796875 -12.140625 C 12.328125 -13.046875 12.09375 -14.117188 12.09375 -15.359375 C 12.09375 -16.421875 12.328125 -17.445312 12.796875 -18.4375 C 13.265625 -19.4375 13.898438 -20.25 14.703125 -20.875 C 15.515625 -21.5 16.4375 -21.8125 17.46875 -21.8125 C 18.375 -21.8125 19.101562 -21.488281 19.65625 -20.84375 C 20.21875 -20.207031 20.5 -19.285156 20.5 -18.078125 C 20.5 -16.671875 20.125 -15.066406 19.375 -13.265625 C 20.5625 -13.328125 22.132812 -13.5625 24.09375 -13.96875 Z M 25.359375 -14.203125 "/></g></g></g><g fill="#a6675f" fill-opacity="1"><g transform="translate(244.020932, 54.973797)"><g><path d="M 7.984375 0.234375 C 6.054688 0.234375 4.515625 -0.460938 3.359375 -1.859375 C 2.210938 -3.265625 1.640625 -5.101562 1.640625 -7.375 C 1.640625 -9.863281 2.210938 -12.222656 3.359375 -14.453125 C 4.515625 -16.679688 6.046875 -18.472656 7.953125 -19.828125 C 9.867188 -21.179688 11.90625 -21.859375 14.0625 -21.859375 C 14.738281 -21.859375 15.191406 -21.722656 15.421875 -21.453125 C 15.660156 -21.191406 15.859375 -20.71875 16.015625 -20.03125 C 16.671875 -20.15625 17.359375 -20.21875 18.078125 -20.21875 C 19.597656 -20.21875 20.359375 -19.675781 20.359375 -18.59375 C 20.359375 -17.9375 20.125 -16.378906 19.65625 -13.921875 C 18.945312 -10.335938 18.59375 -7.84375 18.59375 -6.4375 C 18.59375 -5.976562 18.707031 -5.609375 18.9375 -5.328125 C 19.164062 -5.046875 19.46875 -4.90625 19.84375 -4.90625 C 20.4375 -4.90625 21.15625 -5.285156 22 -6.046875 C 22.84375 -6.804688 23.976562 -8.046875 25.40625 -9.765625 C 25.78125 -10.203125 26.203125 -10.421875 26.671875 -10.421875 C 27.078125 -10.421875 27.394531 -10.234375 27.625 -9.859375 C 27.851562 -9.484375 27.96875 -8.96875 27.96875 -8.3125 C 27.96875 -7.0625 27.675781 -6.097656 27.09375 -5.421875 C 25.8125 -3.828125 24.453125 -2.484375 23.015625 -1.390625 C 21.585938 -0.304688 20.207031 0.234375 18.875 0.234375 C 17.84375 0.234375 16.898438 -0.113281 16.046875 -0.8125 C 15.191406 -1.519531 14.546875 -2.476562 14.109375 -3.6875 C 12.484375 -1.070312 10.441406 0.234375 7.984375 0.234375 Z M 9.671875 -4.484375 C 10.347656 -4.484375 11 -4.882812 11.625 -5.6875 C 12.25 -6.5 12.703125 -7.578125 12.984375 -8.921875 L 14.71875 -17.515625 C 13.40625 -17.484375 12.195312 -16.992188 11.09375 -16.046875 C 9.988281 -15.097656 9.109375 -13.84375 8.453125 -12.28125 C 7.796875 -10.726562 7.46875 -9.078125 7.46875 -7.328125 C 7.46875 -6.367188 7.660156 -5.65625 8.046875 -5.1875 C 8.441406 -4.71875 8.984375 -4.484375 9.671875 -4.484375 Z M 9.671875 -4.484375 "/></g></g></g><g fill="#a6675f" fill-opacity="1"><g transform="translate(265.97205, 54.973797)"><g/></g></g><g fill="#a6675f" fill-opacity="1"><g transform="translate(278.348744, 54.973797)"><g><path d="M 14.390625 0.234375 C 12.578125 0.234375 10.535156 0.078125 8.265625 -0.234375 C 7.015625 -0.390625 6.15625 -0.71875 5.6875 -1.21875 C 5.226562 -1.71875 5.03125 -2.523438 5.09375 -3.640625 C 5.3125 -6.722656 5.820312 -10.53125 6.625 -15.0625 C 7.4375 -19.59375 8.421875 -23.957031 9.578125 -28.15625 C 9.796875 -28.9375 10.226562 -29.484375 10.875 -29.796875 C 11.53125 -30.109375 12.390625 -30.265625 13.453125 -30.265625 C 15.347656 -30.265625 16.296875 -29.734375 16.296875 -28.671875 C 16.296875 -28.234375 16.203125 -27.738281 16.015625 -27.1875 C 15.210938 -24.6875 14.40625 -21.34375 13.59375 -17.15625 C 12.78125 -12.96875 12.203125 -8.976562 11.859375 -5.1875 C 12.796875 -5.09375 13.851562 -5.046875 15.03125 -5.046875 C 20.488281 -5.046875 24.5625 -6.691406 27.25 -9.984375 C 29.945312 -13.285156 31.296875 -17.695312 31.296875 -23.21875 C 31.296875 -26.914062 30.234375 -29.773438 28.109375 -31.796875 C 25.992188 -33.828125 23.003906 -34.84375 19.140625 -34.84375 C 16.648438 -34.84375 14.179688 -34.453125 11.734375 -33.671875 C 9.296875 -32.890625 7.097656 -31.863281 5.140625 -30.59375 C 4.734375 -30.3125 4.296875 -30.171875 3.828125 -30.171875 C 3.296875 -30.171875 2.875 -30.394531 2.5625 -30.84375 C 2.257812 -31.300781 2.109375 -31.851562 2.109375 -32.5 C 2.109375 -33.25 2.226562 -33.863281 2.46875 -34.34375 C 2.71875 -34.832031 3.140625 -35.28125 3.734375 -35.6875 C 5.878906 -37.144531 8.398438 -38.253906 11.296875 -39.015625 C 14.191406 -39.785156 16.976562 -40.171875 19.65625 -40.171875 C 23.457031 -40.171875 26.742188 -39.503906 29.515625 -38.171875 C 32.285156 -36.847656 34.414062 -34.910156 35.90625 -32.359375 C 37.40625 -29.804688 38.15625 -26.726562 38.15625 -23.125 C 38.15625 -18.414062 37.21875 -14.3125 35.34375 -10.8125 C 33.476562 -7.3125 30.753906 -4.59375 27.171875 -2.65625 C 23.597656 -0.726562 19.335938 0.234375 14.390625 0.234375 Z M 14.390625 0.234375 "/></g></g></g><g fill="#a6675f" fill-opacity="1"><g transform="translate(317.393716, 54.973797)"><g><path d="M 26.0625 -14.34375 C 26.46875 -14.34375 26.78125 -14.140625 27 -13.734375 C 27.21875 -13.328125 27.328125 -12.8125 27.328125 -12.1875 C 27.328125 -10.695312 26.875 -9.8125 25.96875 -9.53125 C 24.101562 -8.875 22.046875 -8.5 19.796875 -8.40625 C 19.210938 -5.789062 18.046875 -3.695312 16.296875 -2.125 C 14.554688 -0.550781 12.582031 0.234375 10.375 0.234375 C 8.5 0.234375 6.898438 -0.210938 5.578125 -1.109375 C 4.253906 -2.015625 3.25 -3.210938 2.5625 -4.703125 C 1.882812 -6.203125 1.546875 -7.828125 1.546875 -9.578125 C 1.546875 -11.941406 1.992188 -14.050781 2.890625 -15.90625 C 3.796875 -17.757812 5.039062 -19.207031 6.625 -20.25 C 8.21875 -21.289062 9.976562 -21.8125 11.90625 -21.8125 C 14.269531 -21.8125 16.175781 -20.992188 17.625 -19.359375 C 19.070312 -17.722656 19.921875 -15.707031 20.171875 -13.3125 C 21.640625 -13.40625 23.382812 -13.71875 25.40625 -14.25 C 25.65625 -14.3125 25.875 -14.34375 26.0625 -14.34375 Z M 10.734375 -4.71875 C 11.734375 -4.71875 12.597656 -5.117188 13.328125 -5.921875 C 14.066406 -6.734375 14.5625 -7.90625 14.8125 -9.4375 C 13.84375 -10.09375 13.097656 -10.945312 12.578125 -12 C 12.066406 -13.0625 11.8125 -14.179688 11.8125 -15.359375 C 11.8125 -15.859375 11.859375 -16.359375 11.953125 -16.859375 L 11.71875 -16.859375 C 10.476562 -16.859375 9.441406 -16.257812 8.609375 -15.0625 C 7.785156 -13.863281 7.375 -12.175781 7.375 -10 C 7.375 -8.28125 7.707031 -6.96875 8.375 -6.0625 C 9.050781 -5.164062 9.835938 -4.71875 10.734375 -4.71875 Z M 10.734375 -4.71875 "/></g></g></g><g fill="#a6675f" fill-opacity="1"><g transform="translate(338.457453, 54.973797)"><g><path d="M 7.984375 0.234375 C 6.054688 0.234375 4.515625 -0.460938 3.359375 -1.859375 C 2.210938 -3.265625 1.640625 -5.101562 1.640625 -7.375 C 1.640625 -9.863281 2.210938 -12.222656 3.359375 -14.453125 C 4.515625 -16.679688 6.046875 -18.472656 7.953125 -19.828125 C 9.867188 -21.179688 11.90625 -21.859375 14.0625 -21.859375 C 14.738281 -21.859375 15.191406 -21.722656 15.421875 -21.453125 C 15.660156 -21.191406 15.859375 -20.71875 16.015625 -20.03125 C 16.671875 -20.15625 17.359375 -20.21875 18.078125 -20.21875 C 19.597656 -20.21875 20.359375 -19.675781 20.359375 -18.59375 C 20.359375 -17.9375 20.125 -16.378906 19.65625 -13.921875 C 18.945312 -10.335938 18.59375 -7.84375 18.59375 -6.4375 C 18.59375 -5.976562 18.707031 -5.609375 18.9375 -5.328125 C 19.164062 -5.046875 19.46875 -4.90625 19.84375 -4.90625 C 20.4375 -4.90625 21.15625 -5.285156 22 -6.046875 C 22.84375 -6.804688 23.976562 -8.046875 25.40625 -9.765625 C 25.78125 -10.203125 26.203125 -10.421875 26.671875 -10.421875 C 27.078125 -10.421875 27.394531 -10.234375 27.625 -9.859375 C 27.851562 -9.484375 27.96875 -8.96875 27.96875 -8.3125 C 27.96875 -7.0625 27.675781 -6.097656 27.09375 -5.421875 C 25.8125 -3.828125 24.453125 -2.484375 23.015625 -1.390625 C 21.585938 -0.304688 20.207031 0.234375 18.875 0.234375 C 17.84375 0.234375 16.898438 -0.113281 16.046875 -0.8125 C 15.191406 -1.519531 14.546875 -2.476562 14.109375 -3.6875 C 12.484375 -1.070312 10.441406 0.234375 7.984375 0.234375 Z M 9.671875 -4.484375 C 10.347656 -4.484375 11 -4.882812 11.625 -5.6875 C 12.25 -6.5 12.703125 -7.578125 12.984375 -8.921875 L 14.71875 -17.515625 C 13.40625 -17.484375 12.195312 -16.992188 11.09375 -16.046875 C 9.988281 -15.097656 9.109375 -13.84375 8.453125 -12.28125 C 7.796875 -10.726562 7.46875 -9.078125 7.46875 -7.328125 C 7.46875 -6.367188 7.660156 -5.65625 8.046875 -5.1875 C 8.441406 -4.71875 8.984375 -4.484375 9.671875 -4.484375 Z M 9.671875 -4.484375 "/></g></g></g><g fill="#a6675f" fill-opacity="1"><g transform="translate(360.408572, 54.973797)"><g><path d="M 11.15625 0.234375 C 8.101562 0.234375 5.726562 -0.628906 4.03125 -2.359375 C 2.34375 -4.085938 1.5 -6.367188 1.5 -9.203125 C 1.5 -11.722656 1.992188 -13.929688 2.984375 -15.828125 C 3.984375 -17.734375 5.273438 -19.195312 6.859375 -20.21875 C 8.453125 -21.25 10.117188 -21.765625 11.859375 -21.765625 C 13.578125 -21.765625 14.910156 -21.257812 15.859375 -20.25 C 16.804688 -19.238281 17.28125 -17.9375 17.28125 -16.34375 C 17.28125 -15.039062 16.988281 -13.9375 16.40625 -13.03125 C 15.832031 -12.125 15.082031 -11.671875 14.15625 -11.671875 C 13.5625 -11.671875 13.082031 -11.8125 12.71875 -12.09375 C 12.363281 -12.375 12.1875 -12.765625 12.1875 -13.265625 C 12.1875 -13.484375 12.21875 -13.734375 12.28125 -14.015625 C 12.34375 -14.296875 12.390625 -14.5 12.421875 -14.625 C 12.578125 -15.082031 12.65625 -15.515625 12.65625 -15.921875 C 12.65625 -16.328125 12.550781 -16.640625 12.34375 -16.859375 C 12.144531 -17.078125 11.859375 -17.1875 11.484375 -17.1875 C 10.773438 -17.1875 10.109375 -16.863281 9.484375 -16.21875 C 8.859375 -15.582031 8.359375 -14.71875 7.984375 -13.625 C 7.609375 -12.539062 7.421875 -11.347656 7.421875 -10.046875 C 7.421875 -6.429688 8.992188 -4.625 12.140625 -4.625 C 13.421875 -4.625 14.800781 -5.050781 16.28125 -5.90625 C 17.757812 -6.757812 19.210938 -8.046875 20.640625 -9.765625 C 21.015625 -10.203125 21.4375 -10.421875 21.90625 -10.421875 C 22.3125 -10.421875 22.628906 -10.234375 22.859375 -9.859375 C 23.097656 -9.484375 23.21875 -8.96875 23.21875 -8.3125 C 23.21875 -7.125 22.921875 -6.160156 22.328125 -5.421875 C 20.859375 -3.609375 19.101562 -2.210938 17.0625 -1.234375 C 15.03125 -0.253906 13.0625 0.234375 11.15625 0.234375 Z M 7.421875 11.671875 C 6.234375 11.671875 5.269531 11.59375 4.53125 11.4375 C 3.3125 11.21875 2.703125 10.535156 2.703125 9.390625 C 2.703125 7.984375 3.328125 7.28125 4.578125 7.28125 C 4.816406 7.28125 5.015625 7.296875 5.171875 7.328125 C 6.015625 7.453125 6.84375 7.515625 7.65625 7.515625 C 8.894531 7.515625 9.863281 7.257812 10.5625 6.75 C 11.269531 6.238281 11.625 5.453125 11.625 4.390625 C 11.625 3.609375 11.285156 2.992188 10.609375 2.546875 C 9.941406 2.097656 9.035156 1.875 7.890625 1.875 C 7.078125 1.875 6.453125 1.765625 6.015625 1.546875 C 5.578125 1.328125 5.359375 0.953125 5.359375 0.421875 C 5.359375 0.234375 5.375 0.09375 5.40625 0 C 5.53125 -0.625 5.78125 -1.082031 6.15625 -1.375 C 6.53125 -1.675781 7.109375 -1.828125 7.890625 -1.828125 L 9.09375 -1.828125 C 11.25 -1.828125 12.960938 -1.3125 14.234375 -0.28125 C 15.515625 0.75 16.15625 2.179688 16.15625 4.015625 C 16.15625 5.484375 15.800781 6.800781 15.09375 7.96875 C 14.394531 9.132812 13.382812 10.039062 12.0625 10.6875 C 10.738281 11.34375 9.191406 11.671875 7.421875 11.671875 Z M 7.421875 11.671875 "/></g></g></g><g fill="#a6675f" fill-opacity="1"><g transform="translate(377.595829, 54.973797)"><g><path d="M 7.984375 0.234375 C 6.054688 0.234375 4.515625 -0.460938 3.359375 -1.859375 C 2.210938 -3.265625 1.640625 -5.101562 1.640625 -7.375 C 1.640625 -9.863281 2.210938 -12.222656 3.359375 -14.453125 C 4.515625 -16.679688 6.046875 -18.472656 7.953125 -19.828125 C 9.867188 -21.179688 11.90625 -21.859375 14.0625 -21.859375 C 14.738281 -21.859375 15.191406 -21.722656 15.421875 -21.453125 C 15.660156 -21.191406 15.859375 -20.71875 16.015625 -20.03125 C 16.671875 -20.15625 17.359375 -20.21875 18.078125 -20.21875 C 19.597656 -20.21875 20.359375 -19.675781 20.359375 -18.59375 C 20.359375 -17.9375 20.125 -16.378906 19.65625 -13.921875 C 18.945312 -10.335938 18.59375 -7.84375 18.59375 -6.4375 C 18.59375 -5.976562 18.707031 -5.609375 18.9375 -5.328125 C 19.164062 -5.046875 19.46875 -4.90625 19.84375 -4.90625 C 20.4375 -4.90625 21.15625 -5.285156 22 -6.046875 C 22.84375 -6.804688 23.976562 -8.046875 25.40625 -9.765625 C 25.78125 -10.203125 26.203125 -10.421875 26.671875 -10.421875 C 27.078125 -10.421875 27.394531 -10.234375 27.625 -9.859375 C 27.851562 -9.484375 27.96875 -8.96875 27.96875 -8.3125 C 27.96875 -7.0625 27.675781 -6.097656 27.09375 -5.421875 C 25.8125 -3.828125 24.453125 -2.484375 23.015625 -1.390625 C 21.585938 -0.304688 20.207031 0.234375 18.875 0.234375 C 17.84375 0.234375 16.898438 -0.113281 16.046875 -0.8125 C 15.191406 -1.519531 14.546875 -2.476562 14.109375 -3.6875 C 12.484375 -1.070312 10.441406 0.234375 7.984375 0.234375 Z M 9.671875 -4.484375 C 10.347656 -4.484375 11 -4.882812 11.625 -5.6875 C 12.25 -6.5 12.703125 -7.578125 12.984375 -8.921875 L 14.71875 -17.515625 C 13.40625 -17.484375 12.195312 -16.992188 11.09375 -16.046875 C 9.988281 -15.097656 9.109375 -13.84375 8.453125 -12.28125 C 7.796875 -10.726562 7.46875 -9.078125 7.46875 -7.328125 C 7.46875 -6.367188 7.660156 -5.65625 8.046875 -5.1875 C 8.441406 -4.71875 8.984375 -4.484375 9.671875 -4.484375 Z M 19.140625 -24.84375 C 18.640625 -24.84375 18.171875 -24.925781 17.734375 -25.09375 C 17.304688 -25.269531 16.75 -25.59375 16.0625 -26.0625 L 11.0625 -29.515625 L 9.015625 -26.578125 C 8.515625 -25.890625 7.8125 -25.546875 6.90625 -25.546875 C 6.34375 -25.546875 5.867188 -25.707031 5.484375 -26.03125 C 5.097656 -26.363281 4.90625 -26.8125 4.90625 -27.375 C 4.90625 -28.082031 5.476562 -29.28125 6.625 -30.96875 C 7.34375 -31.988281 8.039062 -32.738281 8.71875 -33.21875 C 9.40625 -33.707031 10.15625 -33.953125 10.96875 -33.953125 C 11.5 -33.953125 11.972656 -33.875 12.390625 -33.71875 C 12.816406 -33.5625 13.367188 -33.234375 14.046875 -32.734375 L 19.046875 -29.28125 L 21.109375 -32.21875 C 21.609375 -32.90625 22.304688 -33.25 23.203125 -33.25 C 23.765625 -33.25 24.238281 -33.082031 24.625 -32.75 C 25.019531 -32.425781 25.21875 -31.988281 25.21875 -31.4375 C 25.21875 -31 25.066406 -30.503906 24.765625 -29.953125 C 24.472656 -29.410156 24.046875 -28.703125 23.484375 -27.828125 C 22.765625 -26.804688 22.0625 -26.050781 21.375 -25.5625 C 20.695312 -25.082031 19.953125 -24.84375 19.140625 -24.84375 Z M 19.140625 -24.84375 "/></g></g></g><g fill="#a6675f" fill-opacity="1"><g transform="translate(399.546947, 54.973797)"><g><path d="M 26.0625 -14.34375 C 26.46875 -14.34375 26.78125 -14.140625 27 -13.734375 C 27.21875 -13.328125 27.328125 -12.8125 27.328125 -12.1875 C 27.328125 -10.695312 26.875 -9.8125 25.96875 -9.53125 C 24.101562 -8.875 22.046875 -8.5 19.796875 -8.40625 C 19.210938 -5.789062 18.046875 -3.695312 16.296875 -2.125 C 14.554688 -0.550781 12.582031 0.234375 10.375 0.234375 C 8.5 0.234375 6.898438 -0.210938 5.578125 -1.109375 C 4.253906 -2.015625 3.25 -3.210938 2.5625 -4.703125 C 1.882812 -6.203125 1.546875 -7.828125 1.546875 -9.578125 C 1.546875 -11.941406 1.992188 -14.050781 2.890625 -15.90625 C 3.796875 -17.757812 5.039062 -19.207031 6.625 -20.25 C 8.21875 -21.289062 9.976562 -21.8125 11.90625 -21.8125 C 14.269531 -21.8125 16.175781 -20.992188 17.625 -19.359375 C 19.070312 -17.722656 19.921875 -15.707031 20.171875 -13.3125 C 21.640625 -13.40625 23.382812 -13.71875 25.40625 -14.25 C 25.65625 -14.3125 25.875 -14.34375 26.0625 -14.34375 Z M 10.734375 -4.71875 C 11.734375 -4.71875 12.597656 -5.117188 13.328125 -5.921875 C 14.066406 -6.734375 14.5625 -7.90625 14.8125 -9.4375 C 13.84375 -10.09375 13.097656 -10.945312 12.578125 -12 C 12.066406 -13.0625 11.8125 -14.179688 11.8125 -15.359375 C 11.8125 -15.859375 11.859375 -16.359375 11.953125 -16.859375 L 11.71875 -16.859375 C 10.476562 -16.859375 9.441406 -16.257812 8.609375 -15.0625 C 7.785156 -13.863281 7.375 -12.175781 7.375 -10 C 7.375 -8.28125 7.707031 -6.96875 8.375 -6.0625 C 9.050781 -5.164062 9.835938 -4.71875 10.734375 -4.71875 Z M 10.734375 -4.71875 "/></g></g></g><g clip-path="url(#id6)"><path fill="#a6675f" d="M 88.679688 35.949219 C 91.542969 37.632812 94.265625 39.238281 95.652344 41.421875 C 97.039062 39.238281 99.761719 37.632812 102.628906 35.949219 C 108.140625 32.703125 114.386719 29.027344 114.386719 20.03125 C 114.257812 14.898438 110.101562 11.566406 106.261719 11.042969 C 102.648438 10.550781 98.078125 12.335938 96.078125 18.820312 C 96.023438 19.007812 95.847656 19.136719 95.652344 19.136719 C 95.457031 19.136719 95.285156 19.007812 95.226562 18.820312 C 93.433594 13.003906 89.566406 10.96875 86.183594 10.96875 C 85.796875 10.96875 85.414062 10.996094 85.046875 11.042969 C 81.203125 11.566406 77.050781 14.898438 76.917969 20.042969 C 76.921875 29.027344 83.167969 32.703125 88.679688 35.949219 Z M 88.679688 35.949219 " fill-opacity="1" fill-rule="nonzero"/></g><g clip-path="url(#id7)"><path fill="#a6675f" d="M 73.824219 44.746094 C 73.445312 44.289062 73.296875 43.695312 73.425781 43.113281 C 73.476562 42.863281 73.585938 42.636719 73.726562 42.4375 C 72.617188 42.09375 71.824219 41.921875 71.25 42.199219 C 70.949219 42.34375 70.734375 42.648438 70.683594 42.992188 C 70.660156 43.152344 70.660156 43.460938 70.917969 43.691406 C 71.617188 44.324219 72.421875 45.078125 73.355469 45.957031 C 75.609375 48.074219 78.414062 50.707031 81.25 52.953125 C 82.671875 54.105469 83.496094 54.613281 84.851562 54.785156 C 83.191406 53.230469 81.476562 51.757812 79.8125 50.332031 C 77.308594 48.1875 75.144531 46.332031 73.824219 44.746094 Z M 73.824219 44.746094 " fill-opacity="1" fill-rule="nonzero"/></g><g clip-path="url(#id8)"><path fill="#a6675f" d="M 116.210938 47.253906 C 116.089844 47.253906 115.972656 47.203125 115.890625 47.113281 C 115.804688 47.027344 115.761719 46.90625 115.765625 46.785156 C 115.769531 46.722656 115.816406 45.167969 114.328125 44.039062 C 112.761719 42.851562 109.222656 41.96875 101.261719 44.503906 L 100.988281 44.566406 C 97.851562 45.242188 95.960938 45.652344 92.847656 44.78125 L 92.546875 44.695312 C 91.066406 44.269531 87.988281 43.390625 86.441406 44.308594 C 85.980469 44.578125 85.695312 44.992188 85.570312 45.566406 C 85.5625 45.601562 85.550781 45.636719 85.53125 45.667969 C 85.53125 45.667969 85.488281 45.785156 85.539062 45.957031 C 85.542969 45.96875 85.546875 45.980469 85.550781 45.988281 C 85.558594 46.015625 85.566406 46.039062 85.578125 46.066406 C 85.699219 46.328125 86.109375 46.828125 87.492188 47.28125 C 89.429688 47.789062 92.621094 48.972656 94.296875 49.804688 C 95.398438 50.351562 96.710938 50.632812 98.308594 50.667969 C 98.546875 50.671875 98.789062 50.675781 99.03125 50.675781 C 100.121094 50.6875 101.25 50.699219 102.152344 50.929688 C 102.164062 50.933594 102.207031 50.949219 102.21875 50.949219 C 102.882812 51.167969 103.460938 51.359375 104.070312 52.386719 C 104.195312 52.597656 104.125 52.867188 103.910156 52.992188 C 103.699219 53.117188 103.425781 53.046875 103.300781 52.835938 C 102.859375 52.09375 102.550781 51.996094 101.9375 51.792969 C 101.128906 51.585938 100.058594 51.574219 99.023438 51.5625 C 98.777344 51.5625 98.53125 51.558594 98.289062 51.554688 C 96.558594 51.515625 95.121094 51.203125 93.898438 50.597656 C 92.269531 49.789062 89.15625 48.636719 87.238281 48.128906 C 85.878906 47.6875 85.046875 47.101562 84.746094 46.378906 C 84.742188 46.378906 84.742188 46.378906 84.742188 46.378906 C 80.402344 43.082031 77.695312 42.378906 76.1875 42.378906 C 75.476562 42.378906 75.03125 42.535156 74.800781 42.644531 C 74.542969 42.773438 74.359375 43.011719 74.296875 43.300781 C 74.226562 43.613281 74.304688 43.933594 74.511719 44.179688 C 75.785156 45.710938 77.921875 47.539062 80.394531 49.660156 C 82.109375 51.128906 83.882812 52.648438 85.601562 54.261719 C 86.050781 54.6875 86.550781 55.003906 87.09375 55.203125 C 90.878906 56.597656 100.851562 58.953125 105.175781 59.472656 C 106.429688 59.671875 107.421875 59.753906 108.609375 59.753906 L 125.089844 59.753906 L 125.089844 47.253906 Z M 116.210938 47.253906 " fill-opacity="1" fill-rule="nonzero"/></g></svg> 