<svg xmlns="http://www.w3.org/2000/svg" xmlns:xlink="http://www.w3.org/1999/xlink" width="91" zoomAndPan="magnify" viewBox="0 0 67.92 70.499999" height="94" preserveAspectRatio="xMidYMid meet" version="1.0"><defs><clipPath id="id1"><path d="M 0.199219 0 L 67.640625 0 L 67.640625 69.746094 L 0.199219 69.746094 Z M 0.199219 0 " clip-rule="nonzero"/></clipPath><clipPath id="id2"><path d="M 0.199219 0 L 67.640625 0 L 67.640625 69.746094 L 0.199219 69.746094 Z M 0.199219 0 " clip-rule="nonzero"/></clipPath><clipPath id="id3"><path d="M 15.832031 0 L 52.089844 0 C 60.722656 0 67.71875 6.941406 67.71875 15.5 L 67.71875 54.246094 C 67.71875 62.804688 60.722656 69.746094 52.089844 69.746094 L 15.832031 69.746094 C 7.199219 69.746094 0.199219 62.804688 0.199219 54.246094 L 0.199219 15.5 C 0.199219 6.941406 7.199219 0 15.832031 0 " clip-rule="nonzero"/></clipPath><clipPath id="id4"><path d="M 18.378906 19.390625 L 49.542969 19.390625 L 49.542969 50.554688 L 18.378906 50.554688 Z M 18.378906 19.390625 " clip-rule="nonzero"/></clipPath></defs><g clip-path="url(#id1)"><path fill="#ffffff" d="M 15.832031 0 L 52.089844 0 C 60.722656 0 67.71875 6.941406 67.71875 15.5 L 67.71875 54.246094 C 67.71875 62.804688 60.722656 69.746094 52.089844 69.746094 L 15.832031 69.746094 C 7.199219 69.746094 0.199219 62.804688 0.199219 54.246094 L 0.199219 15.5 C 0.199219 6.941406 7.199219 0 15.832031 0 " fill-opacity="1" fill-rule="nonzero"/></g><g clip-path="url(#id2)"><g clip-path="url(#id3)"><path stroke-linecap="butt" transform="matrix(0.744419, 0, 0, 0.738187, 0.199437, 0.000720845)" fill="none" stroke-linejoin="miter" d="M 20.999728 -0.000976507 L 69.705923 -0.000976507 C 81.302636 -0.000976507 90.700696 9.402346 90.700696 20.996426 L 90.700696 73.484642 C 90.700696 85.078722 81.302636 94.482045 69.705923 94.482045 L 20.999728 94.482045 C 9.403014 94.482045 -0.000293314 85.078722 -0.000293314 73.484642 L -0.000293314 20.996426 C -0.000293314 9.402346 9.403014 -0.000976507 20.999728 -0.000976507 " stroke="#389fd8" stroke-width="12" stroke-opacity="1" stroke-miterlimit="4"/></g></g><g clip-path="url(#id4)"><path fill="#389fd8" d="M 33.953125 19.390625 C 33.960938 19.390625 33.96875 19.390625 33.976562 19.390625 C 34.75 19.394531 35.453125 19.710938 35.964844 20.222656 C 36.476562 20.734375 36.792969 21.445312 36.792969 22.222656 L 36.796875 22.222656 L 36.796875 32.140625 L 46.710938 32.140625 C 47.488281 32.140625 48.199219 32.457031 48.710938 32.972656 C 49.222656 33.480469 49.539062 34.1875 49.542969 34.960938 C 49.542969 34.96875 49.542969 34.976562 49.542969 34.984375 C 49.539062 35.761719 49.222656 36.464844 48.710938 36.972656 C 48.199219 37.488281 47.492188 37.804688 46.710938 37.804688 L 36.796875 37.804688 L 36.796875 47.722656 C 36.796875 48.5 36.476562 49.210938 35.964844 49.722656 C 35.453125 50.234375 34.746094 50.550781 33.972656 50.554688 C 33.964844 50.554688 33.957031 50.554688 33.949219 50.554688 C 33.175781 50.550781 32.46875 50.234375 31.960938 49.722656 C 31.449219 49.210938 31.128906 48.503906 31.128906 47.722656 L 31.128906 37.804688 L 21.214844 37.804688 C 20.433594 37.804688 19.726562 37.488281 19.210938 36.972656 C 18.703125 36.464844 18.382812 35.757812 18.378906 34.984375 C 18.378906 34.976562 18.378906 34.96875 18.378906 34.960938 C 18.382812 34.183594 18.703125 33.480469 19.210938 32.972656 C 19.722656 32.460938 20.433594 32.140625 21.214844 32.140625 L 31.128906 32.140625 L 31.128906 22.222656 C 31.128906 21.445312 31.445312 20.734375 31.960938 20.222656 C 32.472656 19.710938 33.175781 19.394531 33.953125 19.390625 " fill-opacity="1" fill-rule="nonzero"/></g></svg>