<svg xmlns="http://www.w3.org/2000/svg" xmlns:xlink="http://www.w3.org/1999/xlink" width="718" zoomAndPan="magnify" viewBox="0 0 538.5 70.499998" height="94" preserveAspectRatio="xMidYMid meet" version="1.0"><defs><g/><clipPath id="id1"><path d="M 1.648438 0 L 536.355469 0 L 536.355469 70.003906 L 1.648438 70.003906 Z M 1.648438 0 " clip-rule="nonzero"/></clipPath><clipPath id="id2"><path d="M 70.917969 38 L 87 38 L 87 57.988281 L 70.917969 57.988281 Z M 70.917969 38 " clip-rule="nonzero"/></clipPath></defs><g clip-path="url(#id1)"><path fill="#a6a6a6" d="M 17.308594 0 L 521.191406 0 C 525.339844 0 529.324219 1.640625 532.257812 4.5625 C 535.191406 7.480469 536.839844 11.441406 536.839844 15.574219 L 536.839844 54.496094 C 536.839844 58.625 535.191406 62.585938 532.257812 65.507812 C 529.324219 68.429688 525.339844 70.070312 521.191406 70.070312 L 17.308594 70.070312 C 13.15625 70.070312 9.175781 68.429688 6.242188 65.507812 C 3.308594 62.585938 1.660156 58.625 1.660156 54.496094 L 1.660156 15.574219 C 1.660156 11.441406 3.308594 7.480469 6.242188 4.5625 C 9.175781 1.640625 13.15625 0 17.308594 0 " fill-opacity="1" fill-rule="nonzero"/></g><g fill="#000000" fill-opacity="1"><g transform="translate(113.522016, 54.973797)"><g><path d="M 38.4375 -27.828125 C 38.4375 -25.179688 37.75 -22.753906 36.375 -20.546875 C 35.007812 -18.335938 33.019531 -16.53125 30.40625 -15.125 C 27.789062 -13.726562 24.675781 -12.90625 21.0625 -12.65625 L 19.0625 -1.40625 C 18.28125 2.925781 16.160156 5.09375 12.703125 5.09375 C 10.804688 5.09375 9.054688 4.53125 7.453125 3.40625 C 5.847656 2.289062 4.5625 0.582031 3.59375 -1.71875 C 2.625 -4.03125 2.140625 -6.867188 2.140625 -10.234375 C 2.140625 -16.546875 3.160156 -21.90625 5.203125 -26.3125 C 7.242188 -30.71875 9.984375 -34.019531 13.421875 -36.21875 C 16.867188 -38.414062 20.660156 -39.515625 24.796875 -39.515625 C 27.722656 -39.515625 30.207031 -39 32.25 -37.96875 C 34.289062 -36.9375 35.832031 -35.539062 36.875 -33.78125 C 37.914062 -32.03125 38.4375 -30.046875 38.4375 -27.828125 Z M 21.90625 -17.46875 C 28.289062 -18.28125 31.484375 -21.597656 31.484375 -27.421875 C 31.484375 -29.472656 30.804688 -31.144531 29.453125 -32.4375 C 28.097656 -33.726562 26.003906 -34.375 23.171875 -34.375 C 19.960938 -34.375 17.164062 -33.359375 14.78125 -31.328125 C 12.394531 -29.304688 10.554688 -26.5 9.265625 -22.90625 C 7.972656 -19.3125 7.328125 -15.210938 7.328125 -10.609375 C 7.328125 -8.671875 7.519531 -6.953125 7.90625 -5.453125 C 8.300781 -3.960938 8.800781 -2.804688 9.40625 -1.984375 C 10.019531 -1.160156 10.601562 -0.75 11.15625 -0.75 C 11.9375 -0.75 12.53125 -1.820312 12.9375 -3.96875 L 14.484375 -12.796875 C 13.265625 -12.984375 12.734375 -13.0625 12.890625 -13.03125 C 11.953125 -13.1875 11.34375 -13.472656 11.0625 -13.890625 C 10.78125 -14.316406 10.640625 -14.851562 10.640625 -15.5 C 10.640625 -16.1875 10.832031 -16.734375 11.21875 -17.140625 C 11.613281 -17.546875 12.15625 -17.75 12.84375 -17.75 C 13.15625 -17.75 13.390625 -17.734375 13.546875 -17.703125 C 14.296875 -17.578125 14.867188 -17.5 15.265625 -17.46875 C 15.671875 -19.894531 16.25 -23.148438 17 -27.234375 C 17.1875 -28.285156 17.613281 -29.035156 18.28125 -29.484375 C 18.945312 -29.941406 19.734375 -30.171875 20.640625 -30.171875 C 21.671875 -30.171875 22.410156 -29.972656 22.859375 -29.578125 C 23.304688 -29.191406 23.53125 -28.578125 23.53125 -27.734375 C 23.53125 -27.242188 23.5 -26.84375 23.4375 -26.53125 Z M 21.90625 -17.46875 "/></g></g></g><g fill="#000000" fill-opacity="1"><g transform="translate(151.11915, 54.973797)"><g><path d="M 5.5625 0.234375 C 4.375 0.234375 3.535156 -0.382812 3.046875 -1.625 C 2.566406 -2.875 2.328125 -4.867188 2.328125 -7.609375 C 2.328125 -11.660156 2.90625 -15.503906 4.0625 -19.140625 C 4.34375 -20.046875 4.800781 -20.707031 5.4375 -21.125 C 6.070312 -21.550781 6.96875 -21.765625 8.125 -21.765625 C 8.75 -21.765625 9.1875 -21.6875 9.4375 -21.53125 C 9.6875 -21.375 9.8125 -21.078125 9.8125 -20.640625 C 9.8125 -20.140625 9.578125 -19.019531 9.109375 -17.28125 C 8.796875 -16.03125 8.546875 -14.9375 8.359375 -14 C 8.171875 -13.070312 8.015625 -11.925781 7.890625 -10.5625 C 8.921875 -13.238281 10.070312 -15.414062 11.34375 -17.09375 C 12.625 -18.769531 13.878906 -19.96875 15.109375 -20.6875 C 16.335938 -21.40625 17.46875 -21.765625 18.5 -21.765625 C 20.519531 -21.765625 21.53125 -20.753906 21.53125 -18.734375 C 21.53125 -18.328125 21.390625 -17.34375 21.109375 -15.78125 C 20.859375 -14.539062 20.734375 -13.765625 20.734375 -13.453125 C 20.734375 -12.359375 21.125 -11.8125 21.90625 -11.8125 C 22.78125 -11.8125 23.898438 -12.5 25.265625 -13.875 C 25.671875 -14.28125 26.09375 -14.484375 26.53125 -14.484375 C 26.9375 -14.484375 27.253906 -14.300781 27.484375 -13.9375 C 27.710938 -13.582031 27.828125 -13.109375 27.828125 -12.515625 C 27.828125 -11.359375 27.519531 -10.457031 26.90625 -9.8125 C 26.03125 -8.90625 25.007812 -8.128906 23.84375 -7.484375 C 22.675781 -6.847656 21.4375 -6.53125 20.125 -6.53125 C 18.476562 -6.53125 17.222656 -6.953125 16.359375 -7.796875 C 15.503906 -8.640625 15.078125 -9.773438 15.078125 -11.203125 C 15.078125 -11.671875 15.125 -12.140625 15.21875 -12.609375 C 15.28125 -13.234375 15.3125 -13.65625 15.3125 -13.875 C 15.3125 -14.375 15.144531 -14.625 14.8125 -14.625 C 14.34375 -14.625 13.722656 -14.097656 12.953125 -13.046875 C 12.191406 -12.003906 11.4375 -10.628906 10.6875 -8.921875 C 9.945312 -7.210938 9.34375 -5.40625 8.875 -3.5 C 8.53125 -2.039062 8.128906 -1.050781 7.671875 -0.53125 C 7.222656 -0.0195312 6.519531 0.234375 5.5625 0.234375 Z M 5.5625 0.234375 "/></g></g></g><g fill="#000000" fill-opacity="1"><g transform="translate(172.369707, 54.973797)"><g><path d="M 26.0625 -14.34375 C 26.46875 -14.34375 26.78125 -14.140625 27 -13.734375 C 27.21875 -13.328125 27.328125 -12.8125 27.328125 -12.1875 C 27.328125 -10.695312 26.875 -9.8125 25.96875 -9.53125 C 24.101562 -8.875 22.046875 -8.5 19.796875 -8.40625 C 19.210938 -5.789062 18.046875 -3.695312 16.296875 -2.125 C 14.554688 -0.550781 12.582031 0.234375 10.375 0.234375 C 8.5 0.234375 6.898438 -0.210938 5.578125 -1.109375 C 4.253906 -2.015625 3.25 -3.210938 2.5625 -4.703125 C 1.882812 -6.203125 1.546875 -7.828125 1.546875 -9.578125 C 1.546875 -11.941406 1.992188 -14.050781 2.890625 -15.90625 C 3.796875 -17.757812 5.039062 -19.207031 6.625 -20.25 C 8.21875 -21.289062 9.976562 -21.8125 11.90625 -21.8125 C 14.269531 -21.8125 16.175781 -20.992188 17.625 -19.359375 C 19.070312 -17.722656 19.921875 -15.707031 20.171875 -13.3125 C 21.640625 -13.40625 23.382812 -13.71875 25.40625 -14.25 C 25.65625 -14.3125 25.875 -14.34375 26.0625 -14.34375 Z M 10.734375 -4.71875 C 11.734375 -4.71875 12.597656 -5.117188 13.328125 -5.921875 C 14.066406 -6.734375 14.5625 -7.90625 14.8125 -9.4375 C 13.84375 -10.09375 13.097656 -10.945312 12.578125 -12 C 12.066406 -13.0625 11.8125 -14.179688 11.8125 -15.359375 C 11.8125 -15.859375 11.859375 -16.359375 11.953125 -16.859375 L 11.71875 -16.859375 C 10.476562 -16.859375 9.441406 -16.257812 8.609375 -15.0625 C 7.785156 -13.863281 7.375 -12.175781 7.375 -10 C 7.375 -8.28125 7.707031 -6.96875 8.375 -6.0625 C 9.050781 -5.164062 9.835938 -4.71875 10.734375 -4.71875 Z M 10.734375 -4.71875 "/></g></g></g><g fill="#000000" fill-opacity="1"><g transform="translate(193.433445, 54.973797)"><g><path d="M 11.15625 0.234375 C 8.101562 0.234375 5.726562 -0.628906 4.03125 -2.359375 C 2.34375 -4.085938 1.5 -6.367188 1.5 -9.203125 C 1.5 -11.722656 1.992188 -13.929688 2.984375 -15.828125 C 3.984375 -17.734375 5.273438 -19.195312 6.859375 -20.21875 C 8.453125 -21.25 10.117188 -21.765625 11.859375 -21.765625 C 13.578125 -21.765625 14.910156 -21.257812 15.859375 -20.25 C 16.804688 -19.238281 17.28125 -17.9375 17.28125 -16.34375 C 17.28125 -15.039062 16.988281 -13.9375 16.40625 -13.03125 C 15.832031 -12.125 15.082031 -11.671875 14.15625 -11.671875 C 13.5625 -11.671875 13.082031 -11.8125 12.71875 -12.09375 C 12.363281 -12.375 12.1875 -12.765625 12.1875 -13.265625 C 12.1875 -13.484375 12.21875 -13.734375 12.28125 -14.015625 C 12.34375 -14.296875 12.390625 -14.5 12.421875 -14.625 C 12.578125 -15.082031 12.65625 -15.515625 12.65625 -15.921875 C 12.65625 -16.328125 12.550781 -16.640625 12.34375 -16.859375 C 12.144531 -17.078125 11.859375 -17.1875 11.484375 -17.1875 C 10.773438 -17.1875 10.109375 -16.863281 9.484375 -16.21875 C 8.859375 -15.582031 8.359375 -14.71875 7.984375 -13.625 C 7.609375 -12.539062 7.421875 -11.347656 7.421875 -10.046875 C 7.421875 -6.429688 8.992188 -4.625 12.140625 -4.625 C 13.421875 -4.625 14.800781 -5.050781 16.28125 -5.90625 C 17.757812 -6.757812 19.210938 -8.046875 20.640625 -9.765625 C 21.015625 -10.203125 21.4375 -10.421875 21.90625 -10.421875 C 22.3125 -10.421875 22.628906 -10.234375 22.859375 -9.859375 C 23.097656 -9.484375 23.21875 -8.96875 23.21875 -8.3125 C 23.21875 -7.125 22.921875 -6.160156 22.328125 -5.421875 C 20.859375 -3.609375 19.101562 -2.210938 17.0625 -1.234375 C 15.03125 -0.253906 13.0625 0.234375 11.15625 0.234375 Z M 11.15625 0.234375 "/></g></g></g><g fill="#000000" fill-opacity="1"><g transform="translate(210.620702, 54.973797)"><g><path d="M 7 0.234375 C 5.601562 0.234375 4.457031 -0.410156 3.5625 -1.703125 C 2.675781 -2.992188 2.234375 -4.601562 2.234375 -6.53125 C 2.234375 -8.875 2.390625 -11.015625 2.703125 -12.953125 C 3.015625 -14.898438 3.53125 -16.960938 4.25 -19.140625 C 4.5625 -20.078125 4.992188 -20.75 5.546875 -21.15625 C 6.109375 -21.5625 7 -21.765625 8.21875 -21.765625 C 8.90625 -21.765625 9.378906 -21.65625 9.640625 -21.4375 C 9.910156 -21.21875 10.046875 -20.890625 10.046875 -20.453125 C 10.046875 -20.203125 9.875 -19.363281 9.53125 -17.9375 C 9.21875 -16.78125 8.96875 -15.738281 8.78125 -14.8125 C 8.15625 -11.539062 7.84375 -9.359375 7.84375 -8.265625 C 7.84375 -7.609375 7.921875 -7.144531 8.078125 -6.875 C 8.234375 -6.613281 8.484375 -6.484375 8.828125 -6.484375 C 9.296875 -6.484375 9.878906 -6.953125 10.578125 -7.890625 C 11.273438 -8.828125 12.019531 -10.242188 12.8125 -12.140625 C 13.613281 -14.035156 14.382812 -16.367188 15.125 -19.140625 C 15.375 -20.078125 15.753906 -20.75 16.265625 -21.15625 C 16.785156 -21.5625 17.5625 -21.765625 18.59375 -21.765625 C 19.300781 -21.765625 19.796875 -21.675781 20.078125 -21.5 C 20.359375 -21.332031 20.5 -21.015625 20.5 -20.546875 C 20.5 -19.765625 20.109375 -17.632812 19.328125 -14.15625 C 18.460938 -10.164062 18.03125 -7.703125 18.03125 -6.765625 C 18.03125 -6.179688 18.15625 -5.722656 18.40625 -5.390625 C 18.65625 -5.066406 18.976562 -4.90625 19.375 -4.90625 C 20 -4.90625 20.738281 -5.285156 21.59375 -6.046875 C 22.457031 -6.804688 23.601562 -8.046875 25.03125 -9.765625 C 25.40625 -10.203125 25.828125 -10.421875 26.296875 -10.421875 C 26.703125 -10.421875 27.019531 -10.234375 27.25 -9.859375 C 27.476562 -9.484375 27.59375 -8.96875 27.59375 -8.3125 C 27.59375 -7.0625 27.300781 -6.097656 26.71875 -5.421875 C 25.375 -3.765625 23.929688 -2.40625 22.390625 -1.34375 C 20.847656 -0.289062 19.097656 0.234375 17.140625 0.234375 C 15.640625 0.234375 14.539062 -0.335938 13.84375 -1.484375 C 13.144531 -2.640625 12.796875 -4.265625 12.796875 -6.359375 C 12.265625 -4.234375 11.46875 -2.601562 10.40625 -1.46875 C 9.351562 -0.332031 8.21875 0.234375 7 0.234375 Z M 7 0.234375 "/></g></g></g><g fill="#000000" fill-opacity="1"><g transform="translate(232.198183, 54.973797)"><g><path d="M 5.5625 0.234375 C 4.375 0.234375 3.535156 -0.382812 3.046875 -1.625 C 2.566406 -2.875 2.328125 -4.867188 2.328125 -7.609375 C 2.328125 -11.660156 2.90625 -15.503906 4.0625 -19.140625 C 4.34375 -20.046875 4.800781 -20.707031 5.4375 -21.125 C 6.070312 -21.550781 6.96875 -21.765625 8.125 -21.765625 C 8.75 -21.765625 9.1875 -21.6875 9.4375 -21.53125 C 9.6875 -21.375 9.8125 -21.078125 9.8125 -20.640625 C 9.8125 -20.140625 9.578125 -19.019531 9.109375 -17.28125 C 8.796875 -16.03125 8.546875 -14.9375 8.359375 -14 C 8.171875 -13.070312 8.015625 -11.925781 7.890625 -10.5625 C 8.921875 -13.238281 10.070312 -15.414062 11.34375 -17.09375 C 12.625 -18.769531 13.878906 -19.96875 15.109375 -20.6875 C 16.335938 -21.40625 17.46875 -21.765625 18.5 -21.765625 C 20.519531 -21.765625 21.53125 -20.753906 21.53125 -18.734375 C 21.53125 -18.328125 21.390625 -17.34375 21.109375 -15.78125 C 20.859375 -14.539062 20.734375 -13.765625 20.734375 -13.453125 C 20.734375 -12.359375 21.125 -11.8125 21.90625 -11.8125 C 22.78125 -11.8125 23.898438 -12.5 25.265625 -13.875 C 25.671875 -14.28125 26.09375 -14.484375 26.53125 -14.484375 C 26.9375 -14.484375 27.253906 -14.300781 27.484375 -13.9375 C 27.710938 -13.582031 27.828125 -13.109375 27.828125 -12.515625 C 27.828125 -11.359375 27.519531 -10.457031 26.90625 -9.8125 C 26.03125 -8.90625 25.007812 -8.128906 23.84375 -7.484375 C 22.675781 -6.847656 21.4375 -6.53125 20.125 -6.53125 C 18.476562 -6.53125 17.222656 -6.953125 16.359375 -7.796875 C 15.503906 -8.640625 15.078125 -9.773438 15.078125 -11.203125 C 15.078125 -11.671875 15.125 -12.140625 15.21875 -12.609375 C 15.28125 -13.234375 15.3125 -13.65625 15.3125 -13.875 C 15.3125 -14.375 15.144531 -14.625 14.8125 -14.625 C 14.34375 -14.625 13.722656 -14.097656 12.953125 -13.046875 C 12.191406 -12.003906 11.4375 -10.628906 10.6875 -8.921875 C 9.945312 -7.210938 9.34375 -5.40625 8.875 -3.5 C 8.53125 -2.039062 8.128906 -1.050781 7.671875 -0.53125 C 7.222656 -0.0195312 6.519531 0.234375 5.5625 0.234375 Z M 5.5625 0.234375 "/></g></g></g><g fill="#000000" fill-opacity="1"><g transform="translate(253.448739, 54.973797)"><g><path d="M 7.984375 0.234375 C 6.054688 0.234375 4.515625 -0.460938 3.359375 -1.859375 C 2.210938 -3.265625 1.640625 -5.101562 1.640625 -7.375 C 1.640625 -9.863281 2.210938 -12.222656 3.359375 -14.453125 C 4.515625 -16.679688 6.046875 -18.472656 7.953125 -19.828125 C 9.867188 -21.179688 11.90625 -21.859375 14.0625 -21.859375 C 14.738281 -21.859375 15.191406 -21.722656 15.421875 -21.453125 C 15.660156 -21.191406 15.859375 -20.71875 16.015625 -20.03125 C 16.671875 -20.15625 17.359375 -20.21875 18.078125 -20.21875 C 19.597656 -20.21875 20.359375 -19.675781 20.359375 -18.59375 C 20.359375 -17.9375 20.125 -16.378906 19.65625 -13.921875 C 18.945312 -10.335938 18.59375 -7.84375 18.59375 -6.4375 C 18.59375 -5.976562 18.707031 -5.609375 18.9375 -5.328125 C 19.164062 -5.046875 19.46875 -4.90625 19.84375 -4.90625 C 20.4375 -4.90625 21.15625 -5.285156 22 -6.046875 C 22.84375 -6.804688 23.976562 -8.046875 25.40625 -9.765625 C 25.78125 -10.203125 26.203125 -10.421875 26.671875 -10.421875 C 27.078125 -10.421875 27.394531 -10.234375 27.625 -9.859375 C 27.851562 -9.484375 27.96875 -8.96875 27.96875 -8.3125 C 27.96875 -7.0625 27.675781 -6.097656 27.09375 -5.421875 C 25.8125 -3.828125 24.453125 -2.484375 23.015625 -1.390625 C 21.585938 -0.304688 20.207031 0.234375 18.875 0.234375 C 17.84375 0.234375 16.898438 -0.113281 16.046875 -0.8125 C 15.191406 -1.519531 14.546875 -2.476562 14.109375 -3.6875 C 12.484375 -1.070312 10.441406 0.234375 7.984375 0.234375 Z M 9.671875 -4.484375 C 10.347656 -4.484375 11 -4.882812 11.625 -5.6875 C 12.25 -6.5 12.703125 -7.578125 12.984375 -8.921875 L 14.71875 -17.515625 C 13.40625 -17.484375 12.195312 -16.992188 11.09375 -16.046875 C 9.988281 -15.097656 9.109375 -13.84375 8.453125 -12.28125 C 7.796875 -10.726562 7.46875 -9.078125 7.46875 -7.328125 C 7.46875 -6.367188 7.660156 -5.65625 8.046875 -5.1875 C 8.441406 -4.71875 8.984375 -4.484375 9.671875 -4.484375 Z M 9.671875 -4.484375 "/></g></g></g><g fill="#000000" fill-opacity="1"><g transform="translate(275.399857, 54.973797)"><g><path d="M 5.5625 0.234375 C 4.375 0.234375 3.535156 -0.382812 3.046875 -1.625 C 2.566406 -2.875 2.328125 -4.867188 2.328125 -7.609375 C 2.328125 -11.660156 2.90625 -15.503906 4.0625 -19.140625 C 4.34375 -20.046875 4.800781 -20.707031 5.4375 -21.125 C 6.070312 -21.550781 6.96875 -21.765625 8.125 -21.765625 C 8.75 -21.765625 9.1875 -21.6875 9.4375 -21.53125 C 9.6875 -21.375 9.8125 -21.078125 9.8125 -20.640625 C 9.8125 -20.140625 9.578125 -19.019531 9.109375 -17.28125 C 8.796875 -16.03125 8.546875 -14.9375 8.359375 -14 C 8.171875 -13.070312 8.015625 -11.925781 7.890625 -10.5625 C 8.921875 -13.238281 10.070312 -15.414062 11.34375 -17.09375 C 12.625 -18.769531 13.878906 -19.96875 15.109375 -20.6875 C 16.335938 -21.40625 17.46875 -21.765625 18.5 -21.765625 C 20.519531 -21.765625 21.53125 -20.753906 21.53125 -18.734375 C 21.53125 -18.328125 21.390625 -17.34375 21.109375 -15.78125 C 20.859375 -14.539062 20.734375 -13.765625 20.734375 -13.453125 C 20.734375 -12.359375 21.125 -11.8125 21.90625 -11.8125 C 22.78125 -11.8125 23.898438 -12.5 25.265625 -13.875 C 25.671875 -14.28125 26.09375 -14.484375 26.53125 -14.484375 C 26.9375 -14.484375 27.253906 -14.300781 27.484375 -13.9375 C 27.710938 -13.582031 27.828125 -13.109375 27.828125 -12.515625 C 27.828125 -11.359375 27.519531 -10.457031 26.90625 -9.8125 C 26.03125 -8.90625 25.007812 -8.128906 23.84375 -7.484375 C 22.675781 -6.847656 21.4375 -6.53125 20.125 -6.53125 C 18.476562 -6.53125 17.222656 -6.953125 16.359375 -7.796875 C 15.503906 -8.640625 15.078125 -9.773438 15.078125 -11.203125 C 15.078125 -11.671875 15.125 -12.140625 15.21875 -12.609375 C 15.28125 -13.234375 15.3125 -13.65625 15.3125 -13.875 C 15.3125 -14.375 15.144531 -14.625 14.8125 -14.625 C 14.34375 -14.625 13.722656 -14.097656 12.953125 -13.046875 C 12.191406 -12.003906 11.4375 -10.628906 10.6875 -8.921875 C 9.945312 -7.210938 9.34375 -5.40625 8.875 -3.5 C 8.53125 -2.039062 8.128906 -1.050781 7.671875 -0.53125 C 7.222656 -0.0195312 6.519531 0.234375 5.5625 0.234375 Z M 5.5625 0.234375 "/></g></g></g><g fill="#000000" fill-opacity="1"><g transform="translate(296.650413, 54.973797)"><g/></g></g><g fill="#000000" fill-opacity="1"><g transform="translate(309.027107, 54.973797)"><g><path d="M 14.390625 0.234375 C 12.578125 0.234375 10.535156 0.078125 8.265625 -0.234375 C 7.015625 -0.390625 6.15625 -0.71875 5.6875 -1.21875 C 5.226562 -1.71875 5.03125 -2.523438 5.09375 -3.640625 C 5.3125 -6.722656 5.820312 -10.53125 6.625 -15.0625 C 7.4375 -19.59375 8.421875 -23.957031 9.578125 -28.15625 C 9.796875 -28.9375 10.226562 -29.484375 10.875 -29.796875 C 11.53125 -30.109375 12.390625 -30.265625 13.453125 -30.265625 C 15.347656 -30.265625 16.296875 -29.734375 16.296875 -28.671875 C 16.296875 -28.234375 16.203125 -27.738281 16.015625 -27.1875 C 15.210938 -24.6875 14.40625 -21.34375 13.59375 -17.15625 C 12.78125 -12.96875 12.203125 -8.976562 11.859375 -5.1875 C 12.796875 -5.09375 13.851562 -5.046875 15.03125 -5.046875 C 20.488281 -5.046875 24.5625 -6.691406 27.25 -9.984375 C 29.945312 -13.285156 31.296875 -17.695312 31.296875 -23.21875 C 31.296875 -26.914062 30.234375 -29.773438 28.109375 -31.796875 C 25.992188 -33.828125 23.003906 -34.84375 19.140625 -34.84375 C 16.648438 -34.84375 14.179688 -34.453125 11.734375 -33.671875 C 9.296875 -32.890625 7.097656 -31.863281 5.140625 -30.59375 C 4.734375 -30.3125 4.296875 -30.171875 3.828125 -30.171875 C 3.296875 -30.171875 2.875 -30.394531 2.5625 -30.84375 C 2.257812 -31.300781 2.109375 -31.851562 2.109375 -32.5 C 2.109375 -33.25 2.226562 -33.863281 2.46875 -34.34375 C 2.71875 -34.832031 3.140625 -35.28125 3.734375 -35.6875 C 5.878906 -37.144531 8.398438 -38.253906 11.296875 -39.015625 C 14.191406 -39.785156 16.976562 -40.171875 19.65625 -40.171875 C 23.457031 -40.171875 26.742188 -39.503906 29.515625 -38.171875 C 32.285156 -36.847656 34.414062 -34.910156 35.90625 -32.359375 C 37.40625 -29.804688 38.15625 -26.726562 38.15625 -23.125 C 38.15625 -18.414062 37.21875 -14.3125 35.34375 -10.8125 C 33.476562 -7.3125 30.753906 -4.59375 27.171875 -2.65625 C 23.597656 -0.726562 19.335938 0.234375 14.390625 0.234375 Z M 14.390625 0.234375 "/></g></g></g><g fill="#000000" fill-opacity="1"><g transform="translate(348.072079, 54.973797)"><g><path d="M 26.0625 -14.34375 C 26.46875 -14.34375 26.78125 -14.140625 27 -13.734375 C 27.21875 -13.328125 27.328125 -12.8125 27.328125 -12.1875 C 27.328125 -10.695312 26.875 -9.8125 25.96875 -9.53125 C 24.101562 -8.875 22.046875 -8.5 19.796875 -8.40625 C 19.210938 -5.789062 18.046875 -3.695312 16.296875 -2.125 C 14.554688 -0.550781 12.582031 0.234375 10.375 0.234375 C 8.5 0.234375 6.898438 -0.210938 5.578125 -1.109375 C 4.253906 -2.015625 3.25 -3.210938 2.5625 -4.703125 C 1.882812 -6.203125 1.546875 -7.828125 1.546875 -9.578125 C 1.546875 -11.941406 1.992188 -14.050781 2.890625 -15.90625 C 3.796875 -17.757812 5.039062 -19.207031 6.625 -20.25 C 8.21875 -21.289062 9.976562 -21.8125 11.90625 -21.8125 C 14.269531 -21.8125 16.175781 -20.992188 17.625 -19.359375 C 19.070312 -17.722656 19.921875 -15.707031 20.171875 -13.3125 C 21.640625 -13.40625 23.382812 -13.71875 25.40625 -14.25 C 25.65625 -14.3125 25.875 -14.34375 26.0625 -14.34375 Z M 10.734375 -4.71875 C 11.734375 -4.71875 12.597656 -5.117188 13.328125 -5.921875 C 14.066406 -6.734375 14.5625 -7.90625 14.8125 -9.4375 C 13.84375 -10.09375 13.097656 -10.945312 12.578125 -12 C 12.066406 -13.0625 11.8125 -14.179688 11.8125 -15.359375 C 11.8125 -15.859375 11.859375 -16.359375 11.953125 -16.859375 L 11.71875 -16.859375 C 10.476562 -16.859375 9.441406 -16.257812 8.609375 -15.0625 C 7.785156 -13.863281 7.375 -12.175781 7.375 -10 C 7.375 -8.28125 7.707031 -6.96875 8.375 -6.0625 C 9.050781 -5.164062 9.835938 -4.71875 10.734375 -4.71875 Z M 10.734375 -4.71875 "/></g></g></g><g fill="#000000" fill-opacity="1"><g transform="translate(369.135817, 54.973797)"><g><path d="M 7.984375 0.234375 C 6.054688 0.234375 4.515625 -0.460938 3.359375 -1.859375 C 2.210938 -3.265625 1.640625 -5.101562 1.640625 -7.375 C 1.640625 -9.863281 2.210938 -12.222656 3.359375 -14.453125 C 4.515625 -16.679688 6.046875 -18.472656 7.953125 -19.828125 C 9.867188 -21.179688 11.90625 -21.859375 14.0625 -21.859375 C 14.738281 -21.859375 15.191406 -21.722656 15.421875 -21.453125 C 15.660156 -21.191406 15.859375 -20.71875 16.015625 -20.03125 C 16.671875 -20.15625 17.359375 -20.21875 18.078125 -20.21875 C 19.597656 -20.21875 20.359375 -19.675781 20.359375 -18.59375 C 20.359375 -17.9375 20.125 -16.378906 19.65625 -13.921875 C 18.945312 -10.335938 18.59375 -7.84375 18.59375 -6.4375 C 18.59375 -5.976562 18.707031 -5.609375 18.9375 -5.328125 C 19.164062 -5.046875 19.46875 -4.90625 19.84375 -4.90625 C 20.4375 -4.90625 21.15625 -5.285156 22 -6.046875 C 22.84375 -6.804688 23.976562 -8.046875 25.40625 -9.765625 C 25.78125 -10.203125 26.203125 -10.421875 26.671875 -10.421875 C 27.078125 -10.421875 27.394531 -10.234375 27.625 -9.859375 C 27.851562 -9.484375 27.96875 -8.96875 27.96875 -8.3125 C 27.96875 -7.0625 27.675781 -6.097656 27.09375 -5.421875 C 25.8125 -3.828125 24.453125 -2.484375 23.015625 -1.390625 C 21.585938 -0.304688 20.207031 0.234375 18.875 0.234375 C 17.84375 0.234375 16.898438 -0.113281 16.046875 -0.8125 C 15.191406 -1.519531 14.546875 -2.476562 14.109375 -3.6875 C 12.484375 -1.070312 10.441406 0.234375 7.984375 0.234375 Z M 9.671875 -4.484375 C 10.347656 -4.484375 11 -4.882812 11.625 -5.6875 C 12.25 -6.5 12.703125 -7.578125 12.984375 -8.921875 L 14.71875 -17.515625 C 13.40625 -17.484375 12.195312 -16.992188 11.09375 -16.046875 C 9.988281 -15.097656 9.109375 -13.84375 8.453125 -12.28125 C 7.796875 -10.726562 7.46875 -9.078125 7.46875 -7.328125 C 7.46875 -6.367188 7.660156 -5.65625 8.046875 -5.1875 C 8.441406 -4.71875 8.984375 -4.484375 9.671875 -4.484375 Z M 9.671875 -4.484375 "/></g></g></g><g fill="#000000" fill-opacity="1"><g transform="translate(391.086935, 54.973797)"><g><path d="M 11.15625 0.234375 C 8.101562 0.234375 5.726562 -0.628906 4.03125 -2.359375 C 2.34375 -4.085938 1.5 -6.367188 1.5 -9.203125 C 1.5 -11.722656 1.992188 -13.929688 2.984375 -15.828125 C 3.984375 -17.734375 5.273438 -19.195312 6.859375 -20.21875 C 8.453125 -21.25 10.117188 -21.765625 11.859375 -21.765625 C 13.578125 -21.765625 14.910156 -21.257812 15.859375 -20.25 C 16.804688 -19.238281 17.28125 -17.9375 17.28125 -16.34375 C 17.28125 -15.039062 16.988281 -13.9375 16.40625 -13.03125 C 15.832031 -12.125 15.082031 -11.671875 14.15625 -11.671875 C 13.5625 -11.671875 13.082031 -11.8125 12.71875 -12.09375 C 12.363281 -12.375 12.1875 -12.765625 12.1875 -13.265625 C 12.1875 -13.484375 12.21875 -13.734375 12.28125 -14.015625 C 12.34375 -14.296875 12.390625 -14.5 12.421875 -14.625 C 12.578125 -15.082031 12.65625 -15.515625 12.65625 -15.921875 C 12.65625 -16.328125 12.550781 -16.640625 12.34375 -16.859375 C 12.144531 -17.078125 11.859375 -17.1875 11.484375 -17.1875 C 10.773438 -17.1875 10.109375 -16.863281 9.484375 -16.21875 C 8.859375 -15.582031 8.359375 -14.71875 7.984375 -13.625 C 7.609375 -12.539062 7.421875 -11.347656 7.421875 -10.046875 C 7.421875 -6.429688 8.992188 -4.625 12.140625 -4.625 C 13.421875 -4.625 14.800781 -5.050781 16.28125 -5.90625 C 17.757812 -6.757812 19.210938 -8.046875 20.640625 -9.765625 C 21.015625 -10.203125 21.4375 -10.421875 21.90625 -10.421875 C 22.3125 -10.421875 22.628906 -10.234375 22.859375 -9.859375 C 23.097656 -9.484375 23.21875 -8.96875 23.21875 -8.3125 C 23.21875 -7.125 22.921875 -6.160156 22.328125 -5.421875 C 20.859375 -3.609375 19.101562 -2.210938 17.0625 -1.234375 C 15.03125 -0.253906 13.0625 0.234375 11.15625 0.234375 Z M 7.421875 11.671875 C 6.234375 11.671875 5.269531 11.59375 4.53125 11.4375 C 3.3125 11.21875 2.703125 10.535156 2.703125 9.390625 C 2.703125 7.984375 3.328125 7.28125 4.578125 7.28125 C 4.816406 7.28125 5.015625 7.296875 5.171875 7.328125 C 6.015625 7.453125 6.84375 7.515625 7.65625 7.515625 C 8.894531 7.515625 9.863281 7.257812 10.5625 6.75 C 11.269531 6.238281 11.625 5.453125 11.625 4.390625 C 11.625 3.609375 11.285156 2.992188 10.609375 2.546875 C 9.941406 2.097656 9.035156 1.875 7.890625 1.875 C 7.078125 1.875 6.453125 1.765625 6.015625 1.546875 C 5.578125 1.328125 5.359375 0.953125 5.359375 0.421875 C 5.359375 0.234375 5.375 0.09375 5.40625 0 C 5.53125 -0.625 5.78125 -1.082031 6.15625 -1.375 C 6.53125 -1.675781 7.109375 -1.828125 7.890625 -1.828125 L 9.09375 -1.828125 C 11.25 -1.828125 12.960938 -1.3125 14.234375 -0.28125 C 15.515625 0.75 16.15625 2.179688 16.15625 4.015625 C 16.15625 5.484375 15.800781 6.800781 15.09375 7.96875 C 14.394531 9.132812 13.382812 10.039062 12.0625 10.6875 C 10.738281 11.34375 9.191406 11.671875 7.421875 11.671875 Z M 7.421875 11.671875 "/></g></g></g><g fill="#000000" fill-opacity="1"><g transform="translate(408.274192, 54.973797)"><g><path d="M 26.0625 -14.34375 C 26.46875 -14.34375 26.78125 -14.140625 27 -13.734375 C 27.21875 -13.328125 27.328125 -12.8125 27.328125 -12.1875 C 27.328125 -10.695312 26.875 -9.8125 25.96875 -9.53125 C 24.101562 -8.875 22.046875 -8.5 19.796875 -8.40625 C 19.210938 -5.789062 18.046875 -3.695312 16.296875 -2.125 C 14.554688 -0.550781 12.582031 0.234375 10.375 0.234375 C 8.5 0.234375 6.898438 -0.210938 5.578125 -1.109375 C 4.253906 -2.015625 3.25 -3.210938 2.5625 -4.703125 C 1.882812 -6.203125 1.546875 -7.828125 1.546875 -9.578125 C 1.546875 -11.941406 1.992188 -14.050781 2.890625 -15.90625 C 3.796875 -17.757812 5.039062 -19.207031 6.625 -20.25 C 8.21875 -21.289062 9.976562 -21.8125 11.90625 -21.8125 C 14.269531 -21.8125 16.175781 -20.992188 17.625 -19.359375 C 19.070312 -17.722656 19.921875 -15.707031 20.171875 -13.3125 C 21.640625 -13.40625 23.382812 -13.71875 25.40625 -14.25 C 25.65625 -14.3125 25.875 -14.34375 26.0625 -14.34375 Z M 10.734375 -4.71875 C 11.734375 -4.71875 12.597656 -5.117188 13.328125 -5.921875 C 14.066406 -6.734375 14.5625 -7.90625 14.8125 -9.4375 C 13.84375 -10.09375 13.097656 -10.945312 12.578125 -12 C 12.066406 -13.0625 11.8125 -14.179688 11.8125 -15.359375 C 11.8125 -15.859375 11.859375 -16.359375 11.953125 -16.859375 L 11.71875 -16.859375 C 10.476562 -16.859375 9.441406 -16.257812 8.609375 -15.0625 C 7.785156 -13.863281 7.375 -12.175781 7.375 -10 C 7.375 -8.28125 7.707031 -6.96875 8.375 -6.0625 C 9.050781 -5.164062 9.835938 -4.71875 10.734375 -4.71875 Z M 17 -24.84375 C 16.5 -24.84375 16.03125 -24.925781 15.59375 -25.09375 C 15.164062 -25.269531 14.609375 -25.59375 13.921875 -26.0625 L 8.921875 -29.515625 L 6.875 -26.578125 C 6.375 -25.890625 5.671875 -25.546875 4.765625 -25.546875 C 4.203125 -25.546875 3.726562 -25.707031 3.34375 -26.03125 C 2.957031 -26.363281 2.765625 -26.8125 2.765625 -27.375 C 2.765625 -28.082031 3.335938 -29.28125 4.484375 -30.96875 C 5.203125 -31.988281 5.898438 -32.738281 6.578125 -33.21875 C 7.265625 -33.707031 8.015625 -33.953125 8.828125 -33.953125 C 9.359375 -33.953125 9.832031 -33.875 10.25 -33.71875 C 10.675781 -33.5625 11.226562 -33.234375 11.90625 -32.734375 L 16.90625 -29.28125 L 18.96875 -32.21875 C 19.46875 -32.90625 20.164062 -33.25 21.0625 -33.25 C 21.625 -33.25 22.097656 -33.082031 22.484375 -32.75 C 22.878906 -32.425781 23.078125 -31.988281 23.078125 -31.4375 C 23.078125 -31 22.925781 -30.503906 22.625 -29.953125 C 22.332031 -29.410156 21.90625 -28.703125 21.34375 -27.828125 C 20.625 -26.804688 19.921875 -26.050781 19.234375 -25.5625 C 18.554688 -25.082031 17.8125 -24.84375 17 -24.84375 Z M 17 -24.84375 "/></g></g></g><g fill="#000000" fill-opacity="1"><g transform="translate(429.33793, 54.973797)"><g><path d="M 23.078125 -10.421875 C 23.472656 -10.421875 23.785156 -10.234375 24.015625 -9.859375 C 24.253906 -9.484375 24.375 -8.96875 24.375 -8.3125 C 24.375 -7.0625 24.078125 -6.097656 23.484375 -5.421875 C 22.335938 -4.015625 20.710938 -2.71875 18.609375 -1.53125 C 16.503906 -0.351562 14.253906 0.234375 11.859375 0.234375 C 8.585938 0.234375 6.050781 -0.648438 4.25 -2.421875 C 2.445312 -4.203125 1.546875 -6.632812 1.546875 -9.71875 C 1.546875 -11.863281 1.992188 -13.863281 2.890625 -15.71875 C 3.796875 -17.570312 5.050781 -19.039062 6.65625 -20.125 C 8.257812 -21.21875 10.070312 -21.765625 12.09375 -21.765625 C 13.90625 -21.765625 15.351562 -21.226562 16.4375 -20.15625 C 17.53125 -19.082031 18.078125 -17.625 18.078125 -15.78125 C 18.078125 -13.632812 17.304688 -11.789062 15.765625 -10.25 C 14.222656 -8.707031 11.613281 -7.484375 7.9375 -6.578125 C 8.71875 -5.148438 10.195312 -4.4375 12.375 -4.4375 C 13.78125 -4.4375 15.375 -4.925781 17.15625 -5.90625 C 18.945312 -6.882812 20.5 -8.171875 21.8125 -9.765625 C 22.1875 -10.203125 22.609375 -10.421875 23.078125 -10.421875 Z M 11.296875 -17.1875 C 10.148438 -17.1875 9.175781 -16.515625 8.375 -15.171875 C 7.582031 -13.835938 7.1875 -12.222656 7.1875 -10.328125 L 7.1875 -10.234375 C 9.03125 -10.660156 10.476562 -11.3125 11.53125 -12.1875 C 12.59375 -13.0625 13.125 -14.070312 13.125 -15.21875 C 13.125 -15.8125 12.957031 -16.285156 12.625 -16.640625 C 12.300781 -17.003906 11.859375 -17.1875 11.296875 -17.1875 Z M 11.296875 -17.1875 "/></g></g></g><g fill="#000000" fill-opacity="1"><g transform="translate(447.692802, 54.973797)"><g><path d="M 10.921875 1.265625 C 9.304688 1.265625 8.070312 0.890625 7.21875 0.140625 C 6.363281 -0.609375 5.9375 -1.445312 5.9375 -2.375 C 5.9375 -3.1875 6.226562 -3.890625 6.8125 -4.484375 C 7.40625 -5.078125 8.28125 -5.375 9.4375 -5.375 C 9.84375 -5.375 10.316406 -5.332031 10.859375 -5.25 C 11.398438 -5.175781 11.8125 -5.125 12.09375 -5.09375 C 12.0625 -5.90625 11.878906 -6.664062 11.546875 -7.375 C 11.222656 -8.09375 10.8125 -8.785156 10.3125 -9.453125 C 9.820312 -10.128906 9.359375 -10.710938 8.921875 -11.203125 C 7.953125 -9.367188 6.992188 -7.84375 6.046875 -6.625 C 5.097656 -5.414062 4.0625 -4.265625 2.9375 -3.171875 C 2.382812 -2.609375 1.796875 -2.328125 1.171875 -2.328125 C 0.671875 -2.328125 0.265625 -2.503906 -0.046875 -2.859375 C -0.359375 -3.222656 -0.515625 -3.671875 -0.515625 -4.203125 C -0.515625 -4.828125 -0.296875 -5.40625 0.140625 -5.9375 L 0.75 -6.671875 C 2.457031 -8.796875 3.75 -10.539062 4.625 -11.90625 C 5.15625 -12.8125 5.773438 -14.019531 6.484375 -15.53125 C 7.203125 -17.039062 7.90625 -18.601562 8.59375 -20.21875 C 9.1875 -21.59375 10.414062 -22.28125 12.28125 -22.28125 C 13.15625 -22.28125 13.765625 -22.203125 14.109375 -22.046875 C 14.453125 -21.890625 14.625 -21.640625 14.625 -21.296875 C 14.625 -21.109375 14.5625 -20.8125 14.4375 -20.40625 C 14.3125 -20 14.140625 -19.59375 13.921875 -19.1875 C 13.359375 -18.070312 13.078125 -17.125 13.078125 -16.34375 C 13.078125 -15.875 13.238281 -15.359375 13.5625 -14.796875 C 13.894531 -14.242188 14.398438 -13.546875 15.078125 -12.703125 C 16.078125 -11.390625 16.832031 -10.273438 17.34375 -9.359375 C 17.863281 -8.441406 18.125 -7.441406 18.125 -6.359375 C 18.125 -6.046875 18.09375 -5.609375 18.03125 -5.046875 C 19.550781 -5.640625 21.335938 -7.210938 23.390625 -9.765625 C 23.765625 -10.203125 24.1875 -10.421875 24.65625 -10.421875 C 25.0625 -10.421875 25.378906 -10.234375 25.609375 -9.859375 C 25.847656 -9.484375 25.96875 -8.96875 25.96875 -8.3125 C 25.96875 -7.125 25.671875 -6.160156 25.078125 -5.421875 C 23.523438 -3.484375 22.039062 -2.164062 20.625 -1.46875 C 19.207031 -0.769531 17.453125 -0.390625 15.359375 -0.328125 C 14.117188 0.734375 12.640625 1.265625 10.921875 1.265625 Z M 10.921875 1.265625 "/></g></g></g><path fill="#000000" d="M 99.773438 18.003906 C 93.109375 13.257812 83.835938 14.785156 79.0625 21.417969 C 74.292969 28.050781 75.832031 37.277344 82.5 42.023438 C 89.167969 46.769531 98.441406 45.238281 103.210938 38.605469 C 107.980469 31.972656 106.441406 22.746094 99.773438 18.003906 Z M 98.273438 20.089844 C 92.765625 16.167969 85.105469 17.433594 81.164062 22.914062 C 77.21875 28.394531 78.492188 36.015625 84 39.933594 C 89.507812 43.855469 97.171875 42.59375 101.113281 37.113281 C 105.054688 31.632812 103.78125 24.011719 98.273438 20.089844 Z M 98.273438 20.089844 " fill-opacity="1" fill-rule="evenodd"/><g clip-path="url(#id2)"><path fill="#000000" d="M 86.828125 42.085938 L 81.546875 38.605469 C 81.453125 38.546875 81.351562 38.527344 81.238281 38.558594 C 81.125 38.585938 81.035156 38.648438 80.964844 38.75 L 71.03125 53.699219 C 70.964844 53.800781 70.941406 53.910156 70.957031 54.023438 C 70.976562 54.136719 71.03125 54.226562 71.125 54.289062 L 76.40625 57.765625 C 76.5 57.828125 76.601562 57.84375 76.714844 57.816406 C 76.828125 57.789062 76.917969 57.722656 76.984375 57.621094 L 86.921875 42.671875 C 86.988281 42.574219 87.011719 42.464844 86.996094 42.347656 C 86.976562 42.234375 86.921875 42.144531 86.828125 42.085938 Z M 86.828125 42.085938 " fill-opacity="1" fill-rule="evenodd"/></g><path fill="#000000" d="M 101.597656 26.558594 C 99.234375 23.15625 94.683594 19.546875 90.519531 19.125 C 96.363281 17.941406 101.140625 23.125 101.597656 26.558594 Z M 101.597656 26.558594 " fill-opacity="1" fill-rule="evenodd"/></svg>