<svg xmlns="http://www.w3.org/2000/svg" xmlns:xlink="http://www.w3.org/1999/xlink" width="718" zoomAndPan="magnify" viewBox="0 0 538.5 70.499998" height="94" preserveAspectRatio="xMidYMid meet" version="1.0"><defs><g/><clipPath id="id1"><path d="M 1.648438 0 L 536.355469 0 L 536.355469 70.003906 L 1.648438 70.003906 Z M 1.648438 0 " clip-rule="nonzero"/></clipPath><clipPath id="id2"><path d="M 61.421875 25 L 124.035156 25 L 124.035156 48.601562 L 61.421875 48.601562 Z M 61.421875 25 " clip-rule="nonzero"/></clipPath><clipPath id="id3"><path d="M 79 10.585938 L 95 10.585938 L 95 35 L 79 35 Z M 79 10.585938 " clip-rule="nonzero"/></clipPath></defs><g clip-path="url(#id1)"><path fill="#82d2ff" d="M 17.308594 0 L 521.191406 0 C 525.339844 0 529.324219 1.640625 532.257812 4.5625 C 535.191406 7.480469 536.839844 11.441406 536.839844 15.574219 L 536.839844 54.496094 C 536.839844 58.625 535.191406 62.585938 532.257812 65.507812 C 529.324219 68.429688 525.339844 70.070312 521.191406 70.070312 L 17.308594 70.070312 C 13.15625 70.070312 9.175781 68.429688 6.242188 65.507812 C 3.308594 62.585938 1.660156 58.625 1.660156 54.496094 L 1.660156 15.574219 C 1.660156 11.441406 3.308594 7.480469 6.242188 4.5625 C 9.175781 1.640625 13.15625 0 17.308594 0 " fill-opacity="1" fill-rule="nonzero"/></g><g fill="#ffffff" fill-opacity="1"><g transform="translate(149.607605, 48.589559)"><g><path d="M 39.5 -19.75 C 40.195312 -19.75 40.707031 -19.597656 41.03125 -19.296875 C 41.351562 -18.992188 41.515625 -18.597656 41.515625 -18.109375 C 41.515625 -17.316406 41.273438 -16.613281 40.796875 -16 C 40.328125 -15.394531 39.59375 -15.078125 38.59375 -15.046875 C 36.144531 -14.984375 33.976562 -15.164062 32.09375 -15.59375 C 29.925781 -11.050781 27.3125 -7.273438 24.25 -4.265625 C 21.1875 -1.265625 18.117188 0.234375 15.046875 0.234375 C 11.867188 0.234375 9.503906 -1.609375 7.953125 -5.296875 C 6.398438 -8.984375 5.625 -13.96875 5.625 -20.25 C 5.625 -25.613281 6.003906 -30.429688 6.765625 -34.703125 C 7.035156 -36.285156 7.421875 -37.359375 7.921875 -37.921875 C 8.429688 -38.484375 9.296875 -38.765625 10.515625 -38.765625 C 12.523438 -38.765625 13.53125 -37.894531 13.53125 -36.15625 C 13.53125 -35.976562 13.5 -35.644531 13.4375 -35.15625 C 12.519531 -29.664062 12.0625 -24.695312 12.0625 -20.25 C 12.0625 -15.59375 12.453125 -12.050781 13.234375 -9.625 C 14.015625 -7.195312 15.179688 -5.984375 16.734375 -5.984375 C 18.316406 -5.984375 20.035156 -7.082031 21.890625 -9.28125 C 23.753906 -11.476562 25.460938 -14.238281 27.015625 -17.5625 C 25.160156 -18.71875 23.757812 -20.21875 22.8125 -22.0625 C 21.863281 -23.90625 21.390625 -26.03125 21.390625 -28.4375 C 21.390625 -30.84375 21.765625 -32.875 22.515625 -34.53125 C 23.265625 -36.195312 24.285156 -37.441406 25.578125 -38.265625 C 26.867188 -39.085938 28.3125 -39.5 29.90625 -39.5 C 31.851562 -39.5 33.394531 -38.796875 34.53125 -37.390625 C 35.675781 -35.992188 36.25 -34.078125 36.25 -31.640625 C 36.25 -28.128906 35.488281 -24.300781 33.96875 -20.15625 C 35.582031 -19.882812 37.425781 -19.75 39.5 -19.75 Z M 26.015625 -28.75 C 26.015625 -25.769531 26.972656 -23.5625 28.890625 -22.125 C 30.078125 -25.539062 30.671875 -28.359375 30.671875 -30.578125 C 30.671875 -31.859375 30.503906 -32.796875 30.171875 -33.390625 C 29.835938 -33.984375 29.378906 -34.28125 28.796875 -34.28125 C 27.972656 -34.28125 27.300781 -33.800781 26.78125 -32.84375 C 26.269531 -31.882812 26.015625 -30.519531 26.015625 -28.75 Z M 26.015625 -28.75 "/></g></g></g><g fill="#ffffff" fill-opacity="1"><g transform="translate(184.487855, 48.589559)"><g><path d="M 22.578125 -10.1875 C 22.972656 -10.1875 23.285156 -10.003906 23.515625 -9.640625 C 23.742188 -9.273438 23.859375 -8.773438 23.859375 -8.140625 C 23.859375 -6.921875 23.570312 -5.972656 23 -5.296875 C 21.875 -3.929688 20.28125 -2.664062 18.21875 -1.5 C 16.164062 -0.34375 13.960938 0.234375 11.609375 0.234375 C 8.410156 0.234375 5.925781 -0.632812 4.15625 -2.375 C 2.394531 -4.113281 1.515625 -6.492188 1.515625 -9.515625 C 1.515625 -11.617188 1.953125 -13.578125 2.828125 -15.390625 C 3.710938 -17.203125 4.941406 -18.640625 6.515625 -19.703125 C 8.085938 -20.773438 9.863281 -21.3125 11.84375 -21.3125 C 13.613281 -21.3125 15.03125 -20.785156 16.09375 -19.734375 C 17.15625 -18.679688 17.6875 -17.253906 17.6875 -15.453125 C 17.6875 -13.347656 16.929688 -11.539062 15.421875 -10.03125 C 13.921875 -8.519531 11.367188 -7.328125 7.765625 -6.453125 C 8.535156 -5.046875 9.984375 -4.34375 12.109375 -4.34375 C 13.484375 -4.34375 15.046875 -4.820312 16.796875 -5.78125 C 18.554688 -6.738281 20.070312 -8 21.34375 -9.5625 C 21.71875 -9.976562 22.128906 -10.1875 22.578125 -10.1875 Z M 11.0625 -16.828125 C 9.9375 -16.828125 8.984375 -16.171875 8.203125 -14.859375 C 7.429688 -13.546875 7.046875 -11.960938 7.046875 -10.109375 L 7.046875 -10.015625 C 8.835938 -10.441406 10.25 -11.082031 11.28125 -11.9375 C 12.320312 -12.789062 12.84375 -13.78125 12.84375 -14.90625 C 12.84375 -15.476562 12.679688 -15.941406 12.359375 -16.296875 C 12.046875 -16.648438 11.613281 -16.828125 11.0625 -16.828125 Z M 11.0625 -16.828125 "/></g></g></g><g fill="#ffffff" fill-opacity="1"><g transform="translate(202.4537, 48.589559)"><g><path d="M 5.4375 0.234375 C 4.28125 0.234375 3.460938 -0.375 2.984375 -1.59375 C 2.515625 -2.8125 2.28125 -4.765625 2.28125 -7.453125 C 2.28125 -11.410156 2.847656 -15.175781 3.984375 -18.75 C 4.253906 -19.632812 4.703125 -20.28125 5.328125 -20.6875 C 5.953125 -21.101562 6.828125 -21.3125 7.953125 -21.3125 C 8.566406 -21.3125 8.992188 -21.234375 9.234375 -21.078125 C 9.472656 -20.921875 9.59375 -20.628906 9.59375 -20.203125 C 9.59375 -19.710938 9.367188 -18.617188 8.921875 -16.921875 C 8.609375 -15.703125 8.359375 -14.632812 8.171875 -13.71875 C 7.992188 -12.800781 7.84375 -11.671875 7.71875 -10.328125 C 8.726562 -12.953125 9.859375 -15.085938 11.109375 -16.734375 C 12.359375 -18.378906 13.582031 -19.550781 14.78125 -20.25 C 15.988281 -20.957031 17.097656 -21.3125 18.109375 -21.3125 C 20.085938 -21.3125 21.078125 -20.316406 21.078125 -18.328125 C 21.078125 -17.929688 20.941406 -16.972656 20.671875 -15.453125 C 20.421875 -14.234375 20.296875 -13.472656 20.296875 -13.171875 C 20.296875 -12.097656 20.675781 -11.5625 21.4375 -11.5625 C 22.289062 -11.5625 23.390625 -12.234375 24.734375 -13.578125 C 25.128906 -13.972656 25.539062 -14.171875 25.96875 -14.171875 C 26.363281 -14.171875 26.675781 -13.992188 26.90625 -13.640625 C 27.132812 -13.296875 27.25 -12.832031 27.25 -12.25 C 27.25 -11.125 26.941406 -10.238281 26.328125 -9.59375 C 25.472656 -8.71875 24.472656 -7.96875 23.328125 -7.34375 C 22.191406 -6.71875 20.984375 -6.40625 19.703125 -6.40625 C 18.085938 -6.40625 16.859375 -6.816406 16.015625 -7.640625 C 15.179688 -8.460938 14.765625 -9.570312 14.765625 -10.96875 C 14.765625 -11.425781 14.8125 -11.882812 14.90625 -12.34375 C 14.96875 -12.957031 15 -13.367188 15 -13.578125 C 15 -14.066406 14.832031 -14.3125 14.5 -14.3125 C 14.039062 -14.3125 13.4375 -13.800781 12.6875 -12.78125 C 11.9375 -11.757812 11.195312 -10.410156 10.46875 -8.734375 C 9.738281 -7.054688 9.144531 -5.285156 8.6875 -3.421875 C 8.351562 -1.992188 7.960938 -1.023438 7.515625 -0.515625 C 7.078125 -0.015625 6.382812 0.234375 5.4375 0.234375 Z M 5.4375 0.234375 "/></g></g></g><g fill="#ffffff" fill-opacity="1"><g transform="translate(223.253843, 48.589559)"><g/></g></g><g fill="#ffffff" fill-opacity="1"><g transform="translate(235.368218, 48.589559)"><g><path d="M 5.4375 0.234375 C 4.28125 0.234375 3.460938 -0.375 2.984375 -1.59375 C 2.515625 -2.8125 2.28125 -4.765625 2.28125 -7.453125 C 2.28125 -11.410156 2.847656 -15.175781 3.984375 -18.75 C 4.253906 -19.632812 4.703125 -20.28125 5.328125 -20.6875 C 5.953125 -21.101562 6.828125 -21.3125 7.953125 -21.3125 C 8.566406 -21.3125 8.992188 -21.234375 9.234375 -21.078125 C 9.472656 -20.921875 9.59375 -20.628906 9.59375 -20.203125 C 9.59375 -19.710938 9.367188 -18.617188 8.921875 -16.921875 C 8.609375 -15.703125 8.359375 -14.632812 8.171875 -13.71875 C 7.992188 -12.800781 7.84375 -11.671875 7.71875 -10.328125 C 8.726562 -12.953125 9.859375 -15.085938 11.109375 -16.734375 C 12.359375 -18.378906 13.582031 -19.550781 14.78125 -20.25 C 15.988281 -20.957031 17.097656 -21.3125 18.109375 -21.3125 C 20.085938 -21.3125 21.078125 -20.316406 21.078125 -18.328125 C 21.078125 -17.140625 20.742188 -14.992188 20.078125 -11.890625 C 19.492188 -9.234375 19.203125 -7.476562 19.203125 -6.625 C 19.203125 -5.40625 19.644531 -4.796875 20.53125 -4.796875 C 21.132812 -4.796875 21.851562 -5.171875 22.6875 -5.921875 C 23.53125 -6.671875 24.65625 -7.882812 26.0625 -9.5625 C 26.425781 -9.976562 26.835938 -10.1875 27.296875 -10.1875 C 27.691406 -10.1875 28.003906 -10.003906 28.234375 -9.640625 C 28.460938 -9.273438 28.578125 -8.773438 28.578125 -8.140625 C 28.578125 -6.921875 28.285156 -5.972656 27.703125 -5.296875 C 26.390625 -3.679688 24.976562 -2.351562 23.46875 -1.3125 C 21.96875 -0.28125 20.253906 0.234375 18.328125 0.234375 C 16.773438 0.234375 15.601562 -0.210938 14.8125 -1.109375 C 14.019531 -2.015625 13.625 -3.320312 13.625 -5.03125 C 13.625 -5.882812 13.835938 -7.40625 14.265625 -9.59375 C 14.660156 -11.519531 14.859375 -12.847656 14.859375 -13.578125 C 14.859375 -14.066406 14.691406 -14.3125 14.359375 -14.3125 C 13.960938 -14.3125 13.40625 -13.800781 12.6875 -12.78125 C 11.96875 -11.757812 11.234375 -10.410156 10.484375 -8.734375 C 9.742188 -7.054688 9.144531 -5.285156 8.6875 -3.421875 C 8.351562 -1.992188 7.960938 -1.023438 7.515625 -0.515625 C 7.078125 -0.015625 6.382812 0.234375 5.4375 0.234375 Z M 5.4375 0.234375 "/></g></g></g><g fill="#ffffff" fill-opacity="1"><g transform="translate(258.042668, 48.589559)"><g><path d="M 25.515625 -14.03125 C 25.910156 -14.03125 26.210938 -13.832031 26.421875 -13.4375 C 26.640625 -13.039062 26.75 -12.539062 26.75 -11.9375 C 26.75 -10.46875 26.304688 -9.597656 25.421875 -9.328125 C 23.585938 -8.679688 21.578125 -8.316406 19.390625 -8.234375 C 18.804688 -5.671875 17.660156 -3.617188 15.953125 -2.078125 C 14.242188 -0.535156 12.3125 0.234375 10.15625 0.234375 C 8.320312 0.234375 6.753906 -0.207031 5.453125 -1.09375 C 4.160156 -1.976562 3.179688 -3.148438 2.515625 -4.609375 C 1.847656 -6.078125 1.515625 -7.664062 1.515625 -9.375 C 1.515625 -11.6875 1.953125 -13.75 2.828125 -15.5625 C 3.710938 -17.375 4.929688 -18.789062 6.484375 -19.8125 C 8.046875 -20.832031 9.769531 -21.34375 11.65625 -21.34375 C 13.976562 -21.34375 15.847656 -20.539062 17.265625 -18.9375 C 18.679688 -17.34375 19.507812 -15.375 19.75 -13.03125 C 21.1875 -13.125 22.894531 -13.425781 24.875 -13.9375 C 25.113281 -14 25.328125 -14.03125 25.515625 -14.03125 Z M 10.515625 -4.625 C 11.492188 -4.625 12.335938 -5.019531 13.046875 -5.8125 C 13.765625 -6.601562 14.25 -7.742188 14.5 -9.234375 C 13.550781 -9.867188 12.820312 -10.703125 12.3125 -11.734375 C 11.8125 -12.773438 11.5625 -13.878906 11.5625 -15.046875 C 11.5625 -15.523438 11.609375 -16.007812 11.703125 -16.5 L 11.46875 -16.5 C 10.25 -16.5 9.234375 -15.910156 8.421875 -14.734375 C 7.617188 -13.566406 7.21875 -11.914062 7.21875 -9.78125 C 7.21875 -8.101562 7.546875 -6.820312 8.203125 -5.9375 C 8.859375 -5.0625 9.628906 -4.625 10.515625 -4.625 Z M 10.515625 -4.625 "/></g></g></g><g fill="#ffffff" fill-opacity="1"><g transform="translate(278.659963, 48.589559)"><g/></g></g><g fill="#ffffff" fill-opacity="1"><g transform="translate(290.774337, 48.589559)"><g><path d="M 10.609375 0.234375 C 9.484375 0.234375 8.675781 -0.015625 8.1875 -0.515625 C 7.695312 -1.023438 7.453125 -1.984375 7.453125 -3.390625 C 7.453125 -4.328125 7.550781 -5.535156 7.75 -7.015625 C 7.945312 -8.492188 8.273438 -10.53125 8.734375 -13.125 C 9.523438 -17.90625 10.148438 -22.050781 10.609375 -25.5625 C 10.878906 -27.75 11.015625 -29.578125 11.015625 -31.046875 C 11.015625 -32.410156 10.515625 -33.09375 9.515625 -33.09375 C 8.722656 -33.09375 7.769531 -32.6875 6.65625 -31.875 C 5.539062 -31.070312 4.3125 -29.789062 2.96875 -28.03125 C 2.539062 -27.445312 2.066406 -27.15625 1.546875 -27.15625 C 1.128906 -27.15625 0.757812 -27.359375 0.4375 -27.765625 C 0.113281 -28.179688 -0.046875 -28.648438 -0.046875 -29.171875 C -0.046875 -29.660156 0.0507812 -30.15625 0.25 -30.65625 C 0.445312 -31.15625 0.773438 -31.726562 1.234375 -32.375 C 2.691406 -34.414062 4.320312 -35.988281 6.125 -37.09375 C 7.925781 -38.207031 9.722656 -38.765625 11.515625 -38.765625 C 13.191406 -38.765625 14.476562 -38.226562 15.375 -37.15625 C 16.28125 -36.09375 16.734375 -34.539062 16.734375 -32.5 C 16.734375 -31.675781 16.65625 -30.707031 16.5 -29.59375 C 16.351562 -28.488281 16.21875 -27.582031 16.09375 -26.875 C 15.96875 -26.175781 15.875 -25.691406 15.8125 -25.421875 C 17.550781 -30.390625 19.503906 -33.851562 21.671875 -35.8125 C 23.835938 -37.78125 26.210938 -38.765625 28.796875 -38.765625 C 30.785156 -38.765625 32.347656 -38.0625 33.484375 -36.65625 C 34.628906 -35.257812 35.203125 -33.28125 35.203125 -30.71875 C 35.203125 -29.71875 35.066406 -28.46875 34.796875 -26.96875 C 36.316406 -31.175781 38.097656 -34.191406 40.140625 -36.015625 C 42.179688 -37.847656 44.53125 -38.765625 47.1875 -38.765625 C 49.3125 -38.765625 50.945312 -38.078125 52.09375 -36.703125 C 53.238281 -35.335938 53.8125 -33.421875 53.8125 -30.953125 C 53.8125 -29.609375 53.613281 -27.976562 53.21875 -26.0625 L 50.421875 -12.984375 C 50.117188 -11.460938 49.96875 -10.148438 49.96875 -9.046875 C 49.96875 -7.765625 50.265625 -6.804688 50.859375 -6.171875 C 51.453125 -5.535156 52.285156 -5.21875 53.359375 -5.21875 C 54.359375 -5.21875 55.335938 -5.550781 56.296875 -6.21875 C 57.265625 -6.882812 58.398438 -8 59.703125 -9.5625 C 60.066406 -9.976562 60.476562 -10.1875 60.9375 -10.1875 C 61.332031 -10.1875 61.644531 -10.003906 61.875 -9.640625 C 62.101562 -9.273438 62.21875 -8.773438 62.21875 -8.140625 C 62.21875 -6.953125 61.929688 -6.003906 61.359375 -5.296875 C 59.773438 -3.378906 58.203125 -1.976562 56.640625 -1.09375 C 55.085938 -0.207031 53.457031 0.234375 51.75 0.234375 C 49.164062 0.234375 47.140625 -0.535156 45.671875 -2.078125 C 44.210938 -3.617188 43.484375 -5.6875 43.484375 -8.28125 C 43.484375 -10.070312 43.847656 -12.675781 44.578125 -16.09375 L 46.40625 -24.453125 C 46.46875 -24.734375 46.570312 -25.222656 46.71875 -25.921875 C 46.875 -26.617188 47 -27.28125 47.09375 -27.90625 C 47.1875 -28.53125 47.234375 -29.148438 47.234375 -29.765625 C 47.234375 -30.828125 47.023438 -31.625 46.609375 -32.15625 C 46.203125 -32.695312 45.613281 -32.96875 44.84375 -32.96875 C 43.414062 -32.96875 41.914062 -32.046875 40.34375 -30.203125 C 38.78125 -28.359375 37.285156 -25.300781 35.859375 -21.03125 C 34.441406 -16.757812 33.296875 -11.210938 32.421875 -4.390625 C 32.203125 -2.554688 31.828125 -1.328125 31.296875 -0.703125 C 30.765625 -0.078125 29.90625 0.234375 28.71875 0.234375 C 27.675781 0.234375 26.914062 -0.0078125 26.4375 -0.5 C 25.96875 -0.988281 25.734375 -1.90625 25.734375 -3.25 C 25.734375 -4.5 25.898438 -6.132812 26.234375 -8.15625 C 26.578125 -10.1875 27.003906 -12.570312 27.515625 -15.3125 C 28.921875 -22.6875 29.625 -27.441406 29.625 -29.578125 C 29.625 -30.734375 29.398438 -31.585938 28.953125 -32.140625 C 28.515625 -32.691406 27.851562 -32.96875 26.96875 -32.96875 C 25.476562 -32.96875 23.941406 -32.117188 22.359375 -30.421875 C 20.773438 -28.734375 19.226562 -25.734375 17.71875 -21.421875 C 16.207031 -17.109375 14.945312 -11.28125 13.9375 -3.9375 C 13.726562 -2.375 13.414062 -1.285156 13 -0.671875 C 12.59375 -0.0664062 11.796875 0.234375 10.609375 0.234375 Z M 10.609375 0.234375 "/></g></g></g><g fill="#ffffff" fill-opacity="1"><g transform="translate(347.094737, 48.589559)"><g><path d="M 7.8125 0.234375 C 5.925781 0.234375 4.414062 -0.453125 3.28125 -1.828125 C 2.15625 -3.203125 1.59375 -5 1.59375 -7.21875 C 1.59375 -9.65625 2.15625 -11.960938 3.28125 -14.140625 C 4.414062 -16.328125 5.921875 -18.082031 7.796875 -19.40625 C 9.671875 -20.726562 11.660156 -21.390625 13.765625 -21.390625 C 14.429688 -21.390625 14.878906 -21.257812 15.109375 -21 C 15.335938 -20.75 15.53125 -20.285156 15.6875 -19.609375 C 16.320312 -19.734375 16.988281 -19.796875 17.6875 -19.796875 C 19.1875 -19.796875 19.9375 -19.265625 19.9375 -18.203125 C 19.9375 -17.554688 19.707031 -16.03125 19.25 -13.625 C 18.550781 -10.113281 18.203125 -7.675781 18.203125 -6.3125 C 18.203125 -5.851562 18.3125 -5.484375 18.53125 -5.203125 C 18.757812 -4.929688 19.0625 -4.796875 19.4375 -4.796875 C 20.007812 -4.796875 20.707031 -5.171875 21.53125 -5.921875 C 22.351562 -6.671875 23.46875 -7.882812 24.875 -9.5625 C 25.238281 -9.976562 25.648438 -10.1875 26.109375 -10.1875 C 26.503906 -10.1875 26.816406 -10.003906 27.046875 -9.640625 C 27.273438 -9.273438 27.390625 -8.773438 27.390625 -8.140625 C 27.390625 -6.921875 27.097656 -5.972656 26.515625 -5.296875 C 25.265625 -3.742188 23.9375 -2.429688 22.53125 -1.359375 C 21.132812 -0.296875 19.78125 0.234375 18.46875 0.234375 C 17.46875 0.234375 16.546875 -0.109375 15.703125 -0.796875 C 14.867188 -1.484375 14.238281 -2.421875 13.8125 -3.609375 C 12.21875 -1.046875 10.21875 0.234375 7.8125 0.234375 Z M 9.46875 -4.390625 C 10.132812 -4.390625 10.769531 -4.785156 11.375 -5.578125 C 11.988281 -6.367188 12.429688 -7.421875 12.703125 -8.734375 L 14.40625 -17.140625 C 13.125 -17.109375 11.941406 -16.628906 10.859375 -15.703125 C 9.773438 -14.773438 8.910156 -13.546875 8.265625 -12.015625 C 7.628906 -10.492188 7.3125 -8.878906 7.3125 -7.171875 C 7.3125 -6.234375 7.5 -5.535156 7.875 -5.078125 C 8.257812 -4.617188 8.789062 -4.390625 9.46875 -4.390625 Z M 9.46875 -4.390625 "/></g></g></g><g fill="#ffffff" fill-opacity="1"><g transform="translate(368.580611, 48.589559)"><g><path d="M 26.609375 -10.1875 C 27.003906 -10.1875 27.316406 -10.003906 27.546875 -9.640625 C 27.773438 -9.273438 27.890625 -8.773438 27.890625 -8.140625 C 27.890625 -6.921875 27.597656 -5.972656 27.015625 -5.296875 C 25.703125 -3.679688 24.289062 -2.351562 22.78125 -1.3125 C 21.28125 -0.28125 19.566406 0.234375 17.640625 0.234375 C 16.023438 0.234375 14.71875 -0.347656 13.71875 -1.515625 C 11.976562 -0.378906 10.164062 0.203125 8.28125 0.234375 C 7.882812 6.109375 6.984375 11.019531 5.578125 14.96875 C 4.171875 18.914062 2.113281 20.890625 -0.59375 20.890625 C -2.238281 20.890625 -3.457031 20.296875 -4.25 19.109375 C -5.039062 17.921875 -5.4375 16.273438 -5.4375 14.171875 C -5.4375 11.179688 -4.75 7.695312 -3.375 3.71875 C -2.007812 -0.25 0.101562 -4.628906 2.96875 -9.421875 C 2.96875 -13.867188 2.9375 -16.960938 2.875 -18.703125 C 2.84375 -19.585938 3.191406 -20.285156 3.921875 -20.796875 C 4.660156 -21.316406 5.578125 -21.578125 6.671875 -21.578125 C 7.316406 -21.578125 7.78125 -21.445312 8.0625 -21.1875 C 8.351562 -20.925781 8.515625 -20.414062 8.546875 -19.65625 C 8.546875 -18.894531 8.5625 -18.332031 8.59375 -17.96875 C 9.570312 -19.1875 10.53125 -20.0625 11.46875 -20.59375 C 12.414062 -21.125 13.425781 -21.390625 14.5 -21.390625 C 16.195312 -21.390625 17.585938 -20.703125 18.671875 -19.328125 C 19.753906 -17.960938 20.296875 -16.164062 20.296875 -13.9375 C 20.296875 -12.320312 20.035156 -10.753906 19.515625 -9.234375 C 19.003906 -7.710938 18.289062 -6.328125 17.375 -5.078125 C 18.007812 -4.890625 18.539062 -4.796875 18.96875 -4.796875 C 19.976562 -4.796875 20.9375 -5.160156 21.84375 -5.890625 C 22.757812 -6.628906 23.9375 -7.851562 25.375 -9.5625 C 25.738281 -9.976562 26.148438 -10.1875 26.609375 -10.1875 Z M 8.5 -4.15625 C 9.601562 -4.40625 10.617188 -5.007812 11.546875 -5.96875 C 12.472656 -6.925781 13.207031 -8.113281 13.75 -9.53125 C 14.300781 -10.945312 14.578125 -12.429688 14.578125 -13.984375 C 14.578125 -14.898438 14.394531 -15.59375 14.03125 -16.0625 C 13.664062 -16.539062 13.179688 -16.78125 12.578125 -16.78125 C 11.472656 -16.78125 10.144531 -15.617188 8.59375 -13.296875 C 8.5625 -11.960938 8.546875 -10 8.546875 -7.40625 C 8.546875 -6 8.53125 -4.914062 8.5 -4.15625 Z M -0.234375 16.40625 C 0.585938 16.40625 1.273438 14.613281 1.828125 11.03125 C 2.378906 7.457031 2.726562 3.003906 2.875 -2.328125 C 1.570312 0.710938 0.539062 3.617188 -0.21875 6.390625 C -0.988281 9.171875 -1.375 11.503906 -1.375 13.390625 C -1.375 14.367188 -1.257812 15.113281 -1.03125 15.625 C -0.800781 16.144531 -0.535156 16.40625 -0.234375 16.40625 Z M -0.234375 16.40625 "/></g></g></g><g fill="#ffffff" fill-opacity="1"><g transform="translate(390.569332, 48.589559)"><g><path d="M 7.8125 0.234375 C 5.925781 0.234375 4.414062 -0.453125 3.28125 -1.828125 C 2.15625 -3.203125 1.59375 -5 1.59375 -7.21875 C 1.59375 -9.65625 2.15625 -11.960938 3.28125 -14.140625 C 4.414062 -16.328125 5.921875 -18.082031 7.796875 -19.40625 C 9.671875 -20.726562 11.660156 -21.390625 13.765625 -21.390625 C 14.429688 -21.390625 14.878906 -21.257812 15.109375 -21 C 15.335938 -20.75 15.53125 -20.285156 15.6875 -19.609375 C 16.320312 -19.734375 16.988281 -19.796875 17.6875 -19.796875 C 19.1875 -19.796875 19.9375 -19.265625 19.9375 -18.203125 C 19.9375 -17.554688 19.707031 -16.03125 19.25 -13.625 C 18.550781 -10.113281 18.203125 -7.675781 18.203125 -6.3125 C 18.203125 -5.851562 18.3125 -5.484375 18.53125 -5.203125 C 18.757812 -4.929688 19.0625 -4.796875 19.4375 -4.796875 C 20.007812 -4.796875 20.707031 -5.171875 21.53125 -5.921875 C 22.351562 -6.671875 23.46875 -7.882812 24.875 -9.5625 C 25.238281 -9.976562 25.648438 -10.1875 26.109375 -10.1875 C 26.503906 -10.1875 26.816406 -10.003906 27.046875 -9.640625 C 27.273438 -9.273438 27.390625 -8.773438 27.390625 -8.140625 C 27.390625 -6.921875 27.097656 -5.972656 26.515625 -5.296875 C 25.265625 -3.742188 23.9375 -2.429688 22.53125 -1.359375 C 21.132812 -0.296875 19.78125 0.234375 18.46875 0.234375 C 17.46875 0.234375 16.546875 -0.109375 15.703125 -0.796875 C 14.867188 -1.484375 14.238281 -2.421875 13.8125 -3.609375 C 12.21875 -1.046875 10.21875 0.234375 7.8125 0.234375 Z M 9.46875 -4.390625 C 10.132812 -4.390625 10.769531 -4.785156 11.375 -5.578125 C 11.988281 -6.367188 12.429688 -7.421875 12.703125 -8.734375 L 14.40625 -17.140625 C 13.125 -17.109375 11.941406 -16.628906 10.859375 -15.703125 C 9.773438 -14.773438 8.910156 -13.546875 8.265625 -12.015625 C 7.628906 -10.492188 7.3125 -8.878906 7.3125 -7.171875 C 7.3125 -6.234375 7.5 -5.535156 7.875 -5.078125 C 8.257812 -4.617188 8.789062 -4.390625 9.46875 -4.390625 Z M 9.46875 -4.390625 "/></g></g></g><g clip-path="url(#id2)"><path fill="#ffffff" d="M 120.625 44.070312 C 120.066406 44.308594 119.480469 44.519531 118.867188 44.707031 C 118.253906 44.894531 117.617188 45.058594 116.949219 45.199219 C 116.28125 45.335938 115.582031 45.453125 114.855469 45.542969 C 113.753906 45.679688 112.632812 45.757812 111.488281 45.789062 C 110.339844 45.824219 109.175781 45.8125 107.988281 45.769531 C 106.796875 45.726562 105.585938 45.652344 104.359375 45.5625 C 103.128906 45.476562 101.882812 45.367188 100.613281 45.261719 C 99.363281 45.15625 98.097656 45.046875 96.832031 44.957031 C 95.558594 44.863281 94.285156 44.789062 93.011719 44.742188 C 91.738281 44.699219 90.464844 44.683594 89.199219 44.71875 C 87.929688 44.753906 86.667969 44.835938 85.417969 44.984375 C 84.632812 45.074219 83.871094 45.191406 83.125 45.332031 C 82.382812 45.472656 81.65625 45.636719 80.949219 45.828125 C 80.238281 46.015625 79.542969 46.234375 78.867188 46.476562 C 78.1875 46.714844 77.519531 46.984375 76.867188 47.28125 L 63.191406 29.054688 C 63.8125 28.804688 64.4375 28.582031 65.078125 28.382812 C 65.714844 28.183594 66.367188 28.007812 67.03125 27.855469 C 67.695312 27.703125 68.375 27.574219 69.070312 27.464844 C 69.761719 27.359375 70.476562 27.273438 71.207031 27.207031 C 72.304688 27.109375 73.40625 27.0625 74.515625 27.054688 C 75.621094 27.046875 76.734375 27.074219 77.855469 27.128906 C 78.976562 27.183594 80.105469 27.261719 81.25 27.355469 C 82.390625 27.449219 83.546875 27.554688 84.71875 27.660156 C 85.871094 27.765625 87.03125 27.875 88.199219 27.96875 C 89.359375 28.058594 90.523438 28.140625 91.683594 28.195312 C 92.84375 28.253906 93.996094 28.28125 95.132812 28.269531 C 96.269531 28.257812 97.390625 28.207031 98.488281 28.105469 C 99.175781 28.042969 99.839844 27.957031 100.476562 27.855469 C 101.117188 27.753906 101.730469 27.632812 102.324219 27.492188 C 102.917969 27.351562 103.488281 27.195312 104.035156 27.015625 C 104.585938 26.835938 105.113281 26.640625 105.625 26.421875 L 122.230469 43.289062 C 121.71875 43.574219 121.183594 43.835938 120.625 44.070312 Z M 124.011719 43.5 C 123.992188 43.460938 123.960938 43.417969 123.921875 43.378906 L 106.414062 25.734375 C 106.382812 25.707031 106.347656 25.675781 106.304688 25.648438 C 106.261719 25.621094 106.210938 25.597656 106.15625 25.570312 C 106.105469 25.550781 106.046875 25.527344 105.984375 25.507812 C 105.925781 25.492188 105.859375 25.476562 105.796875 25.464844 C 105.761719 25.457031 105.726562 25.453125 105.691406 25.449219 C 105.65625 25.445312 105.621094 25.441406 105.585938 25.441406 C 105.550781 25.4375 105.519531 25.4375 105.488281 25.4375 C 105.453125 25.4375 105.421875 25.441406 105.390625 25.441406 C 105.367188 25.445312 105.339844 25.449219 105.316406 25.453125 C 105.292969 25.457031 105.269531 25.460938 105.246094 25.464844 C 105.222656 25.472656 105.203125 25.476562 105.183594 25.484375 C 105.164062 25.492188 105.144531 25.5 105.125 25.507812 C 104.609375 25.75 104.070312 25.972656 103.511719 26.175781 C 102.949219 26.375 102.367188 26.550781 101.761719 26.707031 C 101.152344 26.863281 100.519531 26.996094 99.863281 27.105469 C 99.199219 27.214844 98.515625 27.304688 97.800781 27.371094 C 96.765625 27.464844 95.722656 27.511719 94.65625 27.519531 C 93.589844 27.53125 92.511719 27.503906 91.414062 27.453125 C 90.316406 27.398438 89.203125 27.320312 88.074219 27.226562 C 86.941406 27.136719 85.796875 27.03125 84.632812 26.925781 C 83.484375 26.816406 82.320312 26.710938 81.15625 26.617188 C 79.988281 26.519531 78.816406 26.4375 77.640625 26.382812 C 76.464844 26.324219 75.289062 26.292969 74.117188 26.300781 C 72.945312 26.308594 71.773438 26.359375 70.609375 26.460938 C 69.785156 26.53125 68.988281 26.628906 68.210938 26.75 C 67.429688 26.871094 66.671875 27.019531 65.929688 27.195312 C 65.1875 27.367188 64.460938 27.570312 63.75 27.796875 C 63.035156 28.023438 62.335938 28.28125 61.648438 28.566406 C 61.597656 28.589844 61.550781 28.613281 61.519531 28.644531 C 61.484375 28.671875 61.457031 28.703125 61.441406 28.734375 C 61.425781 28.769531 61.421875 28.804688 61.425781 28.839844 C 61.433594 28.875 61.449219 28.910156 61.476562 28.949219 L 75.765625 48.214844 C 75.796875 48.257812 75.835938 48.292969 75.882812 48.332031 C 75.929688 48.367188 75.980469 48.402344 76.039062 48.429688 C 76.101562 48.460938 76.164062 48.488281 76.234375 48.511719 C 76.304688 48.535156 76.375 48.554688 76.453125 48.566406 C 76.496094 48.574219 76.539062 48.582031 76.578125 48.585938 C 76.621094 48.589844 76.664062 48.59375 76.703125 48.59375 C 76.746094 48.59375 76.785156 48.59375 76.824219 48.59375 C 76.867188 48.59375 76.90625 48.589844 76.941406 48.582031 C 76.972656 48.582031 77.003906 48.574219 77.035156 48.570312 C 77.0625 48.566406 77.09375 48.554688 77.121094 48.550781 C 77.148438 48.542969 77.175781 48.53125 77.199219 48.523438 C 77.226562 48.511719 77.25 48.503906 77.273438 48.492188 C 77.945312 48.148438 78.632812 47.835938 79.335938 47.558594 C 80.035156 47.28125 80.753906 47.035156 81.488281 46.816406 C 82.222656 46.601562 82.976562 46.417969 83.75 46.265625 C 84.523438 46.109375 85.320312 45.980469 86.140625 45.882812 C 87.320312 45.742188 88.507812 45.664062 89.703125 45.628906 C 90.898438 45.59375 92.101562 45.609375 93.320312 45.648438 C 94.535156 45.695312 95.765625 45.769531 97.011719 45.859375 C 98.253906 45.949219 99.511719 46.054688 100.789062 46.164062 C 102.042969 46.269531 103.308594 46.375 104.574219 46.464844 C 105.839844 46.554688 107.105469 46.632812 108.363281 46.675781 C 109.617188 46.714844 110.863281 46.726562 112.085938 46.691406 C 113.308594 46.65625 114.511719 46.570312 115.683594 46.421875 C 116.503906 46.320312 117.289062 46.1875 118.042969 46.027344 C 118.792969 45.867188 119.507812 45.675781 120.191406 45.460938 C 120.875 45.242188 121.523438 44.996094 122.140625 44.722656 C 122.757812 44.445312 123.34375 44.144531 123.902344 43.8125 C 123.945312 43.785156 123.980469 43.753906 124 43.722656 C 124.023438 43.691406 124.035156 43.65625 124.035156 43.617188 C 124.039062 43.578125 124.027344 43.539062 124.011719 43.5 " fill-opacity="1" fill-rule="nonzero"/></g><path fill="#ffffff" d="M 109.703125 35.542969 C 109.339844 35.652344 108.964844 35.75 108.582031 35.839844 C 108.195312 35.925781 107.796875 36.003906 107.390625 36.070312 C 106.980469 36.140625 106.5625 36.195312 106.125 36.242188 C 105.730469 36.285156 105.324219 36.320312 104.914062 36.34375 C 104.503906 36.371094 104.085938 36.390625 103.664062 36.398438 C 103.238281 36.410156 102.808594 36.414062 102.375 36.410156 C 101.9375 36.40625 101.496094 36.398438 101.050781 36.382812 L 97.246094 29.957031 C 97.484375 29.949219 97.71875 29.941406 97.953125 29.929688 C 98.1875 29.917969 98.421875 29.90625 98.65625 29.890625 C 98.890625 29.878906 99.128906 29.859375 99.359375 29.839844 C 99.59375 29.824219 99.828125 29.800781 100.0625 29.78125 C 100.492188 29.738281 100.910156 29.691406 101.320312 29.636719 C 101.730469 29.585938 102.128906 29.523438 102.523438 29.460938 C 102.914062 29.394531 103.296875 29.320312 103.671875 29.246094 C 104.046875 29.167969 104.414062 29.082031 104.777344 28.988281 L 110.765625 35.183594 C 110.421875 35.316406 110.066406 35.433594 109.703125 35.542969 Z M 116.667969 42.800781 C 116.296875 42.921875 115.914062 43.03125 115.523438 43.128906 C 115.128906 43.226562 114.726562 43.3125 114.308594 43.390625 C 113.890625 43.464844 113.460938 43.53125 113.015625 43.582031 C 112.433594 43.652344 111.832031 43.707031 111.222656 43.738281 C 110.609375 43.773438 109.980469 43.789062 109.339844 43.792969 C 108.703125 43.792969 108.046875 43.785156 107.386719 43.761719 C 106.722656 43.738281 106.046875 43.707031 105.363281 43.664062 L 101.296875 36.796875 C 101.753906 36.8125 102.203125 36.820312 102.648438 36.824219 C 103.09375 36.824219 103.53125 36.820312 103.96875 36.808594 C 104.402344 36.796875 104.828125 36.78125 105.253906 36.75 C 105.675781 36.722656 106.09375 36.691406 106.503906 36.644531 C 106.941406 36.597656 107.363281 36.539062 107.773438 36.472656 C 108.183594 36.40625 108.582031 36.328125 108.972656 36.242188 C 109.359375 36.15625 109.734375 36.058594 110.101562 35.953125 C 110.46875 35.847656 110.824219 35.730469 111.171875 35.605469 L 117.746094 42.402344 C 117.394531 42.546875 117.035156 42.679688 116.667969 42.800781 Z M 103.457031 43.53125 C 103.105469 43.507812 102.75 43.476562 102.394531 43.449219 C 102.035156 43.421875 101.675781 43.390625 101.316406 43.359375 C 100.953125 43.328125 100.589844 43.296875 100.226562 43.265625 C 99.484375 43.203125 98.742188 43.140625 97.992188 43.082031 C 97.246094 43.019531 96.492188 42.960938 95.738281 42.90625 C 94.984375 42.855469 94.226562 42.808594 93.464844 42.773438 C 92.703125 42.734375 91.941406 42.703125 91.171875 42.6875 L 86.816406 35.75 C 87.40625 35.78125 87.992188 35.816406 88.578125 35.855469 C 89.164062 35.890625 89.75 35.933594 90.332031 35.980469 C 90.910156 36.027344 91.492188 36.074219 92.070312 36.125 C 92.648438 36.171875 93.222656 36.222656 93.792969 36.273438 C 94.371094 36.324219 94.945312 36.375 95.515625 36.421875 C 96.085938 36.472656 96.648438 36.519531 97.207031 36.5625 C 97.765625 36.605469 98.320312 36.644531 98.867188 36.679688 C 99.414062 36.714844 99.957031 36.746094 100.492188 36.769531 L 104.511719 43.609375 C 104.164062 43.585938 103.8125 43.5625 103.457031 43.53125 Z M 88.71875 42.675781 C 88.179688 42.6875 87.636719 42.703125 87.09375 42.726562 C 86.550781 42.75 86.007812 42.78125 85.460938 42.824219 C 84.914062 42.867188 84.367188 42.917969 83.820312 42.984375 C 83.335938 43.039062 82.859375 43.101562 82.394531 43.171875 C 81.925781 43.242188 81.464844 43.320312 81.011719 43.402344 C 80.558594 43.488281 80.113281 43.582031 79.671875 43.683594 C 79.230469 43.785156 78.796875 43.890625 78.367188 44.011719 L 76.859375 42.050781 L 88.179688 39.222656 L 90.332031 42.675781 C 89.796875 42.667969 89.257812 42.667969 88.71875 42.675781 Z M 74.125 36.535156 C 74.550781 36.441406 74.988281 36.355469 75.429688 36.277344 C 75.867188 36.203125 76.316406 36.132812 76.769531 36.070312 C 77.226562 36.007812 77.6875 35.953125 78.160156 35.902344 C 78.820312 35.835938 79.476562 35.785156 80.132812 35.746094 C 80.789062 35.707031 81.445312 35.683594 82.097656 35.671875 C 82.75 35.65625 83.398438 35.65625 84.050781 35.664062 C 84.699219 35.671875 85.347656 35.691406 85.992188 35.714844 L 87.898438 38.769531 L 76.515625 41.601562 L 72.847656 36.835938 C 73.269531 36.726562 73.691406 36.625 74.125 36.535156 Z M 68.722656 29.558594 C 69.128906 29.457031 69.539062 29.363281 69.960938 29.28125 C 70.378906 29.199219 70.804688 29.128906 71.238281 29.066406 C 71.671875 29.003906 72.117188 28.953125 72.570312 28.914062 C 72.988281 28.875 73.410156 28.84375 73.839844 28.824219 C 74.265625 28.800781 74.699219 28.789062 75.132812 28.78125 C 75.570312 28.777344 76.007812 28.777344 76.449219 28.78125 C 76.894531 28.789062 77.339844 28.800781 77.792969 28.820312 L 79.699219 35.34375 C 79.546875 35.351562 79.390625 35.363281 79.234375 35.375 C 79.078125 35.382812 78.925781 35.394531 78.769531 35.410156 C 78.613281 35.421875 78.457031 35.433594 78.300781 35.449219 C 78.144531 35.464844 77.988281 35.476562 77.832031 35.496094 C 77.359375 35.542969 76.898438 35.597656 76.441406 35.660156 C 75.988281 35.71875 75.539062 35.789062 75.101562 35.863281 C 74.660156 35.941406 74.222656 36.023438 73.796875 36.113281 C 73.363281 36.203125 72.941406 36.300781 72.519531 36.40625 L 67.511719 29.902344 C 67.910156 29.777344 68.3125 29.664062 68.722656 29.558594 Z M 80.132812 28.949219 C 80.652344 28.984375 81.175781 29.023438 81.703125 29.066406 C 82.230469 29.109375 82.765625 29.15625 83.300781 29.203125 C 83.835938 29.25 84.375 29.300781 84.917969 29.347656 C 85.316406 29.386719 85.714844 29.421875 86.117188 29.457031 C 86.515625 29.492188 86.914062 29.527344 87.316406 29.5625 C 87.71875 29.597656 88.121094 29.628906 88.523438 29.664062 C 88.925781 29.695312 89.328125 29.726562 89.730469 29.753906 L 90.378906 35.582031 C 89.574219 35.515625 88.761719 35.460938 87.945312 35.410156 C 87.128906 35.359375 86.3125 35.316406 85.488281 35.289062 C 84.664062 35.257812 83.839844 35.242188 83.007812 35.242188 C 82.175781 35.246094 81.339844 35.261719 80.503906 35.300781 L 78.582031 28.855469 C 79.09375 28.878906 79.609375 28.914062 80.132812 28.949219 Z M 92.015625 29.894531 C 92.515625 29.917969 93.015625 29.9375 93.511719 29.957031 C 94.011719 29.96875 94.511719 29.980469 95.011719 29.984375 C 95.507812 29.988281 96.007812 29.988281 96.503906 29.976562 L 100.25 36.355469 C 99.730469 36.332031 99.203125 36.300781 98.667969 36.265625 C 98.136719 36.230469 97.597656 36.191406 97.054688 36.152344 C 96.511719 36.109375 95.960938 36.0625 95.40625 36.015625 C 94.851562 35.96875 94.292969 35.917969 93.730469 35.867188 C 93.519531 35.851562 93.3125 35.832031 93.101562 35.8125 C 92.890625 35.796875 92.679688 35.777344 92.46875 35.757812 C 92.257812 35.738281 92.046875 35.71875 91.835938 35.703125 C 91.625 35.683594 91.410156 35.667969 91.199219 35.648438 L 90.519531 29.808594 C 91.019531 29.839844 91.515625 29.871094 92.015625 29.894531 Z M 105.1875 28.648438 C 105.167969 28.636719 105.148438 28.625 105.125 28.613281 C 105.101562 28.601562 105.074219 28.59375 105.046875 28.582031 C 105.019531 28.574219 104.992188 28.566406 104.960938 28.558594 C 104.9375 28.550781 104.917969 28.550781 104.898438 28.546875 C 104.875 28.542969 104.855469 28.539062 104.832031 28.539062 C 104.8125 28.535156 104.792969 28.535156 104.773438 28.535156 C 104.753906 28.535156 104.734375 28.539062 104.714844 28.539062 C 104.710938 28.539062 104.703125 28.542969 104.695312 28.542969 C 104.6875 28.542969 104.683594 28.542969 104.675781 28.542969 C 104.667969 28.546875 104.664062 28.546875 104.65625 28.546875 C 104.648438 28.550781 104.640625 28.550781 104.636719 28.550781 C 104.261719 28.652344 103.878906 28.746094 103.488281 28.828125 C 103.09375 28.917969 102.695312 28.996094 102.289062 29.0625 C 101.878906 29.136719 101.460938 29.199219 101.03125 29.253906 C 100.601562 29.3125 100.160156 29.363281 99.710938 29.40625 C 98.492188 29.523438 97.261719 29.582031 96.027344 29.597656 C 94.789062 29.613281 93.546875 29.585938 92.304688 29.53125 C 91.058594 29.476562 89.816406 29.390625 88.578125 29.292969 C 87.335938 29.195312 86.101562 29.082031 84.875 28.96875 C 83.761719 28.867188 82.660156 28.769531 81.578125 28.679688 C 80.496094 28.59375 79.425781 28.515625 78.375 28.464844 C 77.324219 28.414062 76.289062 28.386719 75.269531 28.394531 C 74.25 28.398438 73.25 28.441406 72.265625 28.53125 C 71.769531 28.578125 71.285156 28.632812 70.8125 28.699219 C 70.339844 28.765625 69.875 28.847656 69.417969 28.9375 C 68.960938 29.027344 68.511719 29.132812 68.066406 29.246094 C 67.625 29.363281 67.1875 29.492188 66.753906 29.632812 C 66.722656 29.640625 66.699219 29.65625 66.675781 29.667969 C 66.65625 29.683594 66.640625 29.703125 66.632812 29.71875 C 66.621094 29.738281 66.617188 29.757812 66.621094 29.777344 C 66.621094 29.796875 66.632812 29.816406 66.648438 29.835938 L 77.777344 44.386719 C 77.792969 44.402344 77.808594 44.421875 77.828125 44.4375 C 77.847656 44.453125 77.871094 44.46875 77.898438 44.480469 C 77.921875 44.496094 77.949219 44.507812 77.976562 44.519531 C 78.003906 44.527344 78.035156 44.539062 78.066406 44.542969 C 78.089844 44.550781 78.113281 44.554688 78.140625 44.558594 C 78.164062 44.5625 78.1875 44.566406 78.210938 44.570312 C 78.234375 44.570312 78.257812 44.570312 78.28125 44.570312 C 78.304688 44.570312 78.324219 44.570312 78.347656 44.566406 C 78.355469 44.566406 78.363281 44.5625 78.375 44.5625 C 78.382812 44.5625 78.390625 44.558594 78.398438 44.558594 C 78.40625 44.554688 78.414062 44.554688 78.421875 44.550781 C 78.429688 44.550781 78.4375 44.546875 78.445312 44.546875 C 78.898438 44.414062 79.355469 44.292969 79.816406 44.183594 C 80.28125 44.070312 80.75 43.96875 81.222656 43.878906 C 81.699219 43.785156 82.179688 43.699219 82.671875 43.625 C 83.160156 43.550781 83.664062 43.484375 84.171875 43.425781 C 85.542969 43.265625 86.910156 43.175781 88.269531 43.136719 C 89.628906 43.101562 90.984375 43.117188 92.332031 43.164062 C 93.675781 43.207031 95.019531 43.289062 96.351562 43.386719 C 97.679688 43.484375 99 43.59375 100.3125 43.707031 C 101.496094 43.808594 102.667969 43.90625 103.816406 43.992188 C 104.960938 44.078125 106.085938 44.148438 107.1875 44.191406 C 108.285156 44.234375 109.355469 44.25 110.398438 44.226562 C 111.4375 44.199219 112.445312 44.132812 113.421875 44.015625 C 113.910156 43.957031 114.382812 43.882812 114.839844 43.800781 C 115.292969 43.714844 115.734375 43.617188 116.160156 43.507812 C 116.589844 43.398438 117 43.273438 117.402344 43.140625 C 117.800781 43.003906 118.1875 42.855469 118.5625 42.695312 C 118.59375 42.683594 118.613281 42.667969 118.632812 42.648438 C 118.648438 42.632812 118.65625 42.613281 118.660156 42.59375 C 118.667969 42.574219 118.664062 42.554688 118.65625 42.53125 C 118.648438 42.511719 118.632812 42.488281 118.609375 42.464844 L 105.238281 28.691406 C 105.222656 28.679688 105.207031 28.664062 105.1875 28.648438 " fill-opacity="1" fill-rule="nonzero"/><g clip-path="url(#id3)"><path fill="#ffffff" d="M 87.152344 23.117188 C 84.410156 23.117188 82.183594 20.890625 82.183594 18.144531 C 82.183594 15.398438 84.410156 13.171875 87.152344 13.171875 C 89.898438 13.171875 92.121094 15.398438 92.121094 18.144531 C 92.121094 20.890625 89.898438 23.117188 87.152344 23.117188 Z M 87.152344 10.59375 C 82.988281 10.59375 79.609375 13.972656 79.609375 18.144531 C 79.609375 26.746094 87.152344 34.007812 87.152344 34.007812 C 87.152344 34.007812 94.695312 26.746094 94.695312 18.144531 C 94.695312 13.972656 91.320312 10.59375 87.152344 10.59375 " fill-opacity="1" fill-rule="nonzero"/></g></svg>